<svg version="1.1" id="Layer_1" xmlns="http://www.w3.org/2000/svg" xmlns:xlink="http://www.w3.org/1999/xlink" x="0px" y="0px"
	 width="100%" viewBox="0 0 512 512" enable-background="new 0 0 512 512" xml:space="preserve">
<path fill="#FFFFFF" opacity="1.000000" stroke="none" 
	d="
M0.999995,405.000000 
	C1.000000,270.377472 1.000000,135.754929 1.000000,1.066197 
	C171.566589,1.066197 342.133209,1.066197 513.000000,1.066197 
	C513.000000,130.357254 513.000000,259.714752 512.651978,389.361420 
	C511.865479,387.579987 511.580536,385.461761 510.955750,383.448975 
	C509.751465,379.569397 506.306366,377.785858 502.955109,378.254791 
	C493.612183,379.562164 484.385681,381.690430 475.101654,383.432831 
	C459.916473,386.282745 444.722137,389.083862 428.661560,392.067200 
	C429.866180,391.002808 430.385071,390.429993 431.007599,390.011200 
	C442.798798,382.079224 454.503204,374.012451 466.430359,366.289825 
	C478.878418,358.229919 482.410583,357.693726 472.417419,341.866943 
	C472.243652,341.591766 472.162476,341.257477 471.984863,340.985474 
	C469.753326,337.567413 466.845062,335.983704 462.776825,337.655060 
	C459.956390,338.813812 457.146606,339.998413 454.240997,340.749420 
	C454.216003,339.349701 454.150909,338.341797 454.367889,337.398804 
	C457.513184,323.730469 459.250763,309.924225 459.071106,295.862671 
	C459.014038,291.395599 456.708130,289.622162 452.860229,289.057800 
	C451.239227,288.820068 449.558350,288.990845 447.955078,288.615601 
	C456.867401,274.008179 458.555115,258.941345 453.024567,243.116196 
	C452.523163,241.681503 451.547058,239.706833 450.361481,239.327850 
	C440.085815,236.043228 429.647614,234.595505 419.021027,237.429092 
	C419.003998,234.485504 419.028351,232.000885 418.995667,229.517044 
	C418.830902,216.989029 413.092499,207.707962 402.232330,201.738785 
	C391.751953,195.978363 380.945709,196.623627 370.219574,200.616608 
	C374.067383,190.183884 375.141083,179.810822 372.823212,169.342468 
	C371.952911,165.411789 370.558838,159.699310 367.759247,158.432220 
	C357.351410,153.721649 346.001282,153.894394 334.850677,156.007874 
	C325.157349,157.845154 316.916534,162.766190 309.291290,168.741760 
	C307.011658,154.786789 300.492401,143.514862 291.184448,133.683243 
	C288.757599,131.119858 285.944550,130.062271 283.014923,132.560486 
	C280.186523,134.972351 277.699036,137.784714 275.069183,140.428513 
	C263.213623,152.346985 251.360657,164.268082 239.294922,175.933289 
	C232.822556,166.626190 224.032303,162.978912 213.207825,162.930817 
	C202.138336,162.881638 194.080444,168.410645 187.072037,176.481125 
	C180.963150,171.377335 174.033752,170.046036 166.986130,171.161285 
	C161.225632,172.072845 155.691971,174.418030 149.953339,175.662811 
	C149.839981,170.211243 149.831039,165.224487 149.893616,159.757492 
	C149.976669,151.965668 150.253387,144.642319 149.930252,137.345566 
	C149.556091,128.897018 147.126038,121.249176 140.689819,115.077232 
	C133.080002,107.779846 123.926994,106.446045 114.044006,106.529892 
	C114.036545,96.080688 114.058395,86.099144 114.510406,76.066574 
	C122.585442,75.978973 124.859306,74.747780 124.938423,69.724586 
	C125.124573,57.905064 125.147331,46.077541 124.904037,34.260098 
	C124.834007,30.858671 123.314453,27.934683 118.923187,27.973392 
	C104.607552,28.099592 90.290894,28.110844 75.512665,28.093824 
	C69.248001,28.014240 63.444965,27.964682 57.642719,28.012171 
	C51.993832,28.058405 51.007969,29.063486 51.002655,34.563988 
	C50.992733,44.843136 51.017387,55.122337 50.994850,65.401451 
	C50.972015,75.817078 49.991955,76.029617 60.961624,76.593155 
	C60.978268,87.031067 60.969627,97.009331 60.502663,106.993607 
	C57.548775,107.001541 55.051655,106.946632 52.557903,107.014908 
	C39.695843,107.367081 26.228611,120.280586 26.038000,132.640640 
	C25.896948,141.787079 26.062849,150.938263 26.052597,160.549011 
	C26.035183,195.982132 26.057175,230.953583 26.033226,266.396240 
	C25.993925,299.509979 26.000565,332.152527 25.700571,364.956390 
	C16.491611,372.564941 9.529988,381.466278 5.314487,392.345764 
	C3.705708,396.497711 2.428371,400.778137 0.999995,405.000000 
z"/>
<path fill="#FFFFFF" opacity="1.000000" stroke="none" 
	d="
M513.000000,400.000000 
	C513.000000,437.643433 513.000000,475.286865 513.000000,512.936584 
	C342.333313,512.942871 171.666656,512.942871 1.000000,512.942871 
	C1.000000,484.902893 1.000000,456.920105 1.359756,428.634644 
	C1.922749,429.793365 1.943184,431.308716 2.356382,432.708069 
	C9.709057,457.608704 26.287699,473.562958 50.488831,481.977631 
	C67.278664,487.815460 84.703232,485.784088 102.418373,485.906616 
	C118.242920,485.930969 133.600296,485.882019 149.425049,485.897186 
	C180.943466,485.917572 211.994492,485.873840 243.502869,485.897766 
	C248.632660,485.921051 253.305099,485.876709 258.442932,485.902466 
	C279.613922,485.925629 300.319550,485.878662 321.484680,485.898499 
	C326.614319,485.920135 331.284485,485.875000 336.421387,485.900574 
	C345.610779,485.923706 354.333374,485.876099 363.512329,485.895844 
	C368.647217,485.920105 373.325836,485.877045 378.461426,485.903381 
	C380.742767,485.981873 382.570129,485.925446 384.390930,486.010345 
	C399.355011,486.708099 414.839783,472.783661 413.028656,457.355804 
	C412.513885,452.970947 412.344452,448.545532 412.443115,444.083069 
	C425.582489,446.184082 438.295746,448.338959 451.008270,450.498108 
	C461.792084,452.329620 472.530121,454.533295 483.375458,455.861023 
	C489.771881,456.644104 490.906219,455.137421 492.010956,448.589966 
	C492.418610,446.173889 492.655060,443.729065 493.057007,441.311890 
	C494.244965,434.167908 492.579346,431.606445 485.555054,429.984833 
	C473.965149,427.309204 462.366211,424.672638 450.779541,421.982971 
	C445.296783,420.710205 439.833710,419.352692 434.361694,418.033569 
	C437.776917,416.741699 441.040222,416.451660 444.246490,415.854919 
	C463.491058,412.273010 482.737793,408.698395 501.945862,404.928223 
	C505.914062,404.149353 510.576874,404.445221 513.000000,400.000000 
z"/>
<path fill="#89C947" opacity="1.000000" stroke="none" 
	d="
M513.000000,399.545898 
	C510.576874,404.445221 505.914062,404.149353 501.945862,404.928223 
	C482.737793,408.698395 463.491058,412.273010 444.246490,415.854919 
	C441.040222,416.451660 437.776917,416.741699 434.361694,418.033569 
	C439.833710,419.352692 445.296783,420.710205 450.779541,421.982971 
	C462.366211,424.672638 473.965149,427.309204 485.555054,429.984833 
	C492.579346,431.606445 494.244965,434.167908 493.057007,441.311890 
	C492.655060,443.729065 492.418610,446.173889 492.010956,448.589966 
	C490.906219,455.137421 489.771881,456.644104 483.375458,455.861023 
	C472.530121,454.533295 461.792084,452.329620 451.008270,450.498108 
	C438.295746,448.338959 425.582489,446.184082 412.133972,443.858917 
	C410.441711,439.516663 409.321716,435.372589 408.556641,431.163971 
	C405.209747,412.753082 401.965729,394.323517 398.919983,375.640442 
	C406.606384,370.976624 414.089539,366.626740 421.500183,362.156586 
	C432.026672,355.806915 442.499756,349.368713 453.320679,342.872742 
	C453.834564,342.213989 454.023438,341.650848 454.234070,341.120300 
	C454.255829,341.152924 454.332031,341.171417 454.332031,341.171417 
	C457.146606,339.998413 459.956390,338.813812 462.776825,337.655060 
	C466.845062,335.983704 469.753326,337.567413 471.984863,340.985474 
	C472.162476,341.257477 472.243652,341.591766 472.417419,341.866943 
	C482.410583,357.693726 478.878418,358.229919 466.430359,366.289825 
	C454.503204,374.012451 442.798798,382.079224 431.007599,390.011200 
	C430.385071,390.429993 429.866180,391.002808 428.661560,392.067200 
	C444.722137,389.083862 459.916473,386.282745 475.101654,383.432831 
	C484.385681,381.690430 493.612183,379.562164 502.955109,378.254791 
	C506.306366,377.785858 509.751465,379.569397 510.955750,383.448975 
	C511.580536,385.461761 511.865479,387.579987 512.651978,389.825317 
	C513.000000,393.030609 513.000000,396.061188 513.000000,399.545898 
z"/>
<path fill="#D74848" opacity="1.000000" stroke="none" 
	d="
M101.951202,485.833313 
	C84.703232,485.784088 67.278664,487.815460 50.488831,481.977631 
	C26.287699,473.562958 9.709057,457.608704 2.356382,432.708069 
	C1.943184,431.308716 1.922749,429.793365 1.359756,428.166016 
	C1.000000,420.645752 1.000000,413.291504 0.999995,405.468628 
	C2.428371,400.778137 3.705708,396.497711 5.314487,392.345764 
	C9.529988,381.466278 16.491611,372.564941 26.027172,364.906219 
	C32.830399,361.074738 39.000389,357.454773 45.445206,354.028931 
	C51.151924,356.857635 56.583817,359.492249 61.843964,362.409271 
	C34.400658,382.787109 25.493267,417.730164 41.239258,447.095795 
	C52.003201,467.170166 69.757660,478.853149 91.858788,483.940491 
	C95.191574,484.707642 98.585541,485.209015 101.951202,485.833313 
z"/>
<path fill="#E6E9ED" opacity="1.000000" stroke="none" 
	d="
M452.995667,342.968353 
	C442.499756,349.368713 432.026672,355.806915 421.500183,362.156586 
	C414.089539,366.626740 406.606384,370.976624 398.723999,375.400269 
	C398.064301,374.615662 397.836273,373.811005 397.627991,372.628174 
	C397.420807,371.111206 397.216461,369.967377 396.963440,368.834412 
	C393.144440,351.732025 377.700714,341.788300 361.235779,347.388428 
	C340.233124,354.531921 319.705292,363.071472 298.593384,370.997559 
	C293.792786,372.720154 289.371643,374.454468 284.595856,376.236877 
	C274.328918,380.065887 264.432892,383.890106 254.500717,387.618134 
	C236.971085,394.197906 219.419434,400.719025 201.757507,406.887085 
	C196.695648,381.102417 181.609070,364.061951 158.297180,353.482086 
	C159.870529,347.260437 155.623962,345.128601 151.645020,343.147095 
	C142.961029,338.822449 133.489059,338.733215 124.062378,338.117920 
	C123.698128,335.621857 123.236374,333.531006 123.009956,331.414978 
	C121.962585,321.626526 121.170662,311.806091 119.888588,302.049500 
	C119.316811,297.698364 118.390945,293.570618 122.480751,290.018524 
	C132.675613,289.868927 142.408340,289.793762 152.595154,289.790466 
	C163.034775,289.828400 173.020309,289.794525 183.466415,289.832703 
	C190.950546,289.845673 197.974106,289.786560 205.457581,289.793030 
	C210.242065,289.800293 214.566605,289.741974 219.359680,289.765533 
	C226.257401,289.775818 232.686600,289.704224 239.561050,289.726807 
	C244.008484,289.782043 248.010651,289.743073 252.471878,289.784790 
	C257.644623,289.804260 262.358337,289.743042 267.526398,289.764954 
	C272.636658,289.799103 277.292572,289.750153 282.410217,289.780487 
	C287.248413,289.803009 291.624908,289.746246 296.458252,289.770477 
	C300.908447,289.781219 304.901764,289.710938 309.360382,289.739563 
	C316.553864,289.788940 323.282074,289.739441 330.475037,289.772217 
	C355.590637,289.814514 380.241486,289.774506 405.344788,289.804016 
	C408.553009,289.833130 411.308807,289.792725 414.525482,289.810425 
	C422.397339,289.881958 429.809998,289.994507 437.218536,289.865753 
	C440.784637,289.803802 444.342896,289.286865 447.904694,288.975952 
	C449.558350,288.990845 451.239227,288.820068 452.860229,289.057800 
	C456.708130,289.622162 459.014038,291.395599 459.071106,295.862671 
	C459.250763,309.924225 457.513184,323.730469 454.367889,337.398804 
	C454.150909,338.341797 454.216003,339.349701 454.240997,340.749420 
	C454.332031,341.171417 454.255829,341.152924 453.942749,341.228149 
	C453.418365,341.858368 453.207031,342.413361 452.995667,342.968353 
z"/>
<path fill="#378C0F" opacity="1.000000" stroke="none" 
	d="
M150.057739,176.127625 
	C155.691971,174.418030 161.225632,172.072845 166.986130,171.161285 
	C174.033752,170.046036 180.963150,171.377335 187.072037,176.481125 
	C194.080444,168.410645 202.138336,162.881638 213.207825,162.930817 
	C224.032303,162.978912 232.822556,166.626190 239.421844,176.279694 
	C241.462814,181.814865 243.063065,186.787949 244.937286,191.655563 
	C245.420273,192.909988 246.559418,194.256226 247.749603,194.833206 
	C252.429001,197.101593 257.249023,199.079895 262.171539,201.442429 
	C265.668182,206.944839 269.010132,212.170731 272.207458,217.699005 
	C265.619812,225.071899 261.939606,233.260269 261.504547,243.005371 
	C246.810623,243.071426 232.580582,243.085007 218.350525,243.090530 
	C205.574921,243.095505 205.575180,243.091583 205.836014,255.407013 
	C205.839493,255.571091 205.803482,255.736008 205.504913,255.752014 
	C192.319733,244.057175 177.433899,239.218811 160.165253,242.031418 
	C150.909531,243.538925 148.546463,245.373260 147.152924,254.693726 
	C146.322662,260.246796 146.428207,265.939758 145.718994,271.443420 
	C135.559082,269.278381 129.109772,262.949585 123.985718,254.475098 
	C118.064758,237.288483 122.191887,224.668091 136.692856,214.048996 
	C137.895157,213.168549 138.503143,210.486221 138.269028,208.795975 
	C136.794083,198.146683 138.749313,188.644180 146.481934,180.722717 
	C147.829147,179.342575 148.873505,177.666824 150.057739,176.127625 
M185.639893,191.392990 
	C182.323837,191.260330 178.980408,190.790344 175.696716,191.056732 
	C164.794312,191.941177 155.174149,203.426849 155.932678,214.293076 
	C156.216400,218.357330 158.321594,220.969894 162.282455,221.424210 
	C165.921783,221.841660 168.712540,220.073059 170.006744,216.487427 
	C170.511261,215.089645 170.694916,213.579575 171.118851,212.148529 
	C172.781937,206.534470 178.779129,204.124619 183.947830,207.005325 
	C184.812088,207.487015 185.542313,208.203400 186.362885,208.770187 
	C190.519989,211.641663 194.323730,211.456345 197.083359,208.264847 
	C199.996964,204.895279 199.738220,200.697372 195.698273,197.309372 
	C192.961731,195.014465 189.531418,193.546860 185.639893,191.392990 
M220.499252,225.774612 
	C221.780579,227.015594 223.231964,228.125061 224.312073,229.521667 
	C227.868011,234.119629 231.286606,235.058350 235.340210,232.345642 
	C238.930054,229.943298 239.735352,225.402222 236.847351,220.968033 
	C232.316422,214.011383 225.949371,209.737137 217.392715,210.128830 
	C208.989517,210.513519 202.640793,214.710678 198.575851,222.086502 
	C196.042389,226.683502 197.107147,231.367310 200.862198,233.365707 
	C204.760849,235.440552 209.016388,233.992523 211.697998,229.521530 
	C213.577316,226.388123 215.925430,224.443878 220.499252,225.774612 
z"/>
<path fill="#046699" opacity="1.000000" stroke="none" 
	d="
M149.953323,175.662811 
	C148.873505,177.666824 147.829147,179.342575 146.481934,180.722717 
	C138.749313,188.644180 136.794083,198.146683 138.269028,208.795975 
	C138.503143,210.486221 137.895157,213.168549 136.692856,214.048996 
	C122.191887,224.668091 118.064758,237.288483 123.629456,254.571365 
	C118.093819,258.787018 112.872818,262.528870 107.135239,266.227112 
	C90.059608,266.258423 73.500557,266.333374 56.974403,266.283875 
	C57.007309,266.159454 57.025036,265.902679 57.016830,265.440186 
	C56.996304,230.007294 56.983978,195.036911 57.438835,160.006622 
	C80.391861,159.936768 102.877754,159.897995 125.363533,159.932037 
	C133.516525,159.944382 141.669266,160.130768 149.822113,160.237732 
	C149.831039,165.224487 149.839981,170.211243 149.953323,175.662811 
z"/>
<path fill="#A2DFF9" opacity="1.000000" stroke="none" 
	d="
M149.893616,159.757492 
	C141.669266,160.130768 133.516525,159.944382 125.363533,159.932037 
	C102.877754,159.897995 80.391861,159.936768 57.484737,159.929901 
	C57.063457,159.913055 57.103931,159.738876 57.075302,159.289261 
	C57.031006,155.353668 56.946812,151.866333 57.015114,148.382004 
	C57.128582,142.593292 56.621933,136.674210 57.658649,131.046249 
	C59.862022,119.084885 67.714493,111.767914 79.487061,107.914436 
	C91.327385,107.606293 102.700348,107.301933 114.073318,106.997566 
	C123.926994,106.446045 133.080002,107.779846 140.689819,115.077232 
	C147.126038,121.249176 149.556091,128.897018 149.930252,137.345566 
	C150.253387,144.642319 149.976669,151.965668 149.893616,159.757492 
z"/>
<path fill="#89C947" opacity="1.000000" stroke="none" 
	d="
M309.492798,169.131165 
	C316.916534,162.766190 325.157349,157.845154 334.850677,156.007874 
	C346.001282,153.894394 357.351410,153.721649 367.759247,158.432220 
	C370.558838,159.699310 371.952911,165.411789 372.823212,169.342468 
	C375.141083,179.810822 374.067383,190.183884 370.055420,200.918030 
	C368.673004,202.524887 367.529327,203.453659 366.400940,204.400650 
	C360.759766,209.135040 355.885834,214.381561 354.268677,222.074310 
	C345.200836,222.253082 338.011292,225.588104 331.998199,231.853653 
	C330.873138,233.025940 328.716888,233.208527 326.865295,233.538605 
	C324.387421,228.803986 322.080750,224.378601 319.962006,219.667648 
	C327.264557,211.958069 334.382812,204.537582 341.492218,197.108597 
	C345.165863,193.269806 345.562897,189.216141 342.586731,186.165436 
	C339.562683,183.065643 334.625458,183.120468 331.000702,186.616013 
	C325.263397,192.148849 319.645233,197.808807 314.089203,203.524368 
	C311.805176,205.873993 309.813416,208.507751 307.303772,211.008240 
	C301.950195,210.330627 296.981598,209.657104 292.007599,208.552811 
	C293.341888,202.014206 293.666412,195.426544 296.270782,189.916489 
	C299.752380,182.550461 305.002258,176.020279 309.492798,169.131165 
z"/>
<path fill="#045C89" opacity="1.000000" stroke="none" 
	d="
M57.017555,159.989777 
	C56.983978,195.036911 56.996304,230.007294 56.553265,265.527466 
	C46.091656,266.026489 36.085411,265.975739 26.079165,265.925018 
	C26.057175,230.953583 26.035183,195.982132 26.511377,160.487442 
	C37.041019,159.889084 47.072475,159.813980 57.103931,159.738892 
	C57.103931,159.738876 57.063457,159.913055 57.017555,159.989777 
z"/>
<path fill="#90C7DF" opacity="1.000000" stroke="none" 
	d="
M26.033226,266.396240 
	C36.085411,265.975739 46.091656,266.026489 56.561470,265.989929 
	C57.025036,265.902679 57.007309,266.159454 57.001701,266.722595 
	C57.005081,291.812958 57.014069,316.340118 56.710175,341.049561 
	C54.712547,341.932190 52.974010,342.527069 51.353493,343.353424 
	C47.101337,345.521606 43.673428,348.244965 45.170383,353.834808 
	C39.000389,357.454773 32.830399,361.074738 26.333805,364.744873 
	C26.000565,332.152527 25.993925,299.509979 26.033226,266.396240 
z"/>
<path fill="#EE5050" opacity="1.000000" stroke="none" 
	d="
M309.291290,168.741760 
	C305.002258,176.020279 299.752380,182.550461 296.270782,189.916489 
	C293.666412,195.426544 293.341888,202.014206 291.618408,208.585419 
	C287.608795,210.066696 283.982971,211.084625 280.260162,211.737976 
	C276.143036,204.180099 269.844574,197.789871 262.016846,201.165894 
	C257.249023,199.079895 252.429001,197.101593 247.749603,194.833206 
	C246.559418,194.256226 245.420273,192.909988 244.937286,191.655563 
	C243.063065,186.787949 241.462814,181.814865 239.633667,176.534637 
	C251.360657,164.268082 263.213623,152.346985 275.069183,140.428513 
	C277.699036,137.784714 280.186523,134.972351 283.014923,132.560486 
	C285.944550,130.062271 288.757599,131.119858 291.184448,133.683243 
	C300.492401,143.514862 307.011658,154.786789 309.291290,168.741760 
M293.510864,184.951904 
	C291.223969,183.633102 289.074860,181.726654 286.614044,181.149826 
	C283.777527,180.484955 280.664612,180.938843 277.673950,181.005920 
	C272.940704,181.112106 269.564423,183.925705 269.318024,187.868515 
	C269.084045,191.612869 272.409058,195.463440 276.722961,195.867828 
	C280.182556,196.192123 283.726746,196.232864 287.179077,195.875092 
	C292.801178,195.292526 295.286072,191.239838 293.510864,184.951904 
M269.043915,163.919403 
	C266.879486,167.984253 267.829651,171.427078 271.518860,173.886139 
	C275.175629,176.323639 278.484192,174.925659 281.358978,172.150253 
	C283.513275,170.070404 285.705109,168.012817 287.684967,165.772705 
	C290.958038,162.069397 290.891998,158.313675 287.710602,155.177856 
	C284.578491,152.090637 280.783417,152.079651 277.117645,155.435898 
	C274.423615,157.902405 271.983093,160.645752 269.043915,163.919403 
z"/>
<path fill="#046699" opacity="1.000000" stroke="none" 
	d="
M75.974632,28.166321 
	C90.290894,28.110844 104.607552,28.099592 118.923187,27.973392 
	C123.314453,27.934683 124.834007,30.858671 124.904037,34.260098 
	C125.147331,46.077541 125.124573,57.905064 124.938423,69.724586 
	C124.859306,74.747780 122.585442,75.978973 114.040344,76.013474 
	C100.084641,75.943817 87.029160,75.876213 73.918716,75.409386 
	C73.575317,73.057350 73.052162,71.106300 73.037445,69.151428 
	C72.955971,58.328705 72.795204,47.498684 73.134453,36.685997 
	C73.224396,33.819221 74.982483,31.004787 75.974632,28.166321 
z"/>
<path fill="#FEC502" opacity="1.000000" stroke="none" 
	d="
M354.663300,222.054611 
	C355.885834,214.381561 360.759766,209.135040 366.400940,204.400650 
	C367.529327,203.453659 368.673004,202.524887 369.973785,201.286270 
	C380.945709,196.623627 391.751953,195.978363 402.232330,201.738785 
	C413.092499,207.707962 418.830902,216.989029 418.995667,229.517044 
	C419.028351,232.000885 419.003998,234.485504 418.700073,237.598404 
	C409.201324,241.915878 400.306885,246.064224 393.577515,254.051315 
	C392.159302,253.510620 391.135193,252.691101 390.048950,252.598297 
	C383.189148,252.012253 380.170471,248.128113 379.948364,241.502914 
	C379.911926,240.416290 379.197113,239.325714 378.695221,238.285522 
	C373.837097,228.216736 365.301514,223.574982 354.663300,222.054611 
z"/>
<path fill="#8AC947" opacity="1.000000" stroke="none" 
	d="
M393.942841,254.108475 
	C400.306885,246.064224 409.201324,241.915878 418.715210,238.057739 
	C429.647614,234.595505 440.085815,236.043228 450.361481,239.327850 
	C451.547058,239.706833 452.523163,241.681503 453.024567,243.116196 
	C458.555115,258.941345 456.867401,274.008179 447.955078,288.615601 
	C444.342896,289.286865 440.784637,289.803802 437.218536,289.865753 
	C429.809998,289.994507 422.397339,289.881958 414.681885,289.537231 
	C419.031982,284.264404 423.766815,279.395203 428.308655,274.352173 
	C430.728394,271.665405 430.646515,268.672241 428.441162,265.749695 
	C425.573578,261.949493 420.345886,261.772217 416.189362,265.389374 
	C413.220123,267.973236 410.269257,270.578156 407.087646,272.861816 
	C404.839874,264.803650 400.294495,258.823212 393.942841,254.108475 
z"/>
<path fill="#48C1E1" opacity="1.000000" stroke="none" 
	d="
M73.973686,75.808609 
	C87.029160,75.876213 100.084641,75.943817 113.610184,76.064514 
	C114.058395,86.099144 114.036545,96.080688 114.044006,106.529892 
	C102.700348,107.301933 91.327385,107.606293 79.169708,107.650047 
	C72.577003,107.255493 66.768997,107.121536 60.960991,106.987587 
	C60.969627,97.009331 60.978268,87.031067 61.424225,76.537071 
	C65.898926,75.950424 69.936302,75.879517 73.973686,75.808609 
z"/>
<path fill="#8FC8E1" opacity="1.000000" stroke="none" 
	d="
M60.502666,106.993607 
	C66.768997,107.121536 72.577003,107.255493 78.702362,107.653831 
	C67.714493,111.767914 59.862022,119.084885 57.658649,131.046249 
	C56.621933,136.674210 57.128582,142.593292 57.015114,148.382004 
	C56.946812,151.866333 57.031006,155.353668 57.075302,159.289276 
	C47.072475,159.813980 37.041019,159.889084 26.550781,160.025757 
	C26.062849,150.938263 25.896948,141.787079 26.038000,132.640640 
	C26.228611,120.280586 39.695843,107.367081 52.557903,107.014908 
	C55.051655,106.946632 57.548775,107.001541 60.502666,106.993607 
z"/>
<path fill="#045C8A" opacity="1.000000" stroke="none" 
	d="
M73.918716,75.409386 
	C69.936302,75.879517 65.898926,75.950424 61.398941,76.077415 
	C49.991955,76.029617 50.972015,75.817078 50.994850,65.401451 
	C51.017387,55.122337 50.992733,44.843136 51.002655,34.563988 
	C51.007969,29.063486 51.993832,28.058405 57.642719,28.012171 
	C63.444965,27.964682 69.248001,28.014240 75.512665,28.093824 
	C74.982483,31.004787 73.224396,33.819221 73.134453,36.685997 
	C72.795204,47.498684 72.955971,58.328705 73.037445,69.151428 
	C73.052162,71.106300 73.575317,73.057350 73.918716,75.409386 
z"/>
<path fill="#F7931E" opacity="1.000000" stroke="none" 
	d="
M397.608246,373.006317 
	C397.836273,373.811005 398.064301,374.615662 398.488373,375.660522 
	C401.965729,394.323517 405.209747,412.753082 408.556641,431.163971 
	C409.321716,435.372589 410.441711,439.516663 411.707520,443.914612 
	C412.344452,448.545532 412.513885,452.970947 413.028656,457.355804 
	C414.839783,472.783661 399.355011,486.708099 384.390930,486.010345 
	C382.570129,485.925446 380.742767,485.981873 378.466736,485.480774 
	C376.022949,473.976013 374.032166,462.963074 372.038116,451.950714 
	C370.983887,446.128357 367.757477,443.418396 363.131653,444.462036 
	C358.251923,445.563019 356.315582,449.197052 357.369141,454.739960 
	C359.336212,465.089233 361.167938,475.464203 363.056000,485.828491 
	C354.333374,485.876099 345.610779,485.923706 336.433044,485.495178 
	C335.644958,483.077148 335.361664,481.125183 334.970062,479.195190 
	C333.564545,472.268036 332.381226,465.280334 330.589264,458.453247 
	C329.636475,454.823334 326.797455,452.539948 322.682312,453.302124 
	C319.115112,453.962830 315.586884,458.423492 316.178741,461.658722 
	C317.657501,469.741394 319.392822,477.777161 321.025177,485.831726 
	C300.319550,485.878662 279.613922,485.925629 258.450104,485.485870 
	C257.658539,482.556976 257.402191,480.101318 256.977692,477.675079 
	C255.559799,469.571014 254.211517,461.451111 252.576599,453.390015 
	C251.635544,448.750061 248.313889,446.451813 244.008987,447.022217 
	C239.586060,447.608276 237.816833,450.434784 237.994446,454.664459 
	C238.070221,456.469330 238.234436,458.284058 238.538513,460.063507 
	C240.007248,468.658142 241.537247,477.242249 243.045532,485.830109 
	C211.994492,485.873840 180.943466,485.917572 149.145813,485.661530 
	C137.816818,483.591248 129.695801,478.630615 126.210175,467.838989 
	C130.197800,464.163422 133.327728,459.353058 137.720932,457.432770 
	C150.881271,451.680267 164.535477,447.057617 178.315033,442.149445 
	C185.852402,446.856506 190.606598,444.450287 191.548462,435.961365 
	C193.361572,435.580261 194.844986,435.321442 196.226562,434.795227 
	C227.506165,422.881805 258.774628,410.939087 290.305420,399.241333 
	C290.791016,400.437988 290.929626,401.426025 291.256439,402.347260 
	C292.875702,406.911682 296.547546,409.055481 300.921021,407.862335 
	C305.559753,406.596710 306.365479,403.009186 305.938446,398.886719 
	C305.735901,396.931366 305.258850,395.004486 305.294983,393.040649 
	C325.163330,385.660065 344.617889,378.236450 364.135651,370.982910 
	C371.080841,368.401886 378.179962,365.680908 385.747559,368.077362 
	C389.813660,369.365051 393.661774,371.340973 397.608246,373.006317 
z"/>
<path fill="#EF5050" opacity="1.000000" stroke="none" 
	d="
M125.929977,468.025360 
	C129.695801,478.630615 137.816818,483.591248 148.678436,485.597412 
	C133.600296,485.882019 118.242920,485.930969 102.418373,485.906616 
	C98.585541,485.209015 95.191574,484.707642 91.858788,483.940491 
	C69.757660,478.853149 52.003201,467.170166 41.239258,447.095795 
	C25.493267,417.730164 34.400658,382.787109 62.202263,362.375336 
	C63.787296,362.371735 64.842285,362.684509 66.209038,363.089691 
	C64.189590,365.422516 61.977364,367.172577 60.874043,369.457977 
	C59.517464,372.267944 57.609383,376.267609 58.671490,378.378601 
	C59.727482,380.477478 64.196945,381.905945 67.123955,381.831665 
	C78.622147,381.539795 88.728104,376.736115 97.955841,370.256775 
	C100.970787,368.139801 102.740234,368.308746 105.659752,370.332489 
	C115.069855,376.855499 125.294624,381.766357 137.016342,381.832062 
	C139.772903,381.847504 143.909775,380.331879 144.919983,378.288696 
	C145.928253,376.249359 144.274368,372.424255 142.929489,369.826202 
	C141.643585,367.342010 139.253662,365.429291 137.026474,362.898987 
	C145.016968,361.018188 152.806870,360.114594 158.221161,353.868134 
	C181.609070,364.061951 196.695648,381.102417 201.513458,407.115295 
	C196.580399,409.701843 191.771881,411.682587 186.572388,413.733521 
	C181.734650,415.497559 177.287903,417.191345 172.468994,418.919312 
	C161.112442,423.134369 150.013260,427.040588 139.174728,431.570496 
	C127.453697,436.469238 118.401932,453.630249 125.929977,468.025360 
z"/>
<path fill="#FFC403" opacity="1.000000" stroke="none" 
	d="
M363.512329,485.895844 
	C361.167938,475.464203 359.336212,465.089233 357.369141,454.739960 
	C356.315582,449.197052 358.251923,445.563019 363.131653,444.462036 
	C367.757477,443.418396 370.983887,446.128357 372.038116,451.950714 
	C374.032166,462.963074 376.022949,473.976013 378.009766,485.411346 
	C373.325836,485.877045 368.647217,485.920105 363.512329,485.895844 
z"/>
<path fill="#FFC403" opacity="1.000000" stroke="none" 
	d="
M243.502869,485.897766 
	C241.537247,477.242249 240.007248,468.658142 238.538513,460.063507 
	C238.234436,458.284058 238.070221,456.469330 237.994446,454.664459 
	C237.816833,450.434784 239.586060,447.608276 244.008987,447.022217 
	C248.313889,446.451813 251.635544,448.750061 252.576599,453.390015 
	C254.211517,461.451111 255.559799,469.571014 256.977692,477.675079 
	C257.402191,480.101318 257.658539,482.556976 257.984741,485.415771 
	C253.305099,485.876709 248.632660,485.921051 243.502869,485.897766 
z"/>
<path fill="#FFC403" opacity="1.000000" stroke="none" 
	d="
M321.484680,485.898499 
	C319.392822,477.777161 317.657501,469.741394 316.178741,461.658722 
	C315.586884,458.423492 319.115112,453.962830 322.682312,453.302124 
	C326.797455,452.539948 329.636475,454.823334 330.589264,458.453247 
	C332.381226,465.280334 333.564545,472.268036 334.970062,479.195190 
	C335.361664,481.125183 335.644958,483.077148 335.966309,485.424438 
	C331.284485,485.875000 326.614319,485.920135 321.484680,485.898499 
z"/>
<path fill="#FFFFFF" opacity="1.000000" stroke="none" 
	d="
M453.320679,342.872742 
	C453.207031,342.413361 453.418365,341.858368 453.921021,341.195557 
	C454.023438,341.650848 453.834564,342.213989 453.320679,342.872742 
z"/>
<path fill="#388C0F" opacity="1.000000" stroke="none" 
	d="
M158.297180,353.482086 
	C152.806870,360.114594 145.016968,361.018188 137.026474,362.898987 
	C139.253662,365.429291 141.643585,367.342010 142.929489,369.826202 
	C144.274368,372.424255 145.928253,376.249359 144.919983,378.288696 
	C143.909775,380.331879 139.772903,381.847504 137.016342,381.832062 
	C125.294624,381.766357 115.069855,376.855499 105.659752,370.332489 
	C102.740234,368.308746 100.970787,368.139801 97.955841,370.256775 
	C88.728104,376.736115 78.622147,381.539795 67.123955,381.831665 
	C64.196945,381.905945 59.727482,380.477478 58.671490,378.378601 
	C57.609383,376.267609 59.517464,372.267944 60.874043,369.457977 
	C61.977364,367.172577 64.189590,365.422516 66.209038,363.089691 
	C64.842285,362.684509 63.787296,362.371735 62.374008,362.092896 
	C56.583817,359.492249 51.151924,356.857635 45.445213,354.028931 
	C43.673428,348.244965 47.101337,345.521606 51.353493,343.353424 
	C52.974010,342.527069 54.712547,341.932190 57.106037,341.053528 
	C69.140388,337.790802 80.546562,338.283569 92.129730,340.334686 
	C92.806564,340.637726 93.336327,340.711914 94.245964,340.905701 
	C99.531868,343.537567 104.396080,343.578857 109.592651,340.755157 
	C114.673149,339.991699 119.373207,339.251617 124.073265,338.511536 
	C133.489059,338.733215 142.961029,338.822449 151.645020,343.147095 
	C155.623962,345.128601 159.870529,347.260437 158.297180,353.482086 
z"/>
<path fill="#EE5150" opacity="1.000000" stroke="none" 
	d="
M205.785919,255.900543 
	C205.803482,255.736008 205.839493,255.571091 205.836014,255.407013 
	C205.575180,243.091583 205.574921,243.095505 218.350525,243.090530 
	C232.580582,243.085007 246.810623,243.071426 261.974121,243.033783 
	C284.614655,242.987503 306.321777,242.968842 328.482971,243.006378 
	C330.929901,243.072998 332.922760,243.081131 334.915619,243.094193 
	C341.891388,243.139908 343.256470,244.694794 343.118011,251.671097 
	C342.838104,265.775696 337.573486,278.118774 330.010254,289.689941 
	C323.282074,289.739441 316.553864,289.788940 309.434204,289.380035 
	C310.859406,285.472626 309.903473,282.505219 307.382446,279.878723 
	C305.201569,277.606567 302.987457,275.361816 300.701782,273.195923 
	C297.674927,270.327728 292.645416,270.174530 289.940613,272.770874 
	C287.340363,275.266846 287.184662,279.996704 289.844147,283.215454 
	C291.736481,285.505737 293.937866,287.540619 296.001373,289.689453 
	C291.624908,289.746246 287.248413,289.803009 282.420105,289.361755 
	C281.983887,287.874359 282.033997,286.884186 282.009308,285.895874 
	C281.872375,280.410248 279.701843,278.034271 274.776489,277.948822 
	C270.408417,277.873047 267.340759,280.924011 267.036682,285.725098 
	C266.953522,287.037964 267.055176,288.362579 267.072021,289.681793 
	C262.358337,289.743042 257.644623,289.804260 252.640442,289.517151 
	C254.346893,287.169098 257.026917,285.489502 258.154846,283.082550 
	C259.361023,280.508575 260.239197,276.688751 259.139404,274.458923 
	C258.196198,272.546600 254.189056,271.057953 251.659790,271.226471 
	C244.992737,271.670654 237.593781,283.098694 239.115784,289.632599 
	C232.686600,289.704224 226.257401,289.775818 219.212280,289.485596 
	C211.535355,279.125458 207.177460,268.084900 205.785919,255.900543 
M303.258179,267.293030 
	C308.687195,271.597626 314.946167,270.397095 320.858246,269.342224 
	C324.871552,268.626190 326.654938,265.211578 325.992737,260.960846 
	C325.349976,256.835114 322.778381,255.017044 318.749390,254.999054 
	C315.766998,254.985748 312.783264,254.937042 309.802338,255.003571 
	C302.524872,255.166000 299.643127,260.020569 303.258179,267.293030 
M226.175171,268.628754 
	C231.214371,268.994751 236.324814,270.038177 241.270813,269.518005 
	C245.422058,269.081421 247.666183,265.687775 247.015305,261.111176 
	C246.387329,256.695618 243.631851,254.953033 239.413055,254.989349 
	C236.597198,255.013580 233.780685,255.016418 230.964935,254.985611 
	C227.404099,254.946671 224.492493,255.878250 222.965454,259.532776 
	C221.436752,263.191284 222.719757,265.892700 226.175171,268.628754 
z"/>
<path fill="#388C0F" opacity="1.000000" stroke="none" 
	d="
M330.475037,289.772217 
	C337.573486,278.118774 342.838104,265.775696 343.118011,251.671097 
	C343.256470,244.694794 341.891388,243.139908 334.915619,243.094193 
	C332.922760,243.081131 330.929901,243.072998 328.469299,242.589478 
	C327.679840,239.360184 327.358185,236.604019 327.036499,233.847839 
	C328.716888,233.208527 330.873138,233.025940 331.998199,231.853653 
	C338.011292,225.588104 345.200836,222.253082 354.268677,222.074310 
	C365.301514,223.574982 373.837097,228.216736 378.695221,238.285522 
	C379.197113,239.325714 379.911926,240.416290 379.948364,241.502914 
	C380.170471,248.128113 383.189148,252.012253 390.048950,252.598297 
	C391.135193,252.691101 392.159302,253.510620 393.577515,254.051315 
	C400.294495,258.823212 404.839874,264.803650 407.005432,273.301483 
	C406.394592,279.280182 405.643463,284.507324 404.892334,289.734497 
	C380.241486,289.774506 355.590637,289.814514 330.475037,289.772217 
z"/>
<path fill="#DF861C" opacity="1.000000" stroke="none" 
	d="
M186.963348,413.663300 
	C191.771881,411.682587 196.580399,409.701843 201.632950,407.492859 
	C219.419434,400.719025 236.971085,394.197906 254.500717,387.618134 
	C264.432892,383.890106 274.328918,380.065887 284.620117,376.623077 
	C286.681061,384.308105 288.363098,391.654999 290.045166,399.001923 
	C258.774628,410.939087 227.506165,422.881805 196.226562,434.795227 
	C194.844986,435.321442 193.361572,435.580261 191.498627,435.541992 
	C189.702225,427.967957 188.332794,420.815643 186.963348,413.663300 
z"/>
<path fill="#89C947" opacity="1.000000" stroke="none" 
	d="
M205.504913,255.752014 
	C207.177460,268.084900 211.535355,279.125458 218.743744,289.403687 
	C214.566605,289.741974 210.242065,289.800293 205.284546,289.532043 
	C198.062408,282.648346 191.634933,275.916992 184.823120,269.600037 
	C180.776016,265.846924 176.707397,266.288422 173.517822,269.977509 
	C170.895447,273.010559 171.461685,276.802856 174.903717,280.525085 
	C177.683151,283.530792 180.310822,286.676849 183.005829,289.760620 
	C173.020309,289.794525 163.034775,289.828400 152.504623,289.443542 
	C150.011017,283.206451 148.062042,277.388153 146.113068,271.569824 
	C146.428207,265.939758 146.322662,260.246796 147.152924,254.693726 
	C148.546463,245.373260 150.909531,243.538925 160.165253,242.031418 
	C177.433899,239.218811 192.319733,244.057175 205.504913,255.752014 
z"/>
<path fill="#DF861C" opacity="1.000000" stroke="none" 
	d="
M397.627991,372.628174 
	C393.661774,371.340973 389.813660,369.365051 385.747559,368.077362 
	C378.179962,365.680908 371.080841,368.401886 364.135651,370.982910 
	C344.617889,378.236450 325.163330,385.660065 305.030579,392.775452 
	C302.575775,385.359314 300.774323,378.184326 298.972839,371.009277 
	C319.705292,363.071472 340.233124,354.531921 361.235779,347.388428 
	C377.700714,341.788300 393.144440,351.732025 396.963440,368.834412 
	C397.216461,369.967377 397.420807,371.111206 397.627991,372.628174 
z"/>
<path fill="#CED1D4" opacity="1.000000" stroke="none" 
	d="
M124.062378,338.117920 
	C119.373207,339.251617 114.673149,339.991699 109.566322,340.304871 
	C109.140892,336.410004 109.162186,332.941254 109.094460,329.474274 
	C108.985542,323.898895 106.810448,321.208252 102.274612,320.927490 
	C97.650856,320.641266 94.570213,323.528351 94.166611,328.911255 
	C93.870918,332.854889 93.952599,336.826782 93.866089,340.786072 
	C93.336327,340.711914 92.806564,340.637726 92.148170,339.901489 
	C90.442551,327.278839 88.634850,315.342743 87.364136,303.349731 
	C86.408089,294.326569 85.464821,288.957947 98.036766,289.966949 
	C99.193047,290.059692 100.366783,289.935059 101.967300,289.894257 
	C108.940994,289.949097 115.479805,290.021027 122.018608,290.092957 
	C118.390945,293.570618 119.316811,297.698364 119.888588,302.049500 
	C121.170662,311.806091 121.962585,321.626526 123.009956,331.414978 
	C123.236374,333.531006 123.698128,335.621857 124.062378,338.117920 
z"/>
<path fill="#FDC505" opacity="1.000000" stroke="none" 
	d="
M122.480751,290.018524 
	C115.479805,290.021027 108.940994,289.949097 101.881020,289.462860 
	C100.546799,280.652008 103.259056,273.229248 107.651810,266.270721 
	C112.872818,262.528870 118.093819,258.787018 123.671089,254.948929 
	C129.109772,262.949585 135.559082,269.278381 145.718994,271.443420 
	C148.062042,277.388153 150.011017,283.206451 152.050522,289.371704 
	C142.408340,289.793762 132.675613,289.868927 122.480751,290.018524 
z"/>
<path fill="#FEC403" opacity="1.000000" stroke="none" 
	d="
M298.593384,370.997559 
	C300.774323,378.184326 302.575775,385.359314 304.641693,392.799500 
	C305.258850,395.004486 305.735901,396.931366 305.938446,398.886719 
	C306.365479,403.009186 305.559753,406.596710 300.921021,407.862335 
	C296.547546,409.055481 292.875702,406.911682 291.256439,402.347260 
	C290.929626,401.426025 290.791016,400.437988 290.305420,399.241333 
	C288.363098,391.654999 286.681061,384.308105 284.974762,376.575012 
	C289.371643,374.454468 293.792786,372.720154 298.593384,370.997559 
z"/>
<path fill="#D4E863" opacity="1.000000" stroke="none" 
	d="
M183.466415,289.832703 
	C180.310822,286.676849 177.683151,283.530792 174.903717,280.525085 
	C171.461685,276.802856 170.895447,273.010559 173.517822,269.977509 
	C176.707397,266.288422 180.776016,265.846924 184.823120,269.600037 
	C191.634933,275.916992 198.062408,282.648346 204.824615,289.466431 
	C197.974106,289.786560 190.950546,289.845673 183.466415,289.832703 
z"/>
<path fill="#D2E861" opacity="1.000000" stroke="none" 
	d="
M405.344788,289.804016 
	C405.643463,284.507324 406.394592,279.280182 407.227966,273.613342 
	C410.269257,270.578156 413.220123,267.973236 416.189362,265.389374 
	C420.345886,261.772217 425.573578,261.949493 428.441162,265.749695 
	C430.646515,268.672241 430.728394,271.665405 428.308655,274.352173 
	C423.766815,279.395203 419.031982,284.264404 414.221008,289.479126 
	C411.308807,289.792725 408.553009,289.833130 405.344788,289.804016 
z"/>
<path fill="#C1282E" opacity="1.000000" stroke="none" 
	d="
M296.458252,289.770477 
	C293.937866,287.540619 291.736481,285.505737 289.844147,283.215454 
	C287.184662,279.996704 287.340363,275.266846 289.940613,272.770874 
	C292.645416,270.174530 297.674927,270.327728 300.701782,273.195923 
	C302.987457,275.361816 305.201569,277.606567 307.382446,279.878723 
	C309.903473,282.505219 310.859406,285.472626 308.968933,289.281158 
	C304.901764,289.710938 300.908447,289.781219 296.458252,289.770477 
z"/>
<path fill="#C1292F" opacity="1.000000" stroke="none" 
	d="
M239.561050,289.726807 
	C237.593781,283.098694 244.992737,271.670654 251.659790,271.226471 
	C254.189056,271.057953 258.196198,272.546600 259.139404,274.458923 
	C260.239197,276.688751 259.361023,280.508575 258.154846,283.082550 
	C257.026917,285.489502 254.346893,287.169098 252.181396,289.436462 
	C248.010651,289.743073 244.008484,289.782043 239.561050,289.726807 
z"/>
<path fill="#C1282E" opacity="1.000000" stroke="none" 
	d="
M267.526398,289.764954 
	C267.055176,288.362579 266.953522,287.037964 267.036682,285.725098 
	C267.340759,280.924011 270.408417,277.873047 274.776489,277.948822 
	C279.701843,278.034271 281.872375,280.410248 282.009308,285.895874 
	C282.033997,286.884186 281.983887,287.874359 281.958374,289.282410 
	C277.292572,289.750153 272.636658,289.799103 267.526398,289.764954 
z"/>
<path fill="#F6931E" opacity="1.000000" stroke="none" 
	d="
M326.865295,233.538620 
	C327.358185,236.604019 327.679840,239.360184 328.015198,242.533264 
	C306.321777,242.968842 284.614655,242.987503 262.437988,242.977783 
	C261.939606,233.260269 265.619812,225.071899 272.519501,217.564148 
	C275.436523,215.452118 277.896820,213.777344 280.357147,212.102570 
	C283.982971,211.084625 287.608795,210.066696 291.623779,209.016174 
	C296.981598,209.657104 301.950195,210.330627 307.549255,211.274628 
	C312.044495,214.347809 315.909271,217.150513 319.774048,219.953217 
	C322.080750,224.378601 324.387421,228.803986 326.865295,233.538620 
z"/>
<path fill="#87C846" opacity="1.000000" stroke="none" 
	d="
M186.025635,191.551117 
	C189.531418,193.546860 192.961731,195.014465 195.698273,197.309372 
	C199.738220,200.697372 199.996964,204.895279 197.083359,208.264847 
	C194.323730,211.456345 190.519989,211.641663 186.362885,208.770187 
	C185.542313,208.203400 184.812088,207.487015 183.947830,207.005325 
	C178.779129,204.124619 172.781937,206.534470 171.118851,212.148529 
	C170.694916,213.579575 170.511261,215.089645 170.006744,216.487427 
	C168.712540,220.073059 165.921783,221.841660 162.282455,221.424210 
	C158.321594,220.969894 156.216400,218.357330 155.932678,214.293076 
	C155.174149,203.426849 164.794312,191.941177 175.696716,191.056732 
	C178.980408,190.790344 182.323837,191.260330 186.025635,191.551117 
z"/>
<path fill="#87C846" opacity="1.000000" stroke="none" 
	d="
M220.159637,225.622162 
	C215.925430,224.443878 213.577316,226.388123 211.697998,229.521530 
	C209.016388,233.992523 204.760849,235.440552 200.862198,233.365707 
	C197.107147,231.367310 196.042389,226.683502 198.575851,222.086502 
	C202.640793,214.710678 208.989517,210.513519 217.392715,210.128830 
	C225.949371,209.737137 232.316422,214.011383 236.847351,220.968033 
	C239.735352,225.402222 238.930054,229.943298 235.340210,232.345642 
	C231.286606,235.058350 227.868011,234.119629 224.312073,229.521667 
	C223.231964,228.125061 221.780579,227.015594 220.159637,225.622162 
z"/>
<path fill="#C02B2E" opacity="1.000000" stroke="none" 
	d="
M280.260162,211.737976 
	C277.896820,213.777344 275.436523,215.452118 272.664124,217.261749 
	C269.010132,212.170731 265.668182,206.944839 262.171539,201.442429 
	C269.844574,197.789871 276.143036,204.180099 280.260162,211.737976 
z"/>
<path fill="#A2DFF8" opacity="1.000000" stroke="none" 
	d="
M107.135239,266.227112 
	C103.259056,273.229248 100.546799,280.652008 101.446129,289.479950 
	C100.366783,289.935059 99.193047,290.059692 98.036766,289.966949 
	C85.464821,288.957947 86.408089,294.326569 87.364136,303.349731 
	C88.634850,315.342743 90.442551,327.278839 92.001099,339.672607 
	C80.546562,338.283569 69.140388,337.790802 57.418915,340.871277 
	C57.014069,316.340118 57.005081,291.812958 56.968800,266.847046 
	C73.500557,266.333374 90.059608,266.258423 107.135239,266.227112 
z"/>
<path fill="#D4E861" opacity="1.000000" stroke="none" 
	d="
M319.962006,219.667648 
	C315.909271,217.150513 312.044495,214.347809 307.934235,211.278702 
	C309.813416,208.507751 311.805176,205.873993 314.089203,203.524368 
	C319.645233,197.808807 325.263397,192.148849 331.000702,186.616013 
	C334.625458,183.120468 339.562683,183.065643 342.586731,186.165436 
	C345.562897,189.216141 345.165863,193.269806 341.492218,197.108597 
	C334.382812,204.537582 327.264557,211.958069 319.962006,219.667648 
z"/>
<path fill="#C1282E" opacity="1.000000" stroke="none" 
	d="
M293.684082,185.287857 
	C295.286072,191.239838 292.801178,195.292526 287.179077,195.875092 
	C283.726746,196.232864 280.182556,196.192123 276.722961,195.867828 
	C272.409058,195.463440 269.084045,191.612869 269.318024,187.868515 
	C269.564423,183.925705 272.940704,181.112106 277.673950,181.005920 
	C280.664612,180.938843 283.777527,180.484955 286.614044,181.149826 
	C289.074860,181.726654 291.223969,183.633102 293.684082,185.287857 
z"/>
<path fill="#C1282E" opacity="1.000000" stroke="none" 
	d="
M269.236755,163.592575 
	C271.983093,160.645752 274.423615,157.902405 277.117645,155.435898 
	C280.783417,152.079651 284.578491,152.090637 287.710602,155.177856 
	C290.891998,158.313675 290.958038,162.069397 287.684967,165.772705 
	C285.705109,168.012817 283.513275,170.070404 281.358978,172.150253 
	C278.484192,174.925659 275.175629,176.323639 271.518860,173.886139 
	C267.829651,171.427078 266.879486,167.984253 269.236755,163.592575 
z"/>
<path fill="#DF851B" opacity="1.000000" stroke="none" 
	d="
M126.210175,467.838989 
	C118.401932,453.630249 127.453697,436.469238 139.174728,431.570496 
	C150.013260,427.040588 161.112442,423.134369 172.517334,419.344574 
	C174.624207,427.155060 176.310547,434.574493 177.996887,441.993896 
	C164.535477,447.057617 150.881271,451.680267 137.720932,457.432770 
	C133.327728,459.353058 130.197800,464.163422 126.210175,467.838989 
z"/>
<path fill="#FEC303" opacity="1.000000" stroke="none" 
	d="
M178.315033,442.149445 
	C176.310547,434.574493 174.624207,427.155060 172.889496,419.310425 
	C177.287903,417.191345 181.734650,415.497559 186.572372,413.733521 
	C188.332794,420.815643 189.702225,427.967957 191.121490,435.539703 
	C190.606598,444.450287 185.852402,446.856506 178.315033,442.149445 
z"/>
<path fill="#8AC94A" opacity="1.000000" stroke="none" 
	d="
M94.245964,340.905731 
	C93.952599,336.826782 93.870918,332.854889 94.166611,328.911255 
	C94.570213,323.528351 97.650856,320.641266 102.274612,320.927490 
	C106.810448,321.208252 108.985542,323.898895 109.094460,329.474274 
	C109.162186,332.941254 109.140892,336.410004 109.185883,340.328247 
	C104.396080,343.578857 99.531868,343.537567 94.245964,340.905731 
z"/>
<path fill="#C1282E" opacity="1.000000" stroke="none" 
	d="
M303.055237,266.967346 
	C299.643127,260.020569 302.524872,255.166000 309.802338,255.003571 
	C312.783264,254.937042 315.766998,254.985748 318.749390,254.999054 
	C322.778381,255.017044 325.349976,256.835114 325.992737,260.960846 
	C326.654938,265.211578 324.871552,268.626190 320.858246,269.342224 
	C314.946167,270.397095 308.687195,271.597626 303.055237,266.967346 
z"/>
<path fill="#C1282E" opacity="1.000000" stroke="none" 
	d="
M225.834213,268.428986 
	C222.719757,265.892700 221.436752,263.191284 222.965454,259.532776 
	C224.492493,255.878250 227.404099,254.946671 230.964935,254.985611 
	C233.780685,255.016418 236.597198,255.013580 239.413055,254.989349 
	C243.631851,254.953033 246.387329,256.695618 247.015305,261.111176 
	C247.666183,265.687775 245.422058,269.081421 241.270813,269.518005 
	C236.324814,270.038177 231.214371,268.994751 225.834213,268.428986 
z"/>
</svg>