<svg version="1.1" id="Layer_1" xmlns="http://www.w3.org/2000/svg" xmlns:xlink="http://www.w3.org/1999/xlink" x="0px" y="0px"
	 width="100%" viewBox="0 0 512 512" enable-background="new 0 0 512 512" xml:space="preserve">
<path fill="#0000000" opacity="1.000000" stroke="none" 
	d="
M1.000002,374.000000 
	C1.000000,296.312439 1.000000,218.624878 1.363951,140.655701 
	C3.581891,148.793259 4.601085,157.507660 7.453712,165.573654 
	C14.663472,185.959717 26.469398,203.323715 42.967842,217.649078 
	C57.344231,230.131882 73.620300,238.768250 91.768349,243.736801 
	C100.906326,246.238602 110.337418,248.545181 120.429794,247.044403 
	C122.048950,247.503799 123.334953,248.077545 124.547264,247.950119 
	C133.827927,246.974640 143.342575,246.856827 152.320358,244.614288 
	C184.445755,236.589798 209.529861,218.505081 227.896683,190.713928 
	C246.417084,162.690460 249.738663,131.640274 244.493851,99.974777 
	C239.706070,71.068657 224.356781,47.044888 201.087662,28.663397 
	C180.261688,12.211883 156.816544,2.571987 129.997879,1.963400 
	C128.991821,1.940570 127.998993,1.334354 127.000000,0.999999 
	C213.020889,1.000000 299.041779,1.000000 385.527161,1.220410 
	C385.991608,1.440821 385.925598,1.876754 385.469299,1.912585 
	C375.631165,3.300336 366.067566,3.911453 356.905304,6.158727 
	C337.954163,10.806959 321.392517,20.376282 307.049194,33.534721 
	C293.816650,45.674126 283.500519,59.923653 276.606415,76.680389 
	C271.062836,90.154472 267.495605,104.055191 267.163300,118.538551 
	C266.952789,127.714546 267.862122,136.989304 269.087524,146.109833 
	C271.573669,164.614090 278.511200,181.688263 290.072449,196.166412 
	C298.427429,206.629318 308.076843,216.457825 318.619202,224.685379 
	C336.402008,238.563614 357.165833,245.901321 380.142456,247.393967 
	C387.640411,247.504349 394.895752,247.288818 402.147736,246.992081 
	C415.216888,246.457352 427.651093,243.012222 439.464050,237.715363 
	C459.088257,228.916031 475.903717,216.363281 488.688812,198.797455 
	C497.293243,186.975525 504.508606,174.472427 508.046997,160.122055 
	C509.700684,153.415375 511.349152,146.707382 513.000000,140.000000 
	C513.000000,218.020889 513.000000,296.041779 512.652344,374.365356 
	C511.870514,373.108917 511.223450,371.574951 511.035706,369.986694 
	C509.419250,356.313110 504.978973,343.438416 498.863770,331.286713 
	C489.374847,312.430817 474.523895,298.139465 457.445740,286.165527 
	C448.080780,279.599487 437.595764,275.171234 426.517120,272.200439 
	C413.282074,268.651367 399.928406,266.138123 385.655945,267.099426 
	C377.310333,267.779388 369.197998,267.547913 361.604614,269.420624 
	C329.234100,277.403809 303.831482,295.561310 285.854553,323.726532 
	C273.495178,343.090485 267.138275,364.394440 267.106445,387.374390 
	C267.095551,395.260345 267.849365,403.221100 269.065308,411.021210 
	C272.721619,434.475983 283.085022,454.813812 298.917389,472.384003 
	C310.836853,485.611816 325.096130,495.782166 341.462524,502.630341 
	C355.027100,508.306183 369.088196,512.573547 384.426147,511.905670 
	C385.149994,512.309875 385.574982,512.654907 386.000000,513.000000 
	C300.312439,513.000000 214.624878,513.000000 128.681992,512.628601 
	C132.856232,511.839844 137.295364,511.504883 141.713776,510.991486 
	C165.792755,508.193634 186.704254,497.967926 204.823929,482.399384 
	C219.729370,469.592590 230.780899,453.738800 238.334076,435.367188 
	C247.786911,412.375031 248.313324,388.432922 244.460556,364.748871 
	C239.806778,336.140717 224.613815,312.434021 202.313919,294.178894 
	C178.632324,274.792725 151.241699,264.760498 119.619080,267.100372 
	C102.486267,266.290985 86.928406,270.574463 71.982697,277.521179 
	C54.999790,285.414764 40.279350,296.328033 28.554060,310.999603 
	C18.331057,323.791412 10.018313,337.669525 5.951558,353.743988 
	C4.246805,360.482269 2.647340,367.247192 1.000002,374.000000 
z"/>
<path fill="#FFCF4A" opacity="1.000000" stroke="none" 
	d="
M1.000002,374.468658 
	C2.647340,367.247192 4.246805,360.482269 5.951558,353.743988 
	C10.018313,337.669525 18.331057,323.791412 28.554060,310.999603 
	C40.279350,296.328033 54.999790,285.414764 71.982697,277.521179 
	C86.928406,270.574463 102.486267,266.290985 119.894844,267.359192 
	C121.954231,267.818420 123.289688,267.857269 124.583923,268.108459 
	C154.487991,273.913116 179.744339,287.690247 199.119003,311.569427 
	C221.042007,338.589447 230.090729,369.329529 226.075607,403.939453 
	C223.199112,428.734680 213.543015,450.369202 197.306152,469.387146 
	C182.650131,486.553467 164.626999,498.460602 143.460297,505.566284 
	C134.911057,508.436249 125.854134,509.793854 116.574478,511.912781 
	C109.151520,511.031281 102.082657,510.534393 95.230461,509.042389 
	C66.616730,502.812073 43.911846,487.208069 25.935389,464.397491 
	C16.279140,452.144531 9.650208,438.305054 5.274209,423.406097 
	C3.502144,417.372772 2.404524,411.141296 0.999999,405.000000 
	C1.000000,394.979095 1.000000,384.958221 1.000002,374.468658 
M92.730049,398.044525 
	C89.105484,399.227905 85.410080,400.233490 81.875252,401.642059 
	C77.941879,403.209412 76.185600,406.561981 77.225838,410.500946 
	C78.170746,414.078979 80.883644,416.492920 85.016304,415.983734 
	C87.455513,415.683197 89.819519,414.809418 92.254005,414.426788 
	C101.852715,412.918427 111.507164,410.128052 121.062904,410.414673 
	C131.975281,410.742004 142.822739,413.742004 153.662109,415.774261 
	C158.856796,416.748199 163.644516,414.858521 164.853180,410.884552 
	C166.104813,406.769226 163.396332,402.702484 158.133347,400.902802 
	C136.894882,393.640289 115.349251,393.085022 92.730049,398.044525 
M86.995110,372.288269 
	C87.551025,368.364838 85.436249,365.521423 82.210533,364.489410 
	C80.092911,363.811981 76.452721,364.379913 75.054520,365.861938 
	C73.328201,367.691833 72.063362,371.397766 72.741806,373.646667 
	C73.407738,375.854034 76.525986,378.174164 78.985405,378.797180 
	C83.145279,379.850983 85.666161,376.933899 86.995110,372.288269 
M169.245163,368.510010 
	C165.901505,363.659637 161.659103,362.364746 158.219208,365.327515 
	C155.172638,367.951477 153.952469,371.144379 155.994217,375.035675 
	C157.906097,378.679504 161.181580,380.046356 164.725525,378.750549 
	C168.846222,377.243866 170.804001,373.842743 169.245163,368.510010 
z"/>
<path fill="#25D8A1" opacity="1.000000" stroke="none" 
	d="
M120.062508,246.833984 
	C110.337418,248.545181 100.906326,246.238602 91.768349,243.736801 
	C73.620300,238.768250 57.344231,230.131882 42.967842,217.649078 
	C26.469398,203.323715 14.663472,185.959717 7.453712,165.573654 
	C4.601085,157.507660 3.581891,148.793259 1.363951,140.187042 
	C1.000000,129.979111 1.000000,119.958214 1.363152,109.282845 
	C1.836033,107.143394 1.794650,105.628922 2.077869,104.177803 
	C7.409739,76.859230 19.384058,53.246910 40.144066,34.210503 
	C51.022812,24.234968 62.987560,16.273056 76.628952,10.747721 
	C89.589233,5.498263 102.859581,1.729665 117.324326,2.413770 
	C123.155388,3.641129 128.781296,4.253666 134.203354,5.654919 
	C159.502502,12.193114 180.717422,25.222702 197.836380,45.185856 
	C215.218231,65.455582 224.591827,88.970459 226.834900,115.232338 
	C228.374039,133.252625 225.774734,150.952820 219.173767,167.986588 
	C206.431046,200.869141 183.773544,224.258575 151.401932,237.811951 
	C141.442200,241.981873 130.535568,243.890106 120.062508,246.833984 
M81.578972,130.716583 
	C80.068184,133.259644 77.052933,136.064926 77.438538,138.277481 
	C77.890930,140.873184 80.873268,144.080688 83.496254,145.073822 
	C99.999680,151.322479 117.111526,153.926422 134.663162,150.866348 
	C142.955734,149.420578 151.151520,147.265854 159.257553,144.962234 
	C164.044815,143.601730 166.025101,139.349426 164.619598,135.290176 
	C163.203049,131.199005 159.115250,129.174042 154.497131,130.341171 
	C153.212143,130.665924 151.982056,131.202042 150.713898,131.600143 
	C133.718460,136.935364 116.550804,137.534897 99.175652,133.626404 
	C93.588982,132.369705 87.926849,131.448486 81.578972,130.716583 
M155.039398,105.821899 
	C154.806427,110.422089 156.484650,113.550438 161.473969,114.027016 
	C166.157776,114.474419 169.227982,112.382904 169.918045,108.357178 
	C170.596085,104.401588 168.341034,100.581490 164.611572,99.367897 
	C160.763992,98.115868 157.526031,100.054909 155.039398,105.821899 
M86.954674,108.206055 
	C86.725868,102.475319 84.301659,99.170715 79.933067,99.070343 
	C75.671471,98.972435 72.992882,101.353386 72.175781,105.399086 
	C71.389046,109.294434 73.061348,112.341293 76.800812,113.745941 
	C81.054932,115.343910 84.478149,113.575302 86.954674,108.206055 
z"/>
<path fill="#F44E4E" opacity="1.000000" stroke="none" 
	d="
M513.000000,139.531342 
	C511.349152,146.707382 509.700684,153.415375 508.046997,160.122055 
	C504.508606,174.472427 497.293243,186.975525 488.688812,198.797455 
	C475.903717,216.363281 459.088257,228.916031 439.464050,237.715363 
	C427.651093,243.012222 415.216888,246.457352 402.147736,246.992081 
	C394.895752,247.288818 387.640411,247.504349 380.574036,247.383392 
	C397.695892,245.124283 413.895813,240.952576 428.942719,232.587219 
	C458.312592,216.259018 478.561798,192.323746 488.153839,160.161713 
	C491.518707,148.879410 492.662720,136.822815 493.758942,125.021149 
	C494.343445,118.728439 492.797394,112.207954 491.976318,105.820694 
	C490.181488,91.858406 485.493958,78.796265 478.901123,66.443283 
	C470.742279,51.156132 459.618774,38.219631 445.984436,27.618151 
	C435.469055,19.441858 423.998901,12.724701 411.099396,8.892543 
	C402.750244,6.412193 394.319672,4.205870 385.925598,1.876754 
	C385.925598,1.876754 385.991608,1.440821 385.995789,1.220410 
	C388.370575,1.000000 390.741119,1.000000 393.757935,1.381172 
	C405.036011,3.408475 415.959351,4.017184 426.242126,6.905896 
	C451.549133,14.015301 471.901123,28.890606 488.034912,49.574982 
	C497.557648,61.783653 504.286896,75.439934 508.573761,90.268013 
	C510.353485,96.424034 511.542389,102.750854 513.000000,109.000000 
	C513.000000,119.020897 513.000000,129.041794 513.000000,139.531342 
z"/>
<path fill="#0EB87F" opacity="1.000000" stroke="none" 
	d="
M120.429794,247.044403 
	C130.535568,243.890106 141.442200,241.981873 151.401932,237.811951 
	C183.773544,224.258575 206.431046,200.869141 219.173767,167.986588 
	C225.774734,150.952820 228.374039,133.252625 226.834900,115.232338 
	C224.591827,88.970459 215.218231,65.455582 197.836380,45.185856 
	C180.717422,25.222702 159.502502,12.193114 134.203354,5.654919 
	C128.781296,4.253666 123.155388,3.641129 117.672379,2.356233 
	C118.480911,1.698140 119.240456,1.349069 120.000000,0.999999 
	C122.041664,1.000000 124.083336,1.000000 126.562500,0.999999 
	C127.998993,1.334354 128.991821,1.940570 129.997879,1.963400 
	C156.816544,2.571987 180.261688,12.211883 201.087662,28.663397 
	C224.356781,47.044888 239.706070,71.068657 244.493851,99.974777 
	C249.738663,131.640274 246.417084,162.690460 227.896683,190.713928 
	C209.529861,218.505081 184.445755,236.589798 152.320358,244.614288 
	C143.342575,246.856827 133.827927,246.974640 124.547264,247.950119 
	C123.334953,248.077545 122.048950,247.503799 120.429794,247.044403 
z"/>
<path fill="#F9A830" opacity="1.000000" stroke="none" 
	d="
M117.028229,511.839661 
	C125.854134,509.793854 134.911057,508.436249 143.460297,505.566284 
	C164.626999,498.460602 182.650131,486.553467 197.306152,469.387146 
	C213.543015,450.369202 223.199112,428.734680 226.075607,403.939453 
	C230.090729,369.329529 221.042007,338.589447 199.119003,311.569427 
	C179.744339,287.690247 154.487991,273.913116 124.583923,268.108459 
	C123.289688,267.857269 121.954231,267.818420 120.362213,267.421814 
	C151.241699,264.760498 178.632324,274.792725 202.313919,294.178894 
	C224.613815,312.434021 239.806778,336.140717 244.460556,364.748871 
	C248.313324,388.432922 247.786911,412.375031 238.334076,435.367188 
	C230.780899,453.738800 219.729370,469.592590 204.823929,482.399384 
	C186.704254,497.967926 165.792755,508.193634 141.713776,510.991486 
	C137.295364,511.504883 132.856232,511.839844 128.213333,512.628601 
	C125.299988,513.000000 122.599968,513.000000 119.351128,512.700378 
	C118.210945,512.213745 117.619583,512.026672 117.028229,511.839661 
z"/>
<path fill="#3EA3C7" opacity="1.000000" stroke="none" 
	d="
M386.444153,513.000000 
	C385.574982,512.654907 385.149994,512.309875 384.696106,511.633179 
	C386.483459,511.147705 388.336121,511.173431 390.110260,510.812683 
	C411.729980,506.417145 431.575684,498.376282 448.766815,484.005524 
	C474.971619,462.099884 489.777222,434.158997 492.817963,400.441559 
	C495.065582,375.518890 490.594666,351.494507 477.822998,329.518829 
	C461.063995,300.682404 437.235992,280.725830 404.727692,271.835297 
	C398.562378,270.149170 392.329620,268.709473 386.127991,267.156067 
	C399.928406,266.138123 413.282074,268.651367 426.517120,272.200439 
	C437.595764,275.171234 448.080780,279.599487 457.445740,286.165527 
	C474.523895,298.139465 489.374847,312.430817 498.863770,331.286713 
	C504.978973,343.438416 509.419250,356.313110 511.035706,369.986694 
	C511.223450,371.574951 511.870514,373.108917 512.652344,374.834045 
	C513.000000,384.687561 513.000000,394.375122 512.633362,404.669067 
	C511.849304,406.128235 511.159241,406.949005 511.054657,407.838593 
	C508.931641,425.903412 502.622559,442.483368 492.698761,457.591309 
	C484.885834,469.485687 474.992371,479.476501 463.556671,488.108398 
	C447.058716,500.561401 428.622650,507.907196 408.339050,510.995178 
	C403.568207,511.721497 398.780151,512.334717 394.000000,513.000000 
	C391.629425,513.000000 389.258881,513.000000 386.444153,513.000000 
z"/>
<path fill="#FFFFFF" opacity="1.000000" stroke="none" 
	d="
M394.468658,513.000000 
	C398.780151,512.334717 403.568207,511.721497 408.339050,510.995178 
	C428.622650,507.907196 447.058716,500.561401 463.556671,488.108398 
	C474.992371,479.476501 484.885834,469.485687 492.698761,457.591309 
	C502.622559,442.483368 508.931641,425.903412 511.054657,407.838593 
	C511.159241,406.949005 511.849304,406.128235 512.633362,405.137695 
	C513.000000,440.930511 513.000000,476.860992 513.000000,513.000000 
	C473.646027,513.000000 434.291656,513.000000 394.468658,513.000000 
z"/>
<path fill="#FFFFFF" opacity="1.000000" stroke="none" 
	d="
M119.531342,0.999999 
	C119.240456,1.349069 118.480911,1.698140 117.373306,2.104748 
	C102.859581,1.729665 89.589233,5.498263 76.628952,10.747721 
	C62.987560,16.273056 51.022812,24.234968 40.144066,34.210503 
	C19.384058,53.246910 7.409739,76.859230 2.077869,104.177803 
	C1.794650,105.628922 1.836033,107.143394 1.363152,108.814186 
	C1.000000,73.069511 1.000000,37.139015 1.000000,1.000000 
	C40.353981,1.000000 79.708336,1.000000 119.531342,0.999999 
z"/>
<path fill="#FFFFFF" opacity="1.000000" stroke="none" 
	d="
M513.000000,108.531342 
	C511.542389,102.750854 510.353485,96.424034 508.573761,90.268013 
	C504.286896,75.439934 497.557648,61.783653 488.034912,49.574982 
	C471.901123,28.890606 451.549133,14.015301 426.242126,6.905896 
	C415.959351,4.017184 405.036011,3.408475 394.202087,1.381172 
	C433.590088,1.000000 473.180176,1.000000 513.000000,1.000000 
	C513.000000,36.687233 513.000000,72.374954 513.000000,108.531342 
z"/>
<path fill="#FFFFFF" opacity="1.000000" stroke="none" 
	d="
M116.574478,511.912781 
	C117.619583,512.026672 118.210945,512.213745 118.901154,512.700378 
	C79.742943,513.000000 40.485886,513.000000 1.000000,513.000000 
	C1.000000,477.312775 1.000000,441.625031 0.999999,405.468658 
	C2.404524,411.141296 3.502144,417.372772 5.274209,423.406097 
	C9.650208,438.305054 16.279140,452.144531 25.935389,464.397491 
	C43.911846,487.208069 66.616730,502.812073 95.230461,509.042389 
	C102.082657,510.534393 109.151520,511.031281 116.574478,511.912781 
z"/>
<path fill="#73D7FF" opacity="1.000000" stroke="none" 
	d="
M385.655945,267.099457 
	C392.329620,268.709473 398.562378,270.149170 404.727692,271.835297 
	C437.235992,280.725830 461.063995,300.682404 477.822998,329.518829 
	C490.594666,351.494507 495.065582,375.518890 492.817963,400.441559 
	C489.777222,434.158997 474.971619,462.099884 448.766815,484.005524 
	C431.575684,498.376282 411.729980,506.417145 390.110260,510.812683 
	C388.336121,511.173431 386.483459,511.147705 384.397308,511.574036 
	C369.088196,512.573547 355.027100,508.306183 341.462524,502.630341 
	C325.096130,495.782166 310.836853,485.611816 298.917389,472.384003 
	C283.085022,454.813812 272.721619,434.475983 269.065308,411.021210 
	C267.849365,403.221100 267.095551,395.260345 267.106445,387.374390 
	C267.138275,364.394440 273.495178,343.090485 285.854553,323.726532 
	C303.831482,295.561310 329.234100,277.403809 361.604614,269.420624 
	C369.197998,267.547913 377.310333,267.779388 385.655945,267.099457 
M417.407776,410.038940 
	C419.240631,410.037018 421.076691,410.104126 422.905762,410.019897 
	C427.920135,409.789001 430.953094,406.962677 431.015381,402.546722 
	C431.086456,397.508026 428.469482,394.834320 422.834106,394.817688 
	C399.007050,394.747345 375.179504,394.769958 351.352631,394.871796 
	C349.661530,394.878998 347.227905,395.278839 346.442566,396.404846 
	C344.866699,398.664398 342.961273,401.802246 343.432343,404.122742 
	C344.148529,407.650635 346.989838,410.113892 351.449524,410.086761 
	C373.110016,409.954926 394.771790,410.034363 417.407776,410.038940 
M342.345154,364.320038 
	C341.243988,365.533630 339.934174,366.617401 339.082733,367.986328 
	C336.947876,371.418732 338.577240,376.603607 342.244781,378.594940 
	C345.463409,380.342468 351.517212,378.212250 352.618317,374.598145 
	C354.895752,367.123016 349.858337,362.440369 342.345154,364.320038 
M424.741608,378.122009 
	C428.949829,380.231079 432.744232,379.282593 435.048340,375.475586 
	C436.890594,372.431671 437.001831,368.789398 433.793488,366.014801 
	C430.458984,363.131042 426.403564,363.110626 423.587006,365.944946 
	C419.936981,369.617950 420.097717,372.925842 424.741608,378.122009 
z"/>
<path fill="#FF5F5F" opacity="1.000000" stroke="none" 
	d="
M385.469299,1.912585 
	C394.319672,4.205870 402.750244,6.412193 411.099396,8.892543 
	C423.998901,12.724701 435.469055,19.441858 445.984436,27.618151 
	C459.618774,38.219631 470.742279,51.156132 478.901123,66.443283 
	C485.493958,78.796265 490.181488,91.858406 491.976318,105.820694 
	C492.797394,112.207954 494.343445,118.728439 493.758942,125.021149 
	C492.662720,136.822815 491.518707,148.879410 488.153839,160.161713 
	C478.561798,192.323746 458.312592,216.259018 428.942719,232.587219 
	C413.895813,240.952576 397.695892,245.124283 380.329865,247.020905 
	C357.165833,245.901321 336.402008,238.563614 318.619202,224.685379 
	C308.076843,216.457825 298.427429,206.629318 290.072449,196.166412 
	C278.511200,181.688263 271.573669,164.614090 269.087524,146.109833 
	C267.862122,136.989304 266.952789,127.714546 267.163300,118.538551 
	C267.495605,104.055191 271.062836,90.154472 276.606415,76.680389 
	C283.500519,59.923653 293.816650,45.674126 307.049194,33.534721 
	C321.392517,20.376282 337.954163,10.806959 356.905304,6.158727 
	C366.067566,3.911453 375.631165,3.300336 385.469299,1.912585 
M370.614075,141.062134 
	C363.844849,142.625702 357.032227,144.025528 350.320099,145.804581 
	C344.930511,147.233093 342.203339,150.989685 343.115814,154.937653 
	C344.158875,159.450623 348.757294,161.889374 354.247620,160.742691 
	C358.295288,159.897278 362.311493,158.902481 366.351898,158.020782 
	C385.577179,153.825424 404.830322,149.753281 424.018951,145.396805 
	C429.927521,144.055359 432.243408,140.187531 430.925964,135.333130 
	C429.878479,131.473526 425.376831,129.051697 420.376373,130.130035 
	C404.048401,133.651138 387.756409,137.338898 370.614075,141.062134 
M346.367279,92.116867 
	C348.593414,93.226067 350.779907,94.425400 353.053711,95.426277 
	C358.268402,97.721657 362.445496,96.507462 364.348053,92.252159 
	C366.281586,87.927574 364.569733,83.826828 359.603394,81.289497 
	C352.958649,77.894646 346.284271,74.555504 339.575989,71.288170 
	C334.177368,68.658714 329.707611,69.768913 327.582977,74.103035 
	C325.571381,78.206573 327.279968,82.356064 332.361115,85.095978 
	C336.737396,87.455811 341.237885,89.585381 346.367279,92.116867 
M445.579681,82.936668 
	C448.162048,79.847878 449.271667,76.585762 446.528625,73.021896 
	C443.568909,69.176552 439.812164,69.176643 435.812927,71.078064 
	C432.204590,72.793648 428.647705,74.618385 425.082062,76.422546 
	C421.072479,78.451340 416.930969,80.271736 413.118530,82.623299 
	C409.156586,85.067085 409.010101,88.957336 410.933777,92.721748 
	C412.699310,96.176659 415.583252,97.930542 419.566925,95.985191 
	C428.068085,91.833801 436.546204,87.635162 445.579681,82.936668 
M421.782928,109.478416 
	C424.690643,113.754990 429.050354,115.393700 432.616638,113.550575 
	C435.502899,112.058891 437.169922,106.822701 435.571320,103.385536 
	C433.900116,99.792313 430.861847,98.358719 426.986969,99.214600 
	C423.082458,100.077019 420.878967,104.011482 421.782928,109.478416 
M342.415863,113.601852 
	C343.554443,113.755974 344.689606,113.944237 345.832214,114.057785 
	C349.238342,114.396294 351.983093,112.997269 352.752533,109.758041 
	C353.593597,106.217537 353.703735,102.430336 349.717834,100.137581 
	C346.182678,98.104126 342.936493,98.572655 340.359009,101.554535 
	C336.821594,105.646950 337.278595,108.449791 342.415863,113.601852 
z"/>
<path fill="#F49C26" opacity="1.000000" stroke="none" 
	d="
M93.144920,398.018402 
	C115.349251,393.085022 136.894882,393.640289 158.133347,400.902802 
	C163.396332,402.702484 166.104813,406.769226 164.853180,410.884552 
	C163.644516,414.858521 158.856796,416.748199 153.662109,415.774261 
	C142.822739,413.742004 131.975281,410.742004 121.062904,410.414673 
	C111.507164,410.128052 101.852715,412.918427 92.254005,414.426788 
	C89.819519,414.809418 87.455513,415.683197 85.016304,415.983734 
	C80.883644,416.492920 78.170746,414.078979 77.225838,410.500946 
	C76.185600,406.561981 77.941879,403.209412 81.875252,401.642059 
	C85.410080,400.233490 89.105484,399.227905 93.144920,398.018402 
z"/>
<path fill="#F49C27" opacity="1.000000" stroke="none" 
	d="
M86.980042,372.689331 
	C85.666161,376.933899 83.145279,379.850983 78.985405,378.797180 
	C76.525986,378.174164 73.407738,375.854034 72.741806,373.646667 
	C72.063362,371.397766 73.328201,367.691833 75.054520,365.861938 
	C76.452721,364.379913 80.092911,363.811981 82.210533,364.489410 
	C85.436249,365.521423 87.551025,368.364838 86.980042,372.689331 
z"/>
<path fill="#F49C27" opacity="1.000000" stroke="none" 
	d="
M169.414108,368.862732 
	C170.804001,373.842743 168.846222,377.243866 164.725525,378.750549 
	C161.181580,380.046356 157.906097,378.679504 155.994217,375.035675 
	C153.952469,371.144379 155.172638,367.951477 158.219208,365.327515 
	C161.659103,362.364746 165.901505,363.659637 169.414108,368.862732 
z"/>
<path fill="#189A72" opacity="1.000000" stroke="none" 
	d="
M81.939102,130.545181 
	C87.926849,131.448486 93.588982,132.369705 99.175652,133.626404 
	C116.550804,137.534897 133.718460,136.935364 150.713898,131.600143 
	C151.982056,131.202042 153.212143,130.665924 154.497131,130.341171 
	C159.115250,129.174042 163.203049,131.199005 164.619598,135.290176 
	C166.025101,139.349426 164.044815,143.601730 159.257553,144.962234 
	C151.151520,147.265854 142.955734,149.420578 134.663162,150.866348 
	C117.111526,153.926422 99.999680,151.322479 83.496254,145.073822 
	C80.873268,144.080688 77.890930,140.873184 77.438538,138.277481 
	C77.052933,136.064926 80.068184,133.259644 81.939102,130.545181 
z"/>
<path fill="#189B72" opacity="1.000000" stroke="none" 
	d="
M155.091537,105.429810 
	C157.526031,100.054909 160.763992,98.115868 164.611572,99.367897 
	C168.341034,100.581490 170.596085,104.401588 169.918045,108.357178 
	C169.227982,112.382904 166.157776,114.474419 161.473969,114.027016 
	C156.484650,113.550438 154.806427,110.422089 155.091537,105.429810 
z"/>
<path fill="#189B72" opacity="1.000000" stroke="none" 
	d="
M86.895447,108.600174 
	C84.478149,113.575302 81.054932,115.343910 76.800812,113.745941 
	C73.061348,112.341293 71.389046,109.294434 72.175781,105.399086 
	C72.992882,101.353386 75.671471,98.972435 79.933067,99.070343 
	C84.301659,99.170715 86.725868,102.475319 86.895447,108.600174 
z"/>
<path fill="#336F87" opacity="1.000000" stroke="none" 
	d="
M416.920441,410.038971 
	C394.771790,410.034363 373.110016,409.954926 351.449524,410.086761 
	C346.989838,410.113892 344.148529,407.650635 343.432343,404.122742 
	C342.961273,401.802246 344.866699,398.664398 346.442566,396.404846 
	C347.227905,395.278839 349.661530,394.878998 351.352631,394.871796 
	C375.179504,394.769958 399.007050,394.747345 422.834106,394.817688 
	C428.469482,394.834320 431.086456,397.508026 431.015381,402.546722 
	C430.953094,406.962677 427.920135,409.789001 422.905762,410.019897 
	C421.076691,410.104126 419.240631,410.037018 416.920441,410.038971 
z"/>
<path fill="#347189" opacity="1.000000" stroke="none" 
	d="
M342.733154,364.214294 
	C349.858337,362.440369 354.895752,367.123016 352.618317,374.598145 
	C351.517212,378.212250 345.463409,380.342468 342.244781,378.594940 
	C338.577240,376.603607 336.947876,371.418732 339.082733,367.986328 
	C339.934174,366.617401 341.243988,365.533630 342.733154,364.214294 
z"/>
<path fill="#347089" opacity="1.000000" stroke="none" 
	d="
M424.447083,377.853882 
	C420.097717,372.925842 419.936981,369.617950 423.587006,365.944946 
	C426.403564,363.110626 430.458984,363.131042 433.793488,366.014801 
	C437.001831,368.789398 436.890594,372.431671 435.048340,375.475586 
	C432.744232,379.282593 428.949829,380.231079 424.447083,377.853882 
z"/>
<path fill="#CF2F2F" opacity="1.000000" stroke="none" 
	d="
M371.032318,141.012360 
	C387.756409,137.338898 404.048401,133.651138 420.376373,130.130035 
	C425.376831,129.051697 429.878479,131.473526 430.925964,135.333130 
	C432.243408,140.187531 429.927521,144.055359 424.018951,145.396805 
	C404.830322,149.753281 385.577179,153.825424 366.351898,158.020782 
	C362.311493,158.902481 358.295288,159.897278 354.247620,160.742691 
	C348.757294,161.889374 344.158875,159.450623 343.115814,154.937653 
	C342.203339,150.989685 344.930511,147.233093 350.320099,145.804581 
	C357.032227,144.025528 363.844849,142.625702 371.032318,141.012360 
z"/>
<path fill="#CF2F2F" opacity="1.000000" stroke="none" 
	d="
M346.025360,91.966812 
	C341.237885,89.585381 336.737396,87.455811 332.361115,85.095978 
	C327.279968,82.356064 325.571381,78.206573 327.582977,74.103035 
	C329.707611,69.768913 334.177368,68.658714 339.575989,71.288170 
	C346.284271,74.555504 352.958649,77.894646 359.603394,81.289497 
	C364.569733,83.826828 366.281586,87.927574 364.348053,92.252159 
	C362.445496,96.507462 358.268402,97.721657 353.053711,95.426277 
	C350.779907,94.425400 348.593414,93.226067 346.025360,91.966812 
z"/>
<path fill="#CF2F2F" opacity="1.000000" stroke="none" 
	d="
M445.306702,83.196281 
	C436.546204,87.635162 428.068085,91.833801 419.566925,95.985191 
	C415.583252,97.930542 412.699310,96.176659 410.933777,92.721748 
	C409.010101,88.957336 409.156586,85.067085 413.118530,82.623299 
	C416.930969,80.271736 421.072479,78.451340 425.082062,76.422546 
	C428.647705,74.618385 432.204590,72.793648 435.812927,71.078064 
	C439.812164,69.176643 443.568909,69.176552 446.528625,73.021896 
	C449.271667,76.585762 448.162048,79.847878 445.306702,83.196281 
z"/>
<path fill="#CF2F2F" opacity="1.000000" stroke="none" 
	d="
M421.591736,109.137878 
	C420.878967,104.011482 423.082458,100.077019 426.986969,99.214600 
	C430.861847,98.358719 433.900116,99.792313 435.571320,103.385536 
	C437.169922,106.822701 435.502899,112.058891 432.616638,113.550575 
	C429.050354,115.393700 424.690643,113.754990 421.591736,109.137878 
z"/>
<path fill="#CF2F2F" opacity="1.000000" stroke="none" 
	d="
M342.084167,113.375412 
	C337.278595,108.449791 336.821594,105.646950 340.359009,101.554535 
	C342.936493,98.572655 346.182678,98.104126 349.717834,100.137581 
	C353.703735,102.430336 353.593597,106.217537 352.752533,109.758041 
	C351.983093,112.997269 349.238342,114.396294 345.832214,114.057785 
	C344.689606,113.944237 343.554443,113.755974 342.084167,113.375412 
z"/>
</svg>