<?xml version="1.0" encoding="iso-8859-1"?>
<!-- Generator: Adobe Illustrator 21.0.0, SVG Export Plug-In . SVG Version: 6.00 Build 0)  -->
<svg version="1.1" id="Capa_1" xmlns="http://www.w3.org/2000/svg" xmlns:xlink="http://www.w3.org/1999/xlink" x="0px" y="0px"
	 viewBox="0 0 512 512" style="enable-background:new 0 0 512 512;" xml:space="preserve">
<path style="fill:#65B1CF;" d="M509.258,151.915v26.275c0,3.206-2.598,5.793-5.793,5.793h-97.019c-3.206,0-5.793-2.587-5.793-5.793
	v-26.275c0-3.206,2.587-5.793,5.793-5.793h97.019C506.66,146.122,509.258,148.709,509.258,151.915z"/>
<g>
	<path style="fill:#FFB282;" d="M184.314,484.751h-19.309c-2.135,0-3.866-1.731-3.866-3.866V78.477h27.04v402.408
		C188.179,483.02,186.449,484.751,184.314,484.751z"/>
	<path style="fill:#FFB282;" d="M346.995,484.751h-19.309c-2.135,0-3.866-1.731-3.866-3.866V78.477h27.04v402.408
		C350.861,483.02,349.13,484.751,346.995,484.751z"/>
</g>
<g>
	<path style="fill:#C0694E;" d="M53.182,484.751H33.873c-2.135,0-3.866-1.731-3.866-3.866V243.464h27.04v237.421
		C57.048,483.02,55.317,484.751,53.182,484.751z"/>
	<path style="fill:#C0694E;" d="M478.127,484.751h-19.309c-2.135,0-3.866-1.731-3.866-3.866V243.464h27.04v237.421
		C481.992,483.02,480.262,484.751,478.127,484.751z"/>
</g>
<path style="fill:#7C3F2C;" d="M512,243.11v0.711c0,11.916-9.659,21.575-21.585,21.575H21.585C9.659,265.396,0,255.737,0,243.821
	v-0.711c0-11.916,9.659-21.585,21.585-21.585h468.83c11.493,0,20.874,8.978,21.544,20.286C511.99,242.244,512,242.677,512,243.11z"
	/>
<path style="fill:#954C35;" d="M511.959,241.811H45.809c-11.493,0-20.874-8.968-21.544-20.286h466.15
	C501.908,221.525,511.289,230.503,511.959,241.811z"/>
<g>
	<path style="fill:#FF883E;" d="M369.12,63.616v53.365c0,4.371-0.773,8.566-2.185,12.452c-5.082,13.947-18.462,23.915-34.181,23.915
		H179.246c-20.09,0-36.367-16.276-36.367-36.367V63.616c0-19.472,15.287-35.357,34.511-36.315c0.618-0.031,1.237-0.052,1.855-0.052
		h153.507C352.844,27.249,369.12,43.526,369.12,63.616z"/>
	<path style="fill:#FF883E;" d="M383.181,314.544c0,0.577-0.021,1.144-0.062,1.711c-0.412,6.381-3.175,12.133-7.422,16.379
		c-4.628,4.618-11.019,7.484-18.08,7.484H154.383c-14.122,0-25.564-11.442-25.564-25.574c0-7.061,2.866-13.452,7.484-18.08
		c4.628-4.628,11.019-7.484,18.08-7.484h203.233C371.739,288.981,383.181,300.422,383.181,314.544z"/>
</g>
<g>
	<path style="fill:#FF9D60;" d="M369.12,63.616v53.365c0,4.371-0.773,8.566-2.185,12.452c-0.618,0.031-1.237,0.052-1.855,0.052
		H211.572c-20.09,0-36.367-16.276-36.367-36.367V39.753c0-4.371,0.773-8.566,2.185-12.452c0.618-0.031,1.237-0.052,1.855-0.052
		h153.507C352.844,27.249,369.12,43.526,369.12,63.616z"/>
	<path style="fill:#FF9D60;" d="M383.181,314.544c0,0.577-0.021,1.144-0.062,1.711H186.709c-14.122,0-25.574-11.442-25.574-25.574
		c0-0.567,0.021-1.134,0.062-1.701h196.42C371.739,288.981,383.181,300.422,383.181,314.544z"/>
</g>
<path style="fill:#5CA33B;" d="M481.993,189.456v26.275c0,3.206-2.598,5.793-5.793,5.793h-97.019c-3.206,0-5.793-2.587-5.793-5.793
	v-26.275c0-3.195,2.587-5.793,5.793-5.793H476.2C479.396,183.663,481.993,186.261,481.993,189.456z"/>
<path style="fill:#7FBED7;" d="M509.258,151.915v15.431h-81.681c-3.206,0-5.793-2.587-5.793-5.793v-15.431h81.681
	C506.66,146.122,509.258,148.709,509.258,151.915z"/>
<path style="fill:#6DC54A;" d="M481.993,189.456v15.441h-81.681c-3.206,0-5.793-2.598-5.793-5.793v-15.441H476.2
	C479.396,183.663,481.993,186.261,481.993,189.456z"/>
<g>
</g>
<g>
</g>
<g>
</g>
<g>
</g>
<g>
</g>
<g>
</g>
<g>
</g>
<g>
</g>
<g>
</g>
<g>
</g>
<g>
</g>
<g>
</g>
<g>
</g>
<g>
</g>
<g>
</g>
</svg>
