<svg height="512" viewBox="0 0 40 58" width="512" xmlns="http://www.w3.org/2000/svg"><g id="Page-1" fill="none" fill-rule="evenodd"><g id="001---Toilet" fill-rule="nonzero" transform="translate(0 -1)"><path id="Shape" d="m36 4h-6.88c-2.5942471-2.03833119-5.8222926-3.10018825-9.12-3-3.2977074-.10018825-6.5257529.96166881-9.12 3h-6.88c-2.209139 0-4 1.790861-4 4v19c0 2.209139 1.790861 4 4 4h3.75c.18.32.36.62.55.92-3.86 1.47-6.3 3.65-6.3 6.08 0 5.42 3.44 10.16 8.61 12.8l-.37 4.98c-.0611263.8312934.2263603 1.6505429.7935419 2.2613539.5671817.6108111 1.3629205.958112 2.1964581.9586461h13.54c.8335376-.0005341 1.6292764-.347835 2.1964581-.9586461.5671816-.610811.8546682-1.4300605.7935419-2.2613539l-.37-4.98c5.17-2.64 8.61-7.38 8.61-12.8 0-2.43-2.44-4.61-6.3-6.07.19-.3.38-.61.56-.93h3.74c2.209139 0 4-1.790861 4-4v-19c0-2.209139-1.790861-4-4-4z" fill="#bdc3c7"/><path id="Shape" d="m29.76 55.78c.0611263.8312934-.2263603 1.6505429-.7935419 2.2613539-.5671817.6108111-1.3629205.958112-2.1964581.9586461h-13.54c-.8335376-.0005341-1.6292764-.347835-2.1964581-.9586461-.5671816-.610811-.8546682-1.4300605-.7935419-2.2613539l.37-4.98c5.9163679 2.9333509 12.8636321 2.9333509 18.78 0z" fill="#95a5a5"/><path id="Shape" d="m31.7 31.93c-3.7547804-1.331717-7.7164341-1.9852206-11.7-1.93-3.9825778-.0532166-7.9433042.5967487-11.7 1.92-3.86 1.47-6.3 3.65-6.3 6.08 0 4.42 8.06 8 18 8s18-3.58 18-8c0-2.43-2.44-4.61-6.3-6.07zm-11.7 9.07c-6.08 0-11-1.57-11-3.5s4.92-3.5 11-3.5 11 1.57 11 3.5-4.92 3.5-11 3.5z" fill="#ecf0f1"/><ellipse id="Oval" cx="20" cy="37.5" fill="#7f8c8d" rx="11" ry="3.5"/><path id="Shape" d="m38 38c0 5.42-3.44 10.16-8.61 12.8-5.9163679 2.9333509-12.8636321 2.9333509-18.78 0-5.17-2.64-8.61-7.38-8.61-12.8 0 4.42 8.06 8 18 8s18-3.58 18-8z" fill="#bdc3c7"/><path id="Shape" d="m35 20.04c.0120881 2.7138751-.4550827 5.4085705-1.38 7.96-.2650464.7417833-.5756372 1.4664952-.93 2.17-.14.28-.28.56-.43.83-.18.32-.37.63-.56.93-3.7547804-1.331717-7.7164341-1.9852206-11.7-1.93-3.9825778-.0532166-7.9433042.5967487-11.7 1.92-.19-.3-.37-.6-.55-.92-.15-.27-.3-.55-.44-.84-.35434572-.7000864-.66494164-1.4214705-.93-2.16-.92400452-2.5516719-1.39114699-5.2462038-1.38-7.96 0-7.96 2.3-13.12 5.88-16.04 2.5942471-2.03833119 5.8222926-3.10018825 9.12-3 3.2977074-.10018825 6.5257529.96166881 9.12 3 3.58 2.92 5.88 8.08 5.88 16.04z" fill="#ecf0f1"/><path id="Shape" d="m9 21.04c-.55228475 0-1-.4477153-1-1 0-10.34 4.262-16.04 12-16.04.5522847 0 1 .44771525 1 1s-.4477153 1-1 1c-6.636 0-10 4.724-10 14.04 0 .5522847-.44771525 1-1 1z" fill="#fff"/><path id="Shape" d="m32.41 30.06c-3.982772-1.4133051-8.1842064-2.1107229-12.41-2.06-4.2246162-.0463056-8.4247102.6475052-12.41 2.05-.09.04-.19.07-.28.11.14.29.29.57.44.84.18.32.36.62.55.92 3.7566958-1.3232513 7.7174222-1.9732166 11.7-1.92 3.9835659-.0552206 7.9452196.598283 11.7 1.93.19-.3.38-.61.56-.93.15-.27.29-.55.43-.83-.09-.04-.19-.07-.28-.11z" fill="#bdc3c7"/></g></g></svg>