<svg clip-rule="evenodd" fill-rule="evenodd" height="512" stroke-linejoin="round" stroke-miterlimit="2" viewBox="0 0 64 64" width="512" xmlns="http://www.w3.org/2000/svg"><g id="Artboard1"><path d="m42.61 24.63-4.25-4.24 14.03-14.03 4.24 4.24z" fill="#eceaec" fill-rule="nonzero"/><g fill="#dbd8db"><path d="m46.137 21.093-4.24-4.24-1.414 1.414 4.24 4.24z"/><path d="m48.967 18.263-4.24-4.24-1.414 1.414 4.24 4.24z"/><path d="m51.798 15.444-4.24-4.25-1.416 1.412 4.24 4.25z"/><path d="m54.628 12.614-4.24-4.25-1.416 1.412 4.24 4.25z"/></g><path d="m39.78 18.97c-1.59-1.59-1.59-4.17 0-5.77l6.33-6.33c1.28-1.28 2.02-2.99 2.09-4.79 0-.05.07-.08.1-.04 2.32 2.32 2.32 6.08 0 8.4z" fill="#4ce1a1" fill-rule="nonzero"/><g transform="translate(15.61 .915)"><path d="m32.126 3.444c.275-.723.434-1.492.464-2.279 0-.05.07-.08.1-.04 2.32 2.32 2.32 6.08 0 8.4l-8.52 8.53c-.352-.352-.626-.752-.822-1.179l7.342-7.351c1.645-1.645 2.124-4.014 1.436-6.081z" fill="#3ec2a3" fill-rule="nonzero"/></g><path d="m59.6 16.11-12.85 12.85c-2.1 2.1-4.81 3.38-7.7 4.02-1.66.37-3.17 1.19-4.38 2.4l-25.65 25.65c-1.02 1.03-2.66 1.28-3.86.46-1.62-1.1-1.77-3.31-.46-4.62l25.82-25.82c2.1-2.1 4.81-3.38 7.71-4.03 1.66-.37 3.17-1.19 4.37-2.4l14.14-14.14 2.86 2.86c.77.77.77 2.01 0 2.77z" fill="#7ad7ee" fill-rule="nonzero"/><g transform="translate(39.613 -3.531)"><path d="m16.127 15.026 1-1 2.86 2.86c.77.77.77 2.01 0 2.77l-12.85 12.85c-2.1 2.1-4.81 3.38-7.7 4.02-1.66.37-3.17 1.19-4.38 2.4l-25.65 25.65c-1.02 1.03-2.66 1.28-3.86.46-.257-.174-.477-.377-.66-.6.563-.137 1.096-.431 1.52-.86l25.65-25.65c1.21-1.21 2.72-2.03 4.38-2.4 2.89-.64 5.6-1.92 7.7-4.02l12.85-12.85c.77-.76.77-2 0-2.77z" fill="#4bc3ef" fill-rule="nonzero"/></g></g></svg>