<?xml version="1.0" encoding="iso-8859-1"?>
<!-- Generator: Adobe Illustrator 19.0.0, SVG Export Plug-In . SVG Version: 6.00 Build 0)  -->
<svg version="1.1" id="Capa_1" xmlns="http://www.w3.org/2000/svg" xmlns:xlink="http://www.w3.org/1999/xlink" x="0px" y="0px"
	 viewBox="0 0 512 512" style="enable-background:new 0 0 512 512;" xml:space="preserve">
<path style="fill:#C9EDF7;" d="M392.337,511.995H119.666c-2.761,0-5-2.239-5-5V242.851c0-44.574,36.134-80.708,80.708-80.708H316.63
	c44.574,0,80.708,36.134,80.708,80.708v264.144C397.337,509.757,395.099,511.995,392.337,511.995z"/>
<path style="fill:#AEE1ED;" d="M397.334,245.663v261.163c0,2.856-2.318,5.174-5.174,5.174h-41.899c2.856,0,5.174-2.318,5.174-5.174
	V245.663c0-46.131-37.398-83.519-83.519-83.519h41.899C359.948,162.144,397.334,199.531,397.334,245.663z"/>
<rect x="114.662" y="294.28" style="fill:#F45151;" width="282.67" height="111.75"/>
<rect x="355.432" y="294.28" style="fill:#F42F2F;" width="41.902" height="111.75"/>
<rect x="241.252" y="55.13" style="fill:#E9EFF4;" width="29.49" height="52.889"/>
<rect x="256.003" y="55.13" style="fill:#D3DCE2;" width="14.745" height="52.889"/>
<path style="fill:#F45151;" d="M297.909,162.143h-83.815v-49.118c0-2.761,2.239-5,5-5h73.815c2.761,0,5,2.239,5,5V162.143z"/>
<path style="fill:#F42F2F;" d="M297.911,113.198v48.946h-25.994v-48.946c0-2.856-2.318-5.174-5.174-5.174h25.994
	C295.594,108.024,297.911,110.342,297.911,113.198z"/>
<path style="fill:#F45151;" d="M214.094,5.174L214.094,5.174c0,1.438-1.166,2.604-2.604,2.604h-62.618
	c-7.7,0-13.942,6.242-13.942,13.942v32.53c0,2.857,2.316,5.174,5.174,5.174h11.873c2.857,0,5.174-2.316,5.174-5.174V43.256
	c0-3.726,3.021-6.747,6.747-6.747h47.592c1.438,0,2.604,1.166,2.604,2.604v10.848c0,2.858,2.316,5.174,5.174,5.174h73.467
	c2.857,0,5.174-2.316,5.174-5.174V5.174c0-2.857-2.317-5.174-5.174-5.174h-73.467C216.411,0,214.094,2.316,214.094,5.174z"/>
<path style="fill:#F42F2F;" d="M297.911,5.175v44.786c0,2.856-2.318,5.174-5.174,5.174h-25.994c2.856,0,5.174-2.318,5.174-5.174
	V5.175c0-2.856-2.318-5.174-5.174-5.174h25.994C295.594,0.001,297.911,2.319,297.911,5.175z"/>
<g>
</g>
<g>
</g>
<g>
</g>
<g>
</g>
<g>
</g>
<g>
</g>
<g>
</g>
<g>
</g>
<g>
</g>
<g>
</g>
<g>
</g>
<g>
</g>
<g>
</g>
<g>
</g>
<g>
</g>
</svg>
