<svg id="Capa_1" enable-background="new 0 0 512 512" height="512" viewBox="0 0 512 512" width="512" xmlns="http://www.w3.org/2000/svg"><g><g><path d="m211 477.773-17.607-3.105c-80.42-14.15-132.393-53.276-132.393-99.668v-270h30c0 35.479 67.764 75 165 75 12.07 0 23.584-.571 34.775-1.729l3.457 29.795c-50.86 6.647-77.402 23.835-83.232 26.206z" fill="#e1e6f0"/></g><path d="m421 105c0 44.841-61.761 44.409-139.83 104.1-28.77 3.47-56.95 10.65-82.87 23.6l-17.3 8.65v99.15 171.5l36-14c22.8-9.9 49.8-16.5 82.2-20.4 11.1-1.2 21.6-3 31.8-5.1l15-52.5 15 44.1c55.5-18.3 90-51 90-89.1v-270z" fill="#cfd7e6"/><g id="Toilet_Roll_2_"><g><path d="m361 178.5v61.5h-30v-53.101c10.499-2.4 20.7-5.099 30-8.399z" fill="#a4b2cd"/></g><g><path d="m361 390v74.099c-9.3 3.3-19.501 6-30 8.401v-82.5z" fill="#a4b2cd"/></g><g><path d="m331 270h30v90h-30z" fill="#a4b2cd"/></g></g><path d="m451 105c0 59.123-89.469 105-195 105-19.13 0-37.61-1.49-55.08-4.26-80.88-12.81-139.92-53.12-139.92-100.74 0-57.9 87.3-105 195-105s195 47.1 195 105z" fill="#f3f5f9"/><path d="m451 105c0-57.9-87.3-105-195-105v210c105.531 0 195-45.877 195-105z" fill="#e1e6f0"/><g><path d="m256 150c-42.744 0-75-19.351-75-45s32.256-45 75-45 75 19.351 75 45-32.256 45-75 45z" fill="#4d5e80"/></g><path d="m331 105c0-25.649-32.256-45-75-45v90c42.744 0 75-19.351 75-45z" fill="#3d4466"/></g></svg>