<svg id="Layer_1" enable-background="new 0 0 51 51" height="512" viewBox="0 0 51 51" width="512" xmlns="http://www.w3.org/2000/svg"><g><g><g enable-background="new"><g><path d="m18.82737 29.38873-.01308 4.61081c-.00044.15757-.10353.31453-.309.43393-.41859.24326-1.09853.24326-1.51986.00001-.20949-.12095-.31437-.28044-.31392-.44007l.01306-4.6108c-.00044.15963.10444.31912.31393.44007.42133.24325 1.10127.24325 1.51986-.00001.20547-.11941.30857-.27637.30901-.43394z" fill="#e0e2e2"/></g><g><path d="m18.50941 28.94463c.42133.24326.42355.6371.00896.87803-.41859.24326-1.09853.24326-1.51986.00001-.4173-.24093-.41952-.63478-.00093-.87803.41459-.24094 1.09453-.24094 1.51183-.00001z" fill="#e0e2e2"/></g></g><g enable-background="new"><g><path d="m43.67672 36.05952-.01307 4.61081c-.00045.15766-.10354.31508-.30949.43476-.41859.24326-1.09853.24326-1.51586.00232-.21099-.12182-.31587-.28083-.31542-.43979l.01307-4.6108c-.00044.15895.10443.31796.31543.43978.41733.24094 1.09727.24094 1.51586-.00232.20593-.11967.30903-.27709.30948-.43476z" fill="#5b5e71"/></g><g><path d="m43.36227 35.61857c.41733.24094.41954.63479.00496.87572-.41859.24326-1.09853.24326-1.51586.00232-.4213-.24324-.41952-.63477-.00093-.87803.41458-.24094 1.09052-.24325 1.51183-.00001z" fill="#e0e2e2"/></g></g><g enable-background="new"><g><path d="m12.64026 32.98429-.01308 4.61081c-.00044.15757-.10353.31453-.30899.43393-.41859.24326-1.09853.24326-1.51986.00001-.20949-.12095-.31437-.28044-.31392-.44007l.01307-4.61079c-.00045.15962.10443.31911.31392.44006.42133.24326 1.10127.24325 1.51986-.00001.20546-.11941.30855-.27637.309-.43394z" fill="#5b5e71"/></g><g><path d="m12.3223 32.54019c.42133.24326.42354.6371.00896.87803-.41859.24326-1.09853.24326-1.51986.00001-.4173-.24093-.41952-.63478-.00093-.87803.41459-.24094 1.09453-.24094 1.51183-.00001z" fill="#e0e2e2"/></g></g><g enable-background="new"><g><path d="m29.42534 44.27788-.01307 4.61081c-.00044.15766-.10354.31508-.30949.43477-.41859.24326-1.09853.24326-1.51586.00232-.21099-.12182-.31587-.28083-.31542-.43979l.01307-4.6108c-.00045.15895.10443.31797.31542.43979.41733.24094 1.09727.24094 1.51586-.00232.20595-.11969.30905-.27711.30949-.43478z" fill="#5b5e71"/></g><g><path d="m29.11089 43.83693c.41733.24094.41954.63479.00496.87572-.41859.24326-1.09853.24326-1.51586.00232-.4213-.24324-.41952-.63478-.00093-.87803.41459-.24093 1.09053-.24325 1.51183-.00001z" fill="#e0e2e2"/></g></g></g><g><g><path d="m14.85248 11.20675c-.00185.38301.24642.76788.74758 1.06045 1.00507.57683 2.63498.57683 3.64005-.012.58699-.33595.83525-.79834.74019-1.24135-.04615-.59068-.30457-1.12137-.69958-1.51638-.43747-.43747-1.04199-.70789-1.70927-.70789h-.3018c-1.33457.00001-2.41717 1.08261-2.41717 2.41717z" fill="#f1c40f"/><path d="m8.04992 28.27233c.33075 7.72062 2.72052 8.41915 2.72052 8.41915l12.90428 7.64679c2.75732 1.65444 5.88219 2.61034 9.08066 2.53674 1.65443-.0368 2.64714-.29395 2.64714-.29395 7.75719-1.76484 6.98507-8.60293 6.98507-8.60293z" fill="#c4c6c6"/><g><path d="m10.77063 20.80873c4.67302-2.70351 12.22698-2.69738 16.86943 0l13.74708 7.95268c4.62411 2.68514 4.61799 7.04625-.00612 9.74367-.01837.01221-.03057.01833-.04894.03057-.37922.22018-.77678.42204-1.19274.59941l-12.49928-7.2309c-4.26322-2.4772-10.99143-2.68517-15.67673-.60553l-1.23552-.71566-.01224-.00608c-4.64249-2.69743-4.618-7.07074.05506-9.76816z" fill="#e0e2e2"/></g><g><path d="m27.64005 31.90417 12.49928 7.2309c-4.68526 2.07964-11.41347 1.87778-15.67669-.59941l-12.49932-7.23702c4.68531-2.07965 11.41351-1.87167 15.67673.60553z" fill="#84dbff"/></g><g><path d="m9.22957 19.8877c4.90885-2.83413 12.86517-2.83408 17.73821-.00218l14.85494 8.62699c2.36282 1.37312 3.65655 3.19718 3.64565 5.13621-.01093 1.93903-1.32519 3.76307-3.70737 5.13842-4.90495 2.83187-12.85735 2.82959-17.73042-.00233l-13.75224-7.95796c-2.3628-1.37311-4.76314-3.86395-4.74831-5.80523.01092-1.93904 1.32517-3.76308 3.69954-5.13392zm15.66798 18.39657c4.39585 2.55459 11.57365 2.55462 15.99825.00008 2.14787-1.24007 3.34045-2.88599 3.3503-4.63564.00597-1.75189-1.16031-3.39783-3.29033-4.63566l-13.75224-7.95796c-4.39972-2.55684-11.58144-2.55461-16.00995.00219-2.14396 1.23782-3.32875 2.88375-3.33862 4.63337-.00985 1.74965 1.15644 3.39558 3.29034 4.63567z" fill="#ecf0f1"/></g><g><path d="m44.24968 34.63578-.00612-.98476c.00612-1.75545-1.15604-3.4008-3.29071-4.63636l-13.74705-7.95876c-4.40393-2.55672-11.58475-2.55672-16.01313 0-2.14079 1.24164-3.32741 2.887-3.33965 4.63632l.13784 1.04158c.00612-1.74932 1.06102-3.43926 3.2079-4.6809 4.42842-2.55675 11.60924-2.55675 16.00705 0l13.75317 7.95877c2.12242 1.22943 3.2907 2.87479 3.2907 4.62411z" fill="#d4d6d6"/></g><g><path d="m5.52701 25.0538.00612.96639c-.01224 1.93897 2.38716 4.43073 4.74814 5.80083l13.7532 7.95877c4.87488 2.83197 12.8264 2.83809 17.73188.00612 2.37935-1.37622 3.69439-3.19895 3.70663-5.13789l-.00612-.997c-.01225 1.93893-1.32116 3.76166-3.70663 5.13788-4.90549 2.83197-12.85701 2.82584-17.73188-.00612l-13.74708-7.95877c-2.35486-1.36397-4.75426-3.83739-4.75426-5.77021z" fill="#d4d6d6"/></g><g><g enable-background="new"><g><path d="m15.88488 9.11989.00128.45077c.0006.21297.14082.42574.42083.58846.5621.32665 1.47618.32717 2.04195.00052.28526-.16469.42767-.38079.42706-.59647l-.00128-.45076c.00061.21568-.1418.43177-.42706.59647-.56577.32665-1.47985.32614-2.04195-.00052-.28001-.16273-.42023-.3755-.42083-.58847z" fill="#d6b218"/></g><g><path d="m16.31061 8.52507c-.56577.32665-.56787.85612-.0049 1.18329.5621.32665 1.47618.32717 2.04195.00052.56666-.32716.56964-.85714.00754-1.1838-.56297-.32717-1.47793-.32717-2.04459-.00001z" fill="#e5bd13"/></g></g></g><path d="m9.25758 20.75973v.01056c0 .0766.05018.15318.15317.21392.20601.11885.54142.11885.74741-.00263.103-.06075.15583-.13734.15583-.21657v-.00264l.04225-16.07064c0-.95605.30372-1.65591.83984-1.96491.54141-.31428 1.30995-.2245 2.14715.26673 1.92267 1.11188 3.48615 3.81364 3.48615 6.02946v.00264c0 .07658.05018.15581.15318.21392.20599.11885.54141.12149.7474 0 .103-.06074.15583-.13734.15583-.21657 0-2.59349-1.76156-5.63858-4.01436-6.9406-1.18582-.68139-2.32145-.77119-3.19828-.26939-.88209.50709-1.36276 1.52916-1.37068 2.8761z" fill="#f1c40f"/><path d="m21.24621 15.97295c0 .42987-.34117.77332-.77104.77332-.30478 0-.57316-.17968-.69598-.44352-.05005-.10008-.07506-.21152-.07506-.3298 0-.35026.51403-1.19408.70281-1.49203.04321-.06823.06823-.10689.06823-.10689s.77104 1.16906.77104 1.59892z" fill="#328eb7"/><path d="m20.8914 15.61132c0 .42987-.34344.77104-.77332.77104-.12055 0-.23654-.02729-.33889-.07961-.05005-.10008-.07506-.21152-.07506-.3298 0-.35026.51403-1.19408.70281-1.49203.22062.37301.48446.87794.48446 1.1304z" fill="#3498db"/><path d="m16.07773 15.97295c0 .42987-.34117.77332-.77104.77332-.30478 0-.57316-.17968-.69598-.44352-.05005-.10008-.07506-.21152-.07506-.3298 0-.35026.51403-1.19408.70281-1.49203.04321-.06823.06823-.10689.06823-.10689s.77104 1.16906.77104 1.59892z" fill="#328eb7"/><path d="m15.72292 15.61132c0 .42987-.34344.77104-.77332.77104-.12055 0-.23654-.02729-.33889-.07961-.05005-.10008-.07506-.21152-.07506-.3298 0-.35026.51403-1.19408.70281-1.49203.22061.37301.48446.87794.48446 1.1304z" fill="#3498db"/><path d="m18.57774 14.71261c0 .42987-.34117.77332-.77104.77332-.30478 0-.57316-.17968-.69598-.44352-.05005-.10008-.07506-.21152-.07506-.3298 0-.35026.51403-1.19408.70281-1.49203.04321-.06823.06823-.10689.06823-.10689s.77104 1.16906.77104 1.59892z" fill="#328eb7"/><path d="m18.22293 14.35098c0 .42987-.34344.77104-.77332.77104-.12055 0-.23654-.02729-.33889-.07961-.05005-.10008-.07506-.21152-.07506-.3298 0-.35026.51403-1.19408.70281-1.49203.22061.37301.48446.87794.48446 1.1304z" fill="#3498db"/></g><g><path d="m13.39172 24.64139c-.00189-.28113-.07359-.49999-.2-.64717.41132-.0151.69622.3.69811.85472.00189.76226-.53396 1.69244-1.19999 2.07734-.42076.24151-.79245.20755-1.00943-.04339.15661-.00565.33019-.05849.51321-.16415.66603-.3849 1.20188-1.3151 1.1981-2.07735z" fill="#ecf0f1"/><path d="m12.68229 24.15837c.18302-.10377.35472-.15661.50943-.16415.12641.14717.19811.36604.2.64717.00378.76225-.53207 1.69245-1.1981 2.07735-.18302.10566-.3566.15849-.51321.16415-.12641-.14528-.19811-.36415-.2-.64339-.00188-.76416.53585-1.69623 1.20188-2.08113z" fill="#5b5e71"/></g></g></g></svg>