<svg height="512" viewBox="0 0 512 512" width="512" xmlns="http://www.w3.org/2000/svg"><g id="Layer_6" data-name="Layer 6"><path d="m439.354 59.607a48 48 0 0 0 -95.354 7.893v392h72a24 24 0 0 0 24-24v-344z" fill="#b5b5b5"/><path d="m440 91.5-.646-31.893a47.994 47.994 0 0 0 -39.375-39.384 47.972 47.972 0 0 0 -39.979 47.277v344.429a23.571 23.571 0 0 0 23.571 23.571h56.429z" fill="#ccc"/><path d="m344 331.5h96v48h-96z" fill="#939393"/><path d="m360 351.245a12.255 12.255 0 0 0 12.255 12.255h67.745v-32h-80z" fill="#b5b5b5"/><rect fill="#686868" height="32" rx="8" width="480" x="16" y="59.5"/><path d="m72 67.5a48.039 48.039 0 0 1 .72-8h-43.72v9.518a14.482 14.482 0 0 0 14.482 14.482h28.518z" fill="#939393"/><path d="m488 59.5h-128v10.571a13.429 13.429 0 0 0 13.429 13.429h122.571v-16a8 8 0 0 0 -8-8z" fill="#939393"/><path d="m392 19.5h-272a48 48 0 0 0 -48 48v408a24 24 0 0 0 24 24h224a24 24 0 0 0 24-24v-408a48 48 0 0 1 48-48" fill="#c8cded"/><path d="m104 67.5v376a24 24 0 0 0 24 24h216v-400a48 48 0 0 1 48-48h-240a48 48 0 0 0 -48 48z" fill="#e2e7f6"/><path d="m72 371.5h272v48h-272z" fill="#5e87ca"/><path d="m104 382.786a20.714 20.714 0 0 0 20.714 20.714h219.286v-32h-240z" fill="#6697dd"/></g></svg>