<svg id="Layer_1" height="512" viewBox="0 0 50 50" width="512" xmlns="http://www.w3.org/2000/svg"><g><g><path d="m7.0454 19.4185v.3235c0 1.6066 1.3024 2.9091 2.9091 2.9091h30.0909c1.6066 0 2.9091-1.3024 2.9091-2.9091v-.3235z" fill="#c7c7c7"/><path d="m9.7622 22.6511c0 2.7614 3.746 5 8.367 5h13.7417c4.6209 0 8.367-2.2386 8.367-5z" fill="#b9b9b8"/><path d="m9.9545 14.0918-2.9091 5.3267h35.9092l-2.9091-5.3267z" fill="#e4e4e3"/><g fill="#c7c7c7"><path d="m37.0977 16.5819c.6564.9124.5573 1.8504-.5285 1.8504h-23.1347c-1.4083 0-1.1743-1.5274.2037-2.6004.6019-.4734 1.3028-.7548 1.8624-.7548h19.002c.9175 0 2.0323.7226 2.5951 1.5048z"/><path d="m40.071 12.9277v1.1641h-30.1394v-1.1641c0-.9685.8727-1.745 1.9394-1.745h26.2606c1.0667 0 1.9394.7765 1.9394 1.745z"/><path d="m19.667 27.651h10.667v21.349h-10.667z"/></g><g fill="#aeaeaf"><path d="m30.229 9.2886-1.8494-1.4545c-.3172-.2495-.7727-.1937-1.0218.1217-.2481.3158-.1932.7732.1222 1.0213l.3435.2701-3.2018 3.9242 1.1269.9195 3.2183-3.9445.3626.2852c.1335.1051.2917.1558.4489.1558.2159 0 .429-.0952.5729-.2775.248-.3158.1931-.7732-.1223-1.0213z"/><path d="m19.703 9.2886 1.8494-1.4545c.3172-.2495.7727-.1937 1.0218.1217.2481.3158.1932.7732-.1222 1.0213l-.3435.2701 3.2018 3.9242-1.1269.9195-3.2183-3.9445-.3626.2852c-.1335.1051-.2917.1558-.4489.1558-.2159 0-.429-.0952-.5729-.2775-.2479-.3158-.193-.7732.1223-1.0213z"/></g><g><path d="m25.7542 14.0909h-1.5745v-9.9419c0-1.7363 1.4123-3.149 3.1491-3.149h.9064c1.7367 0 3.1491 1.4127 3.1491 3.1491v1.5822h-1.5745v-1.5823c0-.8684-.7065-1.5745-1.5745-1.5745h-.9064c-.868 0-1.5745.7062-1.5745 1.5745v9.9419z" fill="#a1a0a0"/></g><path d="m19.6667 27.6511c0 1.3807 2.3878 2.5 5.3333 2.5s5.3333-1.1193 5.3333-2.5z" fill="#aaa9a6"/></g></g></svg>