<svg id="Layer_3" height="512" viewBox="0 0 512 512" width="512" xmlns="http://www.w3.org/2000/svg" data-name="Layer 3"><path d="m136 140.5h144v32h-144z" fill="#94c1fa"/><path d="m176 156.5h104v-16h-126.53a23.929 23.929 0 0 0 22.53 16z" fill="#c4dcfc"/><path d="m313.179 236.5a119.622 119.622 0 0 0 -33.179-64h-144a119.622 119.622 0 0 0 -33.179 64z" fill="#64a5f8"/><path d="m325 412.5-10.177-162.833a119.583 119.583 0 0 0 -1.644-13.167h-210.358a119.583 119.583 0 0 0 -1.644 13.167l-10.177 162.833z" fill="#c4dcfc"/><path d="m314.823 249.667a119.583 119.583 0 0 0 -1.644-13.167h-207.844c10.678 99.133 86.569 176 178.665 176h41z" fill="#deeafd"/><path d="m324.894 410.8-10.071-161.133a119.583 119.583 0 0 0 -1.644-13.167h-143.844c9.77 90.7 74.138 162.7 155.559 174.3z" fill="#eff2fe"/><path d="m240 340.5a32 32 0 0 1 -64 0c0-17.673 32-64 32-64s32 46.327 32 64z" fill="#64a5f8"/><path d="m152 108.5h112v32h-112z" fill="#64a5f8"/><path d="m168 108.5a16 16 0 0 0 16 16h80v-16z" fill="#94c1fa"/><path d="m152 12.5v32h120l16 24 40-32-32-24z" fill="#64a5f8"/><path d="m192 44.5h32v64h-32z" fill="#c4dcfc"/><path d="m208 68.5a23.929 23.929 0 0 0 16 22.53v-46.53h-16z" fill="#e7eefd"/><circle cx="352" cy="116.5" fill="#deeafd" r="24"/><ellipse cx="360" cy="116.5" fill="#eff2fe" rx="16" ry="22.53"/><circle cx="408" cy="68.5" fill="#deeafd" r="16"/><ellipse cx="416" cy="68.5" fill="#eff2fe" rx="8" ry="13.781"/><path d="m184.424 315.844c2.609 24.313 17.988 44.427 38.806 52.635a31.861 31.861 0 0 0 16.77-27.979c0-17.673-32-64-32-64s-14.094 20.437-23.576 39.344z" fill="#94c1fa"/><path d="m208 308.5a65.254 65.254 0 0 0 24.921 51.848 31.7 31.7 0 0 0 7.079-19.848c0-13.408-18.393-43.265-27.283-56.917a67.5 67.5 0 0 0 -4.717 24.917z" fill="#c4dcfc"/><path d="m325 412.5h-234l-2.939 47.033q-.061.967-.061 1.936a31.031 31.031 0 0 0 31.031 31.031h177.938a31.031 31.031 0 0 0 31.031-31.031q0-.969-.061-1.936z" fill="#64a5f8"/><circle cx="400" cy="180.5" fill="#deeafd" r="16"/><ellipse cx="408" cy="180.5" fill="#eff2fe" rx="8" ry="13.781"/></svg>