<svg version="1.1" id="Layer_1" xmlns="http://www.w3.org/2000/svg" xmlns:xlink="http://www.w3.org/1999/xlink" x="0px" y="0px"
	 width="100%" viewBox="0 0 607 515" enable-background="new 0 0 607 515" xml:space="preserve">
<path fill="#00000000" opacity="1.000000" stroke="none" 
	d="
M368.000000,516.000000 
	C245.360550,516.000000 123.221092,516.000000 1.040818,516.000000 
	C1.040818,344.398804 1.040818,172.797577 1.040818,1.098174 
	C203.222778,1.098174 405.445618,1.098174 607.834229,1.098174 
	C607.834229,172.666534 607.834229,344.333252 607.834229,516.000000 
	C528.130920,516.000000 448.315460,516.000000 368.000000,516.000000 
M87.746231,165.563980 
	C87.746788,192.561676 87.732574,219.559372 87.754692,246.557053 
	C87.764450,258.464783 93.629852,264.253448 105.634514,264.254578 
	C168.296143,264.260529 230.957764,264.256805 293.619385,264.256470 
	C295.387848,264.256439 297.156342,264.256470 299.315704,264.256470 
	C299.315704,256.267731 299.130371,248.959015 299.400085,241.667145 
	C299.520599,238.408646 298.424652,237.139603 295.359406,236.145615 
	C284.306671,232.561432 277.854828,224.732391 276.602051,213.226456 
	C275.439209,202.546555 279.704193,193.904770 288.690857,188.071655 
	C292.298584,185.729965 292.226013,183.268021 291.183807,179.412750 
	C288.552734,181.241913 286.373718,182.733383 284.218658,184.258667 
	C262.595367,199.562881 241.033264,214.955032 219.282211,230.075348 
	C216.599838,231.940002 212.934326,233.187943 209.690918,233.262375 
	C204.737823,233.376038 200.999954,229.564178 199.848251,224.806473 
	C198.616791,219.719284 200.345657,215.442551 205.298157,211.927155 
	C227.443817,196.207565 249.621155,180.532623 271.779236,164.830490 
	C273.190125,163.830673 274.534790,162.737305 276.859070,160.963242 
	C274.012695,160.822510 272.429504,160.678223 270.846130,160.676254 
	C256.513947,160.658524 242.178482,160.494415 227.851578,160.769394 
	C223.525650,160.852417 222.238388,159.730850 222.106155,155.290375 
	C221.803696,145.135559 213.031982,137.238113 203.000870,137.322220 
	C192.994507,137.406128 184.638611,145.448044 184.003265,155.610687 
	C183.911484,157.078598 183.839996,158.547775 183.724289,160.649200 
	C181.538208,160.649200 179.583771,160.649200 177.629349,160.649200 
	C149.298294,160.649261 120.967224,160.665649 92.636230,160.624176 
	C89.799881,160.620026 87.060806,160.385040 87.746231,165.563980 
M501.498474,152.888916 
	C507.106445,152.888916 512.714417,152.888916 518.823547,152.888916 
	C518.823547,150.652847 518.823547,149.025681 518.823547,147.398529 
	C518.823486,120.745613 518.826904,94.092705 518.821777,67.439789 
	C518.819336,54.854710 513.053345,49.006821 500.589661,49.004974 
	C437.788727,48.995689 374.987793,49.000206 312.186859,48.999886 
	C310.425079,48.999874 308.663269,48.999882 306.636932,48.999882 
	C306.636932,58.306667 306.636932,66.912262 306.636932,75.549194 
	C307.119476,75.790756 307.539612,76.071526 308.002136,76.222420 
	C324.483917,81.599228 330.281860,89.763641 329.998291,106.776115 
	C329.968323,108.575867 330.817535,110.650185 331.875427,112.167145 
	C340.638947,124.733597 349.520416,137.218307 358.454010,149.664734 
	C359.364075,150.932693 360.816681,152.641388 362.075653,152.691711 
	C369.320679,152.981308 376.583252,152.832794 384.093903,152.832794 
	C384.093903,132.614944 384.083282,113.135292 384.111359,93.655693 
	C384.113983,91.838547 384.079224,89.945190 384.547424,88.218925 
	C386.039307,82.718147 391.609192,79.230385 397.242554,80.037773 
	C403.087402,80.875473 407.005463,85.531761 407.021606,92.011726 
	C407.085999,117.831467 407.077454,143.651382 407.095612,169.471237 
	C407.096863,171.248352 407.095795,173.025467 407.095795,176.345215 
	C410.826538,174.320099 413.736084,173.215836 416.070251,171.380035 
	C421.866211,166.821533 423.672302,160.388901 422.981018,152.888809 
	C449.250336,152.888809 474.874786,152.888809 501.498474,152.888916 
M204.377762,129.882675 
	C218.839005,130.925690 226.667358,139.607986 230.198807,152.479156 
	C245.640472,152.479156 260.615417,152.479156 276.484070,152.479156 
	C252.419510,135.194855 229.150955,118.491936 205.894424,101.772270 
	C199.293365,97.026604 197.652390,90.169418 201.734085,84.628372 
	C205.898407,78.975166 212.539795,78.448402 219.349258,83.318588 
	C234.663651,94.271553 249.952286,105.260529 265.252441,116.233414 
	C273.861877,122.407890 282.473389,128.579468 291.807251,135.270859 
	C291.807251,121.597061 291.988251,108.837761 291.733582,96.087158 
	C291.599121,89.355331 292.290833,83.354111 298.527649,80.819298 
	C298.527649,69.716896 298.527649,59.485065 298.527649,49.010849 
	C296.142639,49.010849 294.318939,49.010849 292.495239,49.010849 
	C260.329163,49.010849 228.163071,49.010601 195.996979,49.010925 
	C165.497528,49.011230 134.998047,48.994255 104.498619,49.024315 
	C95.999016,49.032688 89.646690,53.359978 88.325592,60.980061 
	C87.497101,65.758774 88.171310,70.798012 88.171310,75.670898 
	C104.008934,77.843903 113.942009,86.969582 114.368813,101.197044 
	C114.533272,106.679466 112.576935,112.755516 109.934914,117.673660 
	C105.450920,126.020676 97.041443,129.142120 88.008041,130.100876 
	C88.008041,137.839127 88.008041,145.101135 88.008041,152.232300 
	C88.575966,152.507538 88.865967,152.770905 89.156433,152.771408 
	C117.321060,152.820160 145.485916,152.887024 173.649704,152.745834 
	C174.830170,152.739914 176.626907,151.001343 177.079010,149.701996 
	C181.479065,137.056534 190.329788,130.304703 204.377762,129.882675 
M314.832520,187.499985 
	C314.831207,198.494141 314.785522,209.488541 314.848877,220.482315 
	C314.876831,225.331116 313.304504,229.219513 309.138824,231.997238 
	C308.203735,232.620758 307.164124,233.941605 307.148254,234.956696 
	C306.998016,244.575516 307.058746,254.197647 307.058746,263.938965 
	C330.366333,263.938965 353.231018,263.938965 376.021362,263.938965 
	C379.489807,246.680862 388.541077,237.871552 402.734528,237.610046 
	C408.957245,237.495392 414.574280,239.262253 419.535980,242.995743 
	C426.480133,248.220963 429.592468,255.527283 430.370758,264.296753 
	C432.155701,264.296753 433.630157,264.296783 435.104645,264.296753 
	C457.093109,264.296234 479.081635,264.317810 501.070068,264.286285 
	C512.928894,264.269287 518.798340,258.331116 518.803345,246.422638 
	C518.814697,219.603363 518.807251,192.784088 518.807434,165.964813 
	C518.807434,164.347366 518.807434,162.729904 518.807434,161.218704 
	C517.769592,160.926422 517.300781,160.679276 516.831665,160.678757 
	C489.013275,160.647156 461.194611,160.590820 433.377441,160.768921 
	C432.116150,160.776978 430.196930,162.695084 429.723633,164.105850 
	C426.638947,173.300049 420.853058,179.859283 411.420258,182.287231 
	C407.471954,183.303467 407.024078,185.216492 407.062500,188.556595 
	C407.190857,199.715790 407.250458,210.880585 407.034058,222.037384 
	C406.866516,230.675797 398.297394,236.222977 390.913361,232.374069 
	C388.259705,230.990845 385.976318,228.426895 384.188934,225.926422 
	C369.662018,205.604050 355.310547,185.156342 340.841034,164.792694 
	C339.735535,163.236862 338.197327,160.931732 336.754669,160.850555 
	C329.540863,160.444656 322.291840,160.664795 314.832397,160.664795 
	C314.832397,169.869156 314.832397,178.184555 314.832520,187.499985 
M376.457855,394.390839 
	C376.457855,405.877411 376.457855,417.363983 376.457855,428.850555 
	C374.179352,427.752655 373.122498,426.517090 372.148621,425.219269 
	C363.958893,414.305603 355.778076,403.385315 347.609497,392.455841 
	C345.450592,389.567261 342.828735,387.702118 339.071075,388.942291 
	C335.200989,390.219543 333.898743,393.180298 333.928375,397.100037 
	C334.010132,407.917664 333.956055,418.736328 333.955902,429.554565 
	C333.955780,436.544800 333.923096,443.535278 333.966522,450.525238 
	C334.001129,456.090820 336.786926,459.425537 341.199432,459.327026 
	C345.514069,459.230713 348.064392,456.106384 348.130157,450.755859 
	C348.171051,447.427673 348.136688,444.098572 348.136597,440.769867 
	C348.136414,433.533051 348.136505,426.296234 348.136505,419.059418 
	C350.279694,419.880310 351.251953,421.090027 352.182831,422.330750 
	C360.271973,433.112610 368.406982,443.860779 376.404846,454.709991 
	C378.771545,457.920502 381.413239,460.225372 385.601868,458.923309 
	C389.777710,457.625244 390.749146,454.334900 390.726471,450.270050 
	C390.628296,432.628540 390.621246,414.985779 390.731476,397.344421 
	C390.757446,393.194214 389.549103,390.033234 385.368439,388.900848 
	C381.170258,387.763763 378.319763,389.715698 376.457855,394.390839 
M327.881836,329.111572 
	C325.729675,332.401031 323.577484,335.690491 321.238831,339.265015 
	C330.221863,349.731171 339.336853,360.351074 349.115051,371.743683 
	C349.115051,337.185883 349.115051,303.853821 349.115051,270.403259 
	C335.012756,270.403259 321.277313,270.403259 307.332153,270.403259 
	C307.332153,277.580505 307.332153,284.472198 307.332153,291.273376 
	C326.372284,297.295776 334.013794,311.064484 327.881836,329.111572 
M128.722748,454.775879 
	C130.679352,456.041870 132.557755,457.455566 134.609512,458.541840 
	C138.401932,460.549774 141.887909,459.923676 144.142792,456.206879 
	C146.361313,452.550049 145.420364,449.141113 142.067413,446.507996 
	C140.761414,445.482330 139.305008,444.648468 137.919174,443.724152 
	C128.282715,437.296570 118.646782,430.868195 108.465279,424.076263 
	C112.931625,421.113373 116.797043,418.581299 120.629204,415.999878 
	C127.534729,411.348267 134.547943,406.841705 141.266113,401.932373 
	C145.267700,399.008270 145.818604,394.819427 143.392990,391.414886 
	C140.934814,387.964630 137.062805,387.419739 132.812607,390.128448 
	C128.881210,392.634033 125.075844,395.336609 121.192757,397.919006 
	C115.182770,401.915985 109.153893,405.884521 102.520515,410.270081 
	C102.520515,407.210358 102.520325,405.058655 102.520569,402.906952 
	C102.520821,400.740997 102.597725,398.571869 102.506584,396.409760 
	C102.298813,391.481384 99.483467,388.285339 95.479729,388.314972 
	C91.516724,388.344299 88.547440,391.580811 88.522949,396.502563 
	C88.431755,414.829407 88.423752,433.157318 88.527016,451.484039 
	C88.555771,456.587982 91.284058,459.204559 95.768967,459.101135 
	C100.083687,459.001648 102.373474,456.533112 102.498100,451.558746 
	C102.608940,447.134491 102.521362,442.705261 102.521362,437.329926 
	C111.597603,443.365021 119.864151,448.861755 128.722748,454.775879 
M159.211029,410.694061 
	C152.026993,417.943176 148.951111,426.591766 150.999481,436.658478 
	C153.163559,447.293884 159.553558,454.592987 169.844513,458.066162 
	C179.779358,461.419128 188.898743,459.374237 196.996384,452.808228 
	C200.316116,450.116364 201.212845,446.697876 198.607208,443.147095 
	C196.088287,439.714508 192.603790,439.204498 188.864609,441.281647 
	C187.560852,442.005951 186.396179,442.976593 185.112793,443.742218 
	C180.080566,446.744324 169.548141,445.360809 167.407669,438.133728 
	C177.602661,438.133728 187.713699,438.158051 197.824570,438.125610 
	C205.183731,438.101990 207.774612,435.191284 206.768173,427.845062 
	C205.262024,416.851440 199.311951,409.001221 189.055725,404.927307 
	C178.360855,400.679199 168.485580,402.777679 159.211029,410.694061 
M236.643158,438.133392 
	C244.295319,438.133301 251.947556,438.153503 259.599609,438.127258 
	C267.077789,438.101593 269.563599,435.317963 268.721863,427.994507 
	C266.876129,411.935913 251.886032,400.587799 235.975189,403.203979 
	C219.953766,405.838348 209.327896,421.803314 213.027481,437.682037 
	C217.673721,457.623840 241.564133,466.213898 257.700745,453.744781 
	C262.117737,450.331635 263.118591,446.631592 260.573273,443.125580 
	C258.030273,439.622833 253.959747,439.262695 249.541153,442.102844 
	C248.289047,442.907684 247.030594,443.766479 245.660324,444.312775 
	C239.226593,446.877625 232.244141,444.339661 229.206406,438.133423 
	C231.481216,438.133423 233.586838,438.133423 236.643158,438.133392 
M446.293518,402.957275 
	C440.201111,407.115082 434.136017,404.435333 427.926392,403.181946 
	C424.934235,402.577972 421.566803,402.917053 418.534302,403.581726 
	C402.206512,407.160431 392.508057,423.837280 397.415436,439.551575 
	C402.423370,455.587830 419.832153,463.656738 435.609589,457.373322 
	C437.041595,456.803009 439.380493,456.414398 440.346191,457.165466 
	C443.124786,459.326599 446.252075,460.844849 448.902130,458.530762 
	C450.970062,456.725006 452.685181,453.359650 452.768036,450.632904 
	C453.162323,437.664154 452.904541,424.676605 452.966522,411.696167 
	C452.987122,407.380432 451.509491,404.256439 446.293518,402.957275 
M516.661194,456.770935 
	C517.153137,454.888458 518.023010,453.015167 518.069214,451.121826 
	C518.235779,444.297943 518.231079,437.465240 518.097168,430.639648 
	C517.781311,414.538361 505.082550,402.379517 488.942749,403.034027 
	C484.726593,403.205048 480.561279,404.630157 475.893677,405.576416 
	C475.893677,402.926392 475.970032,400.154968 475.876953,397.389191 
	C475.710327,392.439209 472.983917,389.251831 468.970215,389.162292 
	C464.781982,389.068878 461.892853,392.386322 461.880127,397.589081 
	C461.836945,415.242157 461.836151,432.895416 461.881378,450.548492 
	C461.894897,455.824677 464.654755,459.038422 468.911377,459.042633 
	C473.184570,459.046814 475.824524,455.886505 475.880554,450.502594 
	C475.944702,444.341278 475.837708,438.178070 475.914429,432.017059 
	C476.022675,423.324127 481.964996,417.081696 490.006989,417.088409 
	C498.042511,417.095123 503.946930,423.322113 504.062012,432.052551 
	C504.145416,438.379944 503.723083,444.739197 504.250366,451.023499 
	C504.469421,453.634094 505.973175,457.220184 507.991150,458.289246 
	C509.975128,459.340332 513.351257,457.763550 516.661194,456.770935 
M307.321136,421.581329 
	C306.762268,418.026245 308.371674,416.836090 311.806213,417.119446 
	C314.617859,417.351440 317.465271,417.222931 320.294403,417.153992 
	C325.234283,417.033600 328.312469,414.314209 328.293365,410.185883 
	C328.274750,406.152710 325.081940,403.307465 320.206085,403.183655 
	C316.075226,403.078735 311.939606,403.161987 307.482269,403.161987 
	C306.983704,397.260773 308.887726,389.458984 300.290955,389.479034 
	C291.782593,389.498871 293.774689,397.394501 292.941650,403.159882 
	C288.585846,403.159882 284.454224,403.072205 280.327942,403.182739 
	C275.486969,403.312439 272.281891,406.223724 272.296295,410.263031 
	C272.310425,414.227997 275.585663,417.052521 280.458801,417.148315 
	C284.569305,417.229126 288.682648,417.164978 293.268127,417.164978 
	C293.268127,428.733795 293.240662,439.689026 293.279388,450.644073 
	C293.299622,456.365875 295.960114,459.690918 300.334473,459.653992 
	C304.667328,459.617401 307.270569,456.314423 307.306610,450.545258 
	C307.364868,441.220642 307.322083,431.895355 307.321136,421.581329 
M299.559479,273.923553 
	C298.689026,272.655731 297.842865,270.304718 296.944427,270.284546 
	C285.738800,270.033173 274.525574,270.120056 261.918335,270.120056 
	C280.368469,291.622955 297.906891,312.063263 315.727356,332.832306 
	C321.433533,327.326599 323.627045,321.330658 322.003082,314.330780 
	C319.306793,302.708649 310.801117,298.720886 299.559326,298.749207 
	C299.559326,290.458527 299.559326,282.654022 299.559479,273.923553 
M89.317528,83.820709 
	C88.814514,84.359879 87.876213,84.896042 87.872452,85.438667 
	C87.788895,97.497337 87.808495,109.556725 87.808495,121.587769 
	C97.485657,121.968231 105.939331,114.576157 106.961014,105.305725 
	C108.158234,94.442528 101.444824,85.831078 89.317528,83.820709 
M403.485565,245.068207 
	C392.061584,245.817825 384.222229,253.468582 384.403198,263.875031 
	C397.071960,263.875031 409.741425,263.875031 422.438477,263.875031 
	C421.567047,253.045807 415.264008,246.621658 403.485565,245.068207 
M316.101501,152.820953 
	C321.270569,152.820953 326.439636,152.820953 332.506531,152.820953 
	C326.395386,144.251999 321.022003,136.717529 315.648621,129.183044 
	C315.191589,129.294998 314.734558,129.406937 314.277527,129.518890 
	C314.612183,137.172882 314.946869,144.826889 316.101501,152.820953 
M290.286804,196.257019 
	C281.245453,205.547714 281.866028,218.831635 291.863342,225.514359 
	C291.863342,219.960495 291.965729,214.544693 291.831085,209.134811 
	C291.722504,204.771133 291.327789,200.414566 290.286804,196.257019 
M368.937500,164.672089 
	C373.675598,171.357986 378.413696,178.043869 383.151794,184.729752 
	C383.613068,184.572372 384.074371,184.414993 384.535675,184.257614 
	C383.953766,180.661972 383.784851,176.932632 382.676086,173.507523 
	C381.519928,169.936050 379.589081,166.583389 377.721741,163.291138 
	C377.052673,162.111511 375.681763,160.787094 374.454346,160.580811 
	C371.953461,160.160522 369.332428,160.455017 366.021118,160.455017 
	C367.250488,162.232895 367.894379,163.164108 368.937500,164.672089 
z"/>
<path fill="#F96931" opacity="1.000000" stroke="none" 
	d="
M87.746101,165.070465 
	C87.060806,160.385040 89.799881,160.620026 92.636230,160.624176 
	C120.967224,160.665649 149.298294,160.649261 177.629349,160.649200 
	C179.583771,160.649200 181.538208,160.649200 183.724289,160.649200 
	C183.839996,158.547775 183.911484,157.078598 184.003265,155.610687 
	C184.638611,145.448044 192.994507,137.406128 203.000870,137.322220 
	C213.031982,137.238113 221.803696,145.135559 222.106155,155.290375 
	C222.238388,159.730850 223.525650,160.852417 227.851578,160.769394 
	C242.178482,160.494415 256.513947,160.658524 270.846130,160.676254 
	C272.429504,160.678223 274.012695,160.822510 276.859070,160.963242 
	C274.534790,162.737305 273.190125,163.830673 271.779236,164.830490 
	C249.621155,180.532623 227.443817,196.207565 205.298157,211.927155 
	C200.345657,215.442551 198.616791,219.719284 199.848251,224.806473 
	C200.999954,229.564178 204.737823,233.376038 209.690918,233.262375 
	C212.934326,233.187943 216.599838,231.940002 219.282211,230.075348 
	C241.033264,214.955032 262.595367,199.562881 284.218658,184.258667 
	C286.373718,182.733383 288.552734,181.241913 291.183807,179.412750 
	C292.226013,183.268021 292.298584,185.729965 288.690857,188.071655 
	C279.704193,193.904770 275.439209,202.546555 276.602051,213.226456 
	C277.854828,224.732391 284.306671,232.561432 295.359406,236.145615 
	C298.424652,237.139603 299.520599,238.408646 299.400085,241.667145 
	C299.130371,248.959015 299.315704,256.267731 299.315704,264.256470 
	C297.156342,264.256470 295.387848,264.256439 293.619385,264.256470 
	C230.957764,264.256805 168.296143,264.260529 105.634514,264.254578 
	C93.629852,264.253448 87.764450,258.464783 87.754692,246.557053 
	C87.732574,219.559372 87.746788,192.561676 87.746101,165.070465 
z"/>
<path fill="#91D733" opacity="1.000000" stroke="none" 
	d="
M500.998840,152.888855 
	C474.874786,152.888809 449.250336,152.888809 422.981018,152.888809 
	C423.672302,160.388901 421.866211,166.821533 416.070251,171.380035 
	C413.736084,173.215836 410.826538,174.320099 407.095795,176.345215 
	C407.095795,173.025467 407.096863,171.248352 407.095612,169.471237 
	C407.077454,143.651382 407.085999,117.831467 407.021606,92.011726 
	C407.005463,85.531761 403.087402,80.875473 397.242554,80.037773 
	C391.609192,79.230385 386.039307,82.718147 384.547424,88.218925 
	C384.079224,89.945190 384.113983,91.838547 384.111359,93.655693 
	C384.083282,113.135292 384.093903,132.614944 384.093903,152.832794 
	C376.583252,152.832794 369.320679,152.981308 362.075653,152.691711 
	C360.816681,152.641388 359.364075,150.932693 358.454010,149.664734 
	C349.520416,137.218307 340.638947,124.733597 331.875427,112.167145 
	C330.817535,110.650185 329.968323,108.575867 329.998291,106.776115 
	C330.281860,89.763641 324.483917,81.599228 308.002136,76.222420 
	C307.539612,76.071526 307.119476,75.790756 306.636932,75.549194 
	C306.636932,66.912262 306.636932,58.306667 306.636932,48.999882 
	C308.663269,48.999882 310.425079,48.999874 312.186859,48.999886 
	C374.987793,49.000206 437.788727,48.995689 500.589661,49.004974 
	C513.053345,49.006821 518.819336,54.854710 518.821777,67.439789 
	C518.826904,94.092705 518.823486,120.745613 518.823547,147.398529 
	C518.823547,149.025681 518.823547,150.652847 518.823547,152.888916 
	C512.714417,152.888916 507.106445,152.888916 500.998840,152.888855 
z"/>
<path fill="#0471D1" opacity="1.000000" stroke="none" 
	d="
M203.931046,129.879974 
	C190.329788,130.304703 181.479065,137.056534 177.079010,149.701996 
	C176.626907,151.001343 174.830170,152.739914 173.649704,152.745834 
	C145.485916,152.887024 117.321060,152.820160 89.156433,152.771408 
	C88.865967,152.770905 88.575966,152.507538 88.008041,152.232300 
	C88.008041,145.101135 88.008041,137.839127 88.008041,130.100876 
	C97.041443,129.142120 105.450920,126.020676 109.934914,117.673660 
	C112.576935,112.755516 114.533272,106.679466 114.368813,101.197044 
	C113.942009,86.969582 104.008934,77.843903 88.171310,75.670898 
	C88.171310,70.798012 87.497101,65.758774 88.325592,60.980061 
	C89.646690,53.359978 95.999016,49.032688 104.498619,49.024315 
	C134.998047,48.994255 165.497528,49.011230 195.996979,49.010925 
	C228.163071,49.010601 260.329163,49.010849 292.495239,49.010849 
	C294.318939,49.010849 296.142639,49.010849 298.527649,49.010849 
	C298.527649,59.485065 298.527649,69.716896 298.527649,80.819298 
	C292.290833,83.354111 291.599121,89.355331 291.733582,96.087158 
	C291.988251,108.837761 291.807251,121.597061 291.807251,135.270859 
	C282.473389,128.579468 273.861877,122.407890 265.252441,116.233414 
	C249.952286,105.260529 234.663651,94.271553 219.349258,83.318588 
	C212.539795,78.448402 205.898407,78.975166 201.734085,84.628372 
	C197.652390,90.169418 199.293365,97.026604 205.894424,101.772270 
	C229.150955,118.491936 252.419510,135.194855 276.484070,152.479156 
	C260.615417,152.479156 245.640472,152.479156 230.198807,152.479156 
	C226.667358,139.607986 218.839005,130.925690 203.931046,129.879974 
z"/>
<path fill="#0371D1" opacity="1.000000" stroke="none" 
	d="
M314.832458,186.999969 
	C314.832397,178.184555 314.832397,169.869156 314.832397,160.664795 
	C322.291840,160.664795 329.540863,160.444656 336.754669,160.850555 
	C338.197327,160.931732 339.735535,163.236862 340.841034,164.792694 
	C355.310547,185.156342 369.662018,205.604050 384.188934,225.926422 
	C385.976318,228.426895 388.259705,230.990845 390.913361,232.374069 
	C398.297394,236.222977 406.866516,230.675797 407.034058,222.037384 
	C407.250458,210.880585 407.190857,199.715790 407.062500,188.556595 
	C407.024078,185.216492 407.471954,183.303467 411.420258,182.287231 
	C420.853058,179.859283 426.638947,173.300049 429.723633,164.105850 
	C430.196930,162.695084 432.116150,160.776978 433.377441,160.768921 
	C461.194611,160.590820 489.013275,160.647156 516.831665,160.678757 
	C517.300781,160.679276 517.769592,160.926422 518.807434,161.218704 
	C518.807434,162.729904 518.807434,164.347366 518.807434,165.964813 
	C518.807251,192.784088 518.814697,219.603363 518.803345,246.422638 
	C518.798340,258.331116 512.928894,264.269287 501.070068,264.286285 
	C479.081635,264.317810 457.093109,264.296234 435.104645,264.296753 
	C433.630157,264.296783 432.155701,264.296753 430.370758,264.296753 
	C429.592468,255.527283 426.480133,248.220963 419.535980,242.995743 
	C414.574280,239.262253 408.957245,237.495392 402.734528,237.610046 
	C388.541077,237.871552 379.489807,246.680862 376.021362,263.938965 
	C353.231018,263.938965 330.366333,263.938965 307.058746,263.938965 
	C307.058746,254.197647 306.998016,244.575516 307.148254,234.956696 
	C307.164124,233.941605 308.203735,232.620758 309.138824,231.997238 
	C313.304504,229.219513 314.876831,225.331116 314.848877,220.482315 
	C314.785522,209.488541 314.831207,198.494141 314.832458,186.999969 
z"/>
<path fill="#0A75D3" opacity="1.000000" stroke="none" 
	d="
M376.562866,393.994385 
	C378.319763,389.715698 381.170258,387.763763 385.368439,388.900848 
	C389.549103,390.033234 390.757446,393.194214 390.731476,397.344421 
	C390.621246,414.985779 390.628296,432.628540 390.726471,450.270050 
	C390.749146,454.334900 389.777710,457.625244 385.601868,458.923309 
	C381.413239,460.225372 378.771545,457.920502 376.404846,454.709991 
	C368.406982,443.860779 360.271973,433.112610 352.182831,422.330750 
	C351.251953,421.090027 350.279694,419.880310 348.136505,419.059418 
	C348.136505,426.296234 348.136414,433.533051 348.136597,440.769867 
	C348.136688,444.098572 348.171051,447.427673 348.130157,450.755859 
	C348.064392,456.106384 345.514069,459.230713 341.199432,459.327026 
	C336.786926,459.425537 334.001129,456.090820 333.966522,450.525238 
	C333.923096,443.535278 333.955780,436.544800 333.955902,429.554565 
	C333.956055,418.736328 334.010132,407.917664 333.928375,397.100037 
	C333.898743,393.180298 335.200989,390.219543 339.071075,388.942291 
	C342.828735,387.702118 345.450592,389.567261 347.609497,392.455841 
	C355.778076,403.385315 363.958893,414.305603 372.148621,425.219269 
	C373.122498,426.517090 374.179352,427.752655 376.457855,428.850555 
	C376.457855,417.363983 376.457855,405.877411 376.562866,393.994385 
z"/>
<path fill="#F96A33" opacity="1.000000" stroke="none" 
	d="
M328.019165,328.744995 
	C334.013794,311.064484 326.372284,297.295776 307.332153,291.273376 
	C307.332153,284.472198 307.332153,277.580505 307.332153,270.403259 
	C321.277313,270.403259 335.012756,270.403259 349.115051,270.403259 
	C349.115051,303.853821 349.115051,337.185883 349.115051,371.743683 
	C339.336853,360.351074 330.221863,349.731171 321.238831,339.265015 
	C323.577484,335.690491 325.729675,332.401031 328.019165,328.744995 
z"/>
<path fill="#0673D2" opacity="1.000000" stroke="none" 
	d="
M128.426727,454.567169 
	C119.864151,448.861755 111.597603,443.365021 102.521362,437.329926 
	C102.521362,442.705261 102.608940,447.134491 102.498100,451.558746 
	C102.373474,456.533112 100.083687,459.001648 95.768967,459.101135 
	C91.284058,459.204559 88.555771,456.587982 88.527016,451.484039 
	C88.423752,433.157318 88.431755,414.829407 88.522949,396.502563 
	C88.547440,391.580811 91.516724,388.344299 95.479729,388.314972 
	C99.483467,388.285339 102.298813,391.481384 102.506584,396.409760 
	C102.597725,398.571869 102.520821,400.740997 102.520569,402.906952 
	C102.520325,405.058655 102.520515,407.210358 102.520515,410.270081 
	C109.153893,405.884521 115.182770,401.915985 121.192757,397.919006 
	C125.075844,395.336609 128.881210,392.634033 132.812607,390.128448 
	C137.062805,387.419739 140.934814,387.964630 143.392990,391.414886 
	C145.818604,394.819427 145.267700,399.008270 141.266113,401.932373 
	C134.547943,406.841705 127.534729,411.348267 120.629204,415.999878 
	C116.797043,418.581299 112.931625,421.113373 108.465279,424.076263 
	C118.646782,430.868195 128.282715,437.296570 137.919174,443.724152 
	C139.305008,444.648468 140.761414,445.482330 142.067413,446.507996 
	C145.420364,449.141113 146.361313,452.550049 144.142792,456.206879 
	C141.887909,459.923676 138.401932,460.549774 134.609512,458.541840 
	C132.557755,457.455566 130.679352,456.041870 128.426727,454.567169 
z"/>
<path fill="#0773D2" opacity="1.000000" stroke="none" 
	d="
M159.470093,410.449646 
	C168.485580,402.777679 178.360855,400.679199 189.055725,404.927307 
	C199.311951,409.001221 205.262024,416.851440 206.768173,427.845062 
	C207.774612,435.191284 205.183731,438.101990 197.824570,438.125610 
	C187.713699,438.158051 177.602661,438.133728 167.407669,438.133728 
	C169.548141,445.360809 180.080566,446.744324 185.112793,443.742218 
	C186.396179,442.976593 187.560852,442.005951 188.864609,441.281647 
	C192.603790,439.204498 196.088287,439.714508 198.607208,443.147095 
	C201.212845,446.697876 200.316116,450.116364 196.996384,452.808228 
	C188.898743,459.374237 179.779358,461.419128 169.844513,458.066162 
	C159.553558,454.592987 153.163559,447.293884 150.999481,436.658478 
	C148.951111,426.591766 152.026993,417.943176 159.470093,410.449646 
M184.301331,424.190063 
	C186.184647,424.190063 188.067963,424.190063 190.724106,424.190063 
	C187.240387,418.769867 183.054367,416.840668 177.941895,417.150848 
	C173.325073,417.430939 169.467087,419.306000 166.904083,424.190094 
	C172.773254,424.190094 178.064102,424.190094 184.301331,424.190063 
z"/>
<path fill="#0773D2" opacity="1.000000" stroke="none" 
	d="
M236.167801,438.133423 
	C233.586838,438.133423 231.481216,438.133423 229.206406,438.133423 
	C232.244141,444.339661 239.226593,446.877625 245.660324,444.312775 
	C247.030594,443.766479 248.289047,442.907684 249.541153,442.102844 
	C253.959747,439.262695 258.030273,439.622833 260.573273,443.125580 
	C263.118591,446.631592 262.117737,450.331635 257.700745,453.744781 
	C241.564133,466.213898 217.673721,457.623840 213.027481,437.682037 
	C209.327896,421.803314 219.953766,405.838348 235.975189,403.203979 
	C251.886032,400.587799 266.876129,411.935913 268.721863,427.994507 
	C269.563599,435.317963 267.077789,438.101593 259.599609,438.127258 
	C251.947556,438.153503 244.295319,438.133301 236.167801,438.133423 
M230.596085,421.289368 
	C230.078369,422.039246 229.560654,422.789154 228.796661,423.895752 
	C236.855789,423.895752 244.326675,423.895752 251.965195,423.895752 
	C247.528580,416.097839 239.238663,414.957306 230.596085,421.289368 
z"/>
<path fill="#0874D2" opacity="1.000000" stroke="none" 
	d="
M446.691284,402.999695 
	C451.509491,404.256439 452.987122,407.380432 452.966522,411.696167 
	C452.904541,424.676605 453.162323,437.664154 452.768036,450.632904 
	C452.685181,453.359650 450.970062,456.725006 448.902130,458.530762 
	C446.252075,460.844849 443.124786,459.326599 440.346191,457.165466 
	C439.380493,456.414398 437.041595,456.803009 435.609589,457.373322 
	C419.832153,463.656738 402.423370,455.587830 397.415436,439.551575 
	C392.508057,423.837280 402.206512,407.160431 418.534302,403.581726 
	C421.566803,402.917053 424.934235,402.577972 427.926392,403.181946 
	C434.136017,404.435333 440.201111,407.115082 446.691284,402.999695 
M432.950073,442.649689 
	C438.045654,438.431213 440.186859,433.200104 438.037079,426.736115 
	C436.118347,420.966797 431.886505,417.783905 425.918030,417.104706 
	C419.982880,416.429352 414.291901,419.855225 411.808014,425.309326 
	C409.311401,430.791382 410.526947,437.218231 414.843292,441.357605 
	C419.510376,445.833313 425.615997,446.429901 432.950073,442.649689 
z"/>
<path fill="#0874D2" opacity="1.000000" stroke="none" 
	d="
M516.388794,457.055420 
	C513.351257,457.763550 509.975128,459.340332 507.991150,458.289246 
	C505.973175,457.220184 504.469421,453.634094 504.250366,451.023499 
	C503.723083,444.739197 504.145416,438.379944 504.062012,432.052551 
	C503.946930,423.322113 498.042511,417.095123 490.006989,417.088409 
	C481.964996,417.081696 476.022675,423.324127 475.914429,432.017059 
	C475.837708,438.178070 475.944702,444.341278 475.880554,450.502594 
	C475.824524,455.886505 473.184570,459.046814 468.911377,459.042633 
	C464.654755,459.038422 461.894897,455.824677 461.881378,450.548492 
	C461.836151,432.895416 461.836945,415.242157 461.880127,397.589081 
	C461.892853,392.386322 464.781982,389.068878 468.970215,389.162292 
	C472.983917,389.251831 475.710327,392.439209 475.876953,397.389191 
	C475.970032,400.154968 475.893677,402.926392 475.893677,405.576416 
	C480.561279,404.630157 484.726593,403.205048 488.942749,403.034027 
	C505.082550,402.379517 517.781311,414.538361 518.097168,430.639648 
	C518.231079,437.465240 518.235779,444.297943 518.069214,451.121826 
	C518.023010,453.015167 517.153137,454.888458 516.388794,457.055420 
z"/>
<path fill="#0974D2" opacity="1.000000" stroke="none" 
	d="
M307.321533,422.075867 
	C307.322083,431.895355 307.364868,441.220642 307.306610,450.545258 
	C307.270569,456.314423 304.667328,459.617401 300.334473,459.653992 
	C295.960114,459.690918 293.299622,456.365875 293.279388,450.644073 
	C293.240662,439.689026 293.268127,428.733795 293.268127,417.164978 
	C288.682648,417.164978 284.569305,417.229126 280.458801,417.148315 
	C275.585663,417.052521 272.310425,414.227997 272.296295,410.263031 
	C272.281891,406.223724 275.486969,403.312439 280.327942,403.182739 
	C284.454224,403.072205 288.585846,403.159882 292.941650,403.159882 
	C293.774689,397.394501 291.782593,389.498871 300.290955,389.479034 
	C308.887726,389.458984 306.983704,397.260773 307.482269,403.161987 
	C311.939606,403.161987 316.075226,403.078735 320.206085,403.183655 
	C325.081940,403.307465 328.274750,406.152710 328.293365,410.185883 
	C328.312469,414.314209 325.234283,417.033600 320.294403,417.153992 
	C317.465271,417.222931 314.617859,417.351440 311.806213,417.119446 
	C308.371674,416.836090 306.762268,418.026245 307.321533,422.075867 
z"/>
<path fill="#93D836" opacity="1.000000" stroke="none" 
	d="
M299.559387,274.386536 
	C299.559326,282.654022 299.559326,290.458527 299.559326,298.749207 
	C310.801117,298.720886 319.306793,302.708649 322.003082,314.330780 
	C323.627045,321.330658 321.433533,327.326599 315.727356,332.832306 
	C297.906891,312.063263 280.368469,291.622955 261.918335,270.120056 
	C274.525574,270.120056 285.738800,270.033173 296.944427,270.284546 
	C297.842865,270.304718 298.689026,272.655731 299.559387,274.386536 
z"/>
<path fill="#F96B34" opacity="1.000000" stroke="none" 
	d="
M89.767166,83.824112 
	C101.444824,85.831078 108.158234,94.442528 106.961014,105.305725 
	C105.939331,114.576157 97.485657,121.968231 87.808495,121.587769 
	C87.808495,109.556725 87.788895,97.497337 87.872452,85.438667 
	C87.876213,84.896042 88.814514,84.359879 89.767166,83.824112 
z"/>
<path fill="#92D835" opacity="1.000000" stroke="none" 
	d="
M403.911224,245.073486 
	C415.264008,246.621658 421.567047,253.045807 422.438477,263.875031 
	C409.741425,263.875031 397.071960,263.875031 384.403198,263.875031 
	C384.222229,253.468582 392.061584,245.817825 403.911224,245.073486 
z"/>
<path fill="#97D93E" opacity="1.000000" stroke="none" 
	d="
M315.691528,152.650909 
	C314.946869,144.826889 314.612183,137.172882 314.277527,129.518890 
	C314.734558,129.406937 315.191589,129.294998 315.648621,129.183044 
	C321.022003,136.717529 326.395386,144.251999 332.506531,152.820953 
	C326.439636,152.820953 321.270569,152.820953 315.691528,152.650909 
z"/>
<path fill="#187DD5" opacity="1.000000" stroke="none" 
	d="
M290.673401,196.155945 
	C291.327789,200.414566 291.722504,204.771133 291.831085,209.134811 
	C291.965729,214.544693 291.863342,219.960495 291.863342,225.514359 
	C281.866028,218.831635 281.245453,205.547714 290.673401,196.155945 
z"/>
<path fill="#1179D4" opacity="1.000000" stroke="none" 
	d="
M368.737915,164.383698 
	C367.894379,163.164108 367.250488,162.232895 366.021118,160.455017 
	C369.332428,160.455017 371.953461,160.160522 374.454346,160.580811 
	C375.681763,160.787094 377.052673,162.111511 377.721741,163.291138 
	C379.589081,166.583389 381.519928,169.936050 382.676086,173.507523 
	C383.784851,176.932632 383.953766,180.661972 384.535675,184.257614 
	C384.074371,184.414993 383.613068,184.572372 383.151794,184.729752 
	C378.413696,178.043869 373.675598,171.357986 368.737915,164.383698 
z"/>
<path fill="#F1F7FC" opacity="1.000000" stroke="none" 
	d="
M183.828140,424.190063 
	C178.064102,424.190094 172.773254,424.190094 166.904083,424.190094 
	C169.467087,419.306000 173.325073,417.430939 177.941895,417.150848 
	C183.054367,416.840668 187.240387,418.769867 190.724106,424.190063 
	C188.067963,424.190063 186.184647,424.190063 183.828140,424.190063 
z"/>
<path fill="#EEF5FC" opacity="1.000000" stroke="none" 
	d="
M230.879822,421.022491 
	C239.238663,414.957306 247.528580,416.097839 251.965195,423.895752 
	C244.326675,423.895752 236.855789,423.895752 228.796661,423.895752 
	C229.560654,422.789154 230.078369,422.039246 230.879822,421.022491 
z"/>
<path fill="#F7FBFE" opacity="1.000000" stroke="none" 
	d="
M432.628784,442.856842 
	C425.615997,446.429901 419.510376,445.833313 414.843292,441.357605 
	C410.526947,437.218231 409.311401,430.791382 411.808014,425.309326 
	C414.291901,419.855225 419.982880,416.429352 425.918030,417.104706 
	C431.886505,417.783905 436.118347,420.966797 438.037079,426.736115 
	C440.186859,433.200104 438.045654,438.431213 432.628784,442.856842 
z"/>
</svg>