<svg height="512" viewBox="0 0 64 64" width="512" xmlns="http://www.w3.org/2000/svg"><g id="Artboard_04" data-name="Artboard 04"><path d="m21 50-5-48h32l-5 48z" fill="#3997d4"/><path d="m48 2h-27.479l3.911 37.545a6.086 6.086 0 0 0 6.053 5.455h13.036z" fill="#59aad8"/><path d="m23 56h18a0 0 0 0 1 0 0v4a2 2 0 0 1 -2 2h-14a2 2 0 0 1 -2-2v-4a0 0 0 0 1 0 0z" fill="#3997d4"/><path d="m23 56-2-6h22l-2 6z" fill="#e5e5e5"/><g fill="#f2f2f2"><path d="m27 37h11v2h-11z"/><path d="m28 41h9v2h-9z"/><path d="m38.344 21.9a3.736 3.736 0 0 0 -.448-4.633 3.528 3.528 0 0 0 -4.143-.688l-2.248 1.15-.527-.54a3.906 3.906 0 0 0 -6.195.78l-.23.392a4.133 4.133 0 0 0 -.042 4.094l1.934 3.07a6.5 6.5 0 0 1 .825 3.175c0 1.126-.06.624-.06 1.73a1.586 1.586 0 0 0 1.571 1.6 1.582 1.582 0 0 0 1.554-1.38l.845-3.65 2.892 4.114a1.553 1.553 0 0 0 2.276.618l.531-.362a1.624 1.624 0 0 0 .653-1.727l-1.065-3a3.892 3.892 0 0 1 .516-3.045z"/><path d="m42.333 52h-16.708a1.171 1.171 0 0 0 -1.111 1.542l.819 2.458h15.667z"/></g><path d="m41 60v-2h-13.375a1.626 1.626 0 0 0 -1.625 1.625v2.375h13a2 2 0 0 0 2-2z" fill="#59aad8"/><path d="m47.479 7 .521-5h-32l.521 5z" fill="#c64635"/><path d="m47.479 7 .521-5h-27.479l.521 5z" fill="#d85248"/><path d="m38.344 21.9a3.736 3.736 0 0 0 -.448-4.633 3.528 3.528 0 0 0 -4.143-.688l-2.2 1.126 2.893 2.609a1.682 1.682 0 0 1 .5 1.681l-.493 1.853a5.743 5.743 0 0 0 -.065 2.671l.732 3.424a1.678 1.678 0 0 0 1.891 1.308 1.617 1.617 0 0 0 .524-1.606l-1.065-3a3.892 3.892 0 0 1 .516-3.045z" fill="#e5e5e5" opacity=".5"/></g></svg>