<svg enable-background="new 0 0 500 500" height="512" viewBox="0 0 500 500" width="512" xmlns="http://www.w3.org/2000/svg"><g id="圖層_6"><g><g><path d="m140.6 120.9s.3.6.7 1.9c7.2 24.3 8.2 69.4-10.4 99-19 30.1-42.5 80.9-10.3 112.4l225.3 4s11-59.1-18-120.2c0 0-15-28 5-75.1z" fill="#072e37"/></g><g><path d="m253 245.1s-28.4-8.6-49.7-4l-2 10.8 54.5 2.7z" fill="#dee3e5"/></g><g><path d="m204 409.9h78.8v82.3h-78.8z" fill="#3e434f" transform="matrix(-1 0 0 -1 486.865 902.122)"/></g><g><path d="m208.7 213.3h38.7v50.1h-38.7z" fill="#f5b1a6" transform="matrix(-.998 -.059 .059 -.998 441.717 489.797)"/></g><g><ellipse cx="242" cy="111.7" fill="#072e37" rx="104.2" ry="103.2" transform="matrix(.15 -.989 .989 .15 95.353 334.27)"/></g><g><path d="m134.8 123.5c-5.1 9.8-1.3 21.8 8.5 26.9s27 4 32.1-5.8-3.9-24.5-13.6-29.6c-9.9-5.1-21.9-1.3-27 8.5z" fill="#ffc1ae"/></g><g><path d="m162.6 103.7c-22.3 58 11.4 113.1 70.6 120.7 38.1 4.9 87.5-15.3 92.8-92.8 4.2-61.3-42-88-61.8-89.8-70.6-6.3-79.6 4.6-101.6 61.9z" fill="#ffc1ae"/></g><g><ellipse cx="288.3" cy="142.6" fill="#001b22" rx="13.5" ry="9.9" transform="matrix(.15 -.989 .989 .15 104.216 406.275)"/></g><g><ellipse cx="289.7" cy="144.8" fill="#fff" rx="6.8" ry="5" transform="matrix(.15 -.989 .989 .15 103.281 409.617)"/></g><g><ellipse cx="219.4" cy="132.1" fill="#001b22" rx="13.5" ry="9.9" transform="matrix(.15 -.989 .989 .15 55.963 329.356)"/></g><g><ellipse cx="220.9" cy="134.4" fill="#fff" rx="6.8" ry="5" transform="matrix(.15 -.989 .989 .15 55.028 332.697)"/></g><g><path d="m308.5 108c-.2 0-.3 0-.5-.1-15.2-3.8-28.2-.2-28.3-.2-1.1.3-2.2-.3-2.5-1.4s.3-2.2 1.4-2.5c.6-.2 14.1-4 30.5.1 1.1.3 1.8 1.4 1.5 2.5-.3.9-1.1 1.6-2.1 1.6z" fill="#001b22"/></g><g><path d="m245.3 155.8c-.5 3.6 1.9 6.9 5.5 7.4s1.8-2.7 2.4-6.2 3.2-6.1-.4-6.7c-3.7-.5-7 2-7.5 5.5z" fill="#f3a29e"/></g><g><path d="m301.3 26.8s-23.6 35.1-59.9 60.8c-24.6 17.5-65.4 21-85.3 20.5.1.1 8-113 145.2-81.3z" fill="#072e37"/></g><g><path d="m247.2 246.2s-15.6 22.6-38.8-2.9c0 0-13.1 2.5-25.4 5.8l.8 160.6 95.5 1.6s0-108.7-7.4-159z" fill="#4cb9af"/></g><g><path d="m203.3 241s9.9 27.5 18.4 132.8c1.9 23.3 3.7 46.6 4.3 70l1.2 48.7h-79.4s32.7-103.1 27.8-166.5l-12.9-78.3z" fill="#edf3f5"/></g><g><path d="m253 245.1s23 182 9.8 247.2h50.7s-16.6-77.6-18.9-129.4c0 0-7.1-91.7-15.3-110.5z" fill="#edf3f5"/></g><g><path d="m162.6 247.7s-30.3 3.4-38.6 35.2l-20 104.7 43.5 3.5 31.8-108.2z" fill="#edf3f5"/></g><g><path d="m279.3 252.3s20.8 3 43.2 33.4c.1.1.1.2.2.2 9 12.1 20.4 17.9 32.9 26.3l35.4 28.3-15 24.2s-51.8-5-97.9-47.7z" fill="#edf3f5"/></g><g><path d="m203.3 241-18.2 32.6 26.8 49.6-10.5 11.9 23.1 77.8c0 .1-6.1-120.5-21.2-171.9z" fill="#dee3e5"/></g><g><path d="m253 245 24.7 28-14 48.8 12.8 9.4-10.1 82c0 .1-6.3-118.7-13.4-168.2z" fill="#dee3e5"/></g><g><path d="m352.8 219.5s-2.8-37.8 2-51.3c.6-1.7.2-3.7-1.1-4.8-1.1-.9-2.5-1.3-4.5.3-.9.7-1.5 1.7-2 2.8-1.6 3.4-3.8 12.7-4.1 21.4 0 0-2.2-10.6.5-19.1.5-1.7-.1-3.7-1.7-4.6-1.2-.7-2.8-.8-4.6 1-.8.8-1.3 1.8-1.7 2.8-1.2 3.5-4 13.5-2.4 22.5 0 0-2.1-9-.4-17.8.3-1.5-1.4-3.3-4-2.6-1.2.3-2.3 1.3-3.5 4.2-1.1 2.8-1.7 5.8-1.8 8.8-.2 4.5-.3 12.5.9 20 0 0-.6 8.2-7.4-7.3-.8-1.9-3.2-5.5-6.2-3.8 0 0-8.5 5.2 1 15.3 0 0 9.3 11.5 10.9 21.4z" fill="#ffc1ae"/></g><g><path d="m360.2 357.1-41.4-127 40.2-12.6s50.7 91.6 40.3 134c-.1 0-12.6 25.4-39.1 5.6z" fill="#edf3f5"/></g><g><path d="m352.7 219.6s-.1-8.7 1.4-18.3c1.2-8 5.1-15.8 6.6-18.6.7-1.2.8-3.6-1.4-4.7-1.4-.7-6.7.1-8 10.9l-2 8.8z" fill="#ffc1ae"/></g><g><g><path d="m300.5 182.7c-2.2 0-4.5-.2-6.9-.5-10.3-1.5-19.5-6.6-25.8-14.1-6.4-7.6-9.2-17-7.8-26.2 1.4-9.3 6.8-17.4 15.1-22.8s18.5-7.5 28.9-6c10.1 1.5 18.8 6.7 24.4 14.7 5.4 7.6 7.6 17.1 6.2 26.6-1.4 9.3-6.2 17.3-13.6 22.4-5.9 3.9-12.9 5.9-20.5 5.9zm-3.2-66.2c-7.3 0-14.3 2-20.1 5.8-7.4 4.8-12.2 12-13.4 20.1-1.2 8.2 1.2 16.4 6.9 23.1 5.7 6.8 14 11.4 23.4 12.8s17.9-.3 24.6-4.9c6.4-4.4 10.7-11.4 11.9-19.7 1.3-8.5-.7-16.9-5.5-23.7-5-7.1-12.7-11.7-21.8-13.1-2-.3-4-.4-6-.4z" fill="#ededed"/></g><g><path d="m211.9 169c-2.1 0-4.3-.2-6.5-.5-21.4-3.2-36.5-21.3-33.6-40.4 2.8-19.1 22.6-32 44-28.8s36.5 21.3 33.6 40.4c-2.6 17.1-18.8 29.3-37.5 29.3zm-36.3-40.3c-2.5 16.9 11.1 33 30.3 35.9s37-8.6 39.5-25.5-11.1-33-30.3-35.9c-19.2-2.8-37 8.6-39.5 25.5z" fill="#ededed"/></g><g><path d="m252.7 133.4h3.9v14.8h-3.9z" fill="#ededed" transform="matrix(.181 -.984 .984 .181 70.083 365.711)"/></g><g><path d="m175.5 123.1c-.3 0-.6-.1-.9-.2l-17.8-9.3c-1-.5-1.3-1.7-.8-2.7s1.7-1.3 2.7-.8l17.8 9.3c1 .5 1.3 1.7.8 2.7-.4.6-1.1 1-1.8 1z" fill="#ededed"/></g></g><g><path d="m231.6 178.4c-.6 4.3 4.7 8.5 11.8 9.5s13.3-1.7 13.9-6-5.8-1.9-12.9-2.9-12.2-4.9-12.8-.6z" fill="#fe6c70"/></g><g><path d="m323.7 248.8-5-1.6-119.5.7-19 149.2 1.7 2.2z" fill="#42779a"/></g><g><path d="m181.9 399.3h121.9l19.9-150.5h-121.9z" fill="#4a89b0"/></g><g><g><path d="m235.7 362.5s30.2-15.9 37.1-35.3c0 0 1.4-3.7-2-3.7-.3 0-1.2.4-1.6.9-1.5 1.9-5.2 6.2-7.7 7.6 0 0 6.5-6.6 8.4-11.3.5-1.1.3-2.5-.5-3.4-.9-1.1-2.4-2-4.4-.2 0 0-6.2 8.5-8.4 10.3 0 0 8.1-9.6 8.1-14.3 0 0-.3-4-4.2-3-.8.2-1.5.7-1.9 1.4-1.9 2.8-7.5 11.2-10.6 12.7 0 0 7-7.7 9.2-12.4.6-1.4.7-3 0-4.4-.7-1.2-2.1-2.2-4.9-1.1-.7.3-1.4.8-1.8 1.5-1.9 2.8-8 11.6-11.9 16.4-1 1.2-3 .4-2.9-1.1.1-2.6.1-4.1.5-6.7.1-1.1.5-3.5.2-4.3-.4-1.1-1.6-2.3-4.4-1.7-.6.1-1.2.4-1.7.8-1.7 1.5-4.9 4-5 14.4 0 0-.5 5.5-1.2 6.2z" fill="#ffc1ae"/></g><g><path d="m104.1 387.6 118.8-61.2 18.8 37.6s-82.3 64.7-125.8 61.2c-.1 0-27.1-8.2-11.8-37.6z" fill="#edf3f5"/></g></g><g><path d="m225.1 239.3s-11.3-.6-12.1 8.4h20.9s1.7-8.7-8.8-8.4z" fill="#e6cfd9"/></g><g><path d="m323.7 238.2s20.5 17.5 6.1 39.9l-97.2.8s4.9-39.5-7.6-39.5z" fill="#fffdfc"/></g><g><path d="m237.9 104.7c-.4 0-.8-.1-1.1-.3-.1-.1-11.5-7.4-27.1-8.2-1.1-.1-2-1-1.9-2.2.1-1.1 1-2 2.2-1.9 16.8.9 28.6 8.5 29.1 8.9.9.6 1.2 1.9.6 2.8-.5.6-1.2.9-1.8.9z" fill="#001b22"/></g></g></g></svg>