<svg height="512" viewBox="0 0 96 96" width="512" xmlns="http://www.w3.org/2000/svg"><g id="Shower_Room" data-name="Shower Room"><path d="m36.7 16.31c-4.23 4.23.74-.71-11.38 11.38a.85.85 0 0 1 -1.21 0 8.86 8.86 0 0 1 -2.63-8.4l3.84-3.84 3-3a8.9 8.9 0 0 1 8.4 2.63.84.84 0 0 1 -.02 1.23z" fill="#57528a"/><path d="m36.7 16.31c-4.38 4.38-7.47 7.53-7.57 7.58a.89.89 0 0 1 -1.19 0l-.21-.23a8.87 8.87 0 0 1 -2.41-8.17l3-3a8.9 8.9 0 0 1 8.4 2.63.84.84 0 0 1 -.02 1.19z" fill="#7a7aad"/><path d="m28.18 18.17c-.1-.68-.15-1.2.27-1.62 1.15-1.15.76-.88 1.71-1.29a6.28 6.28 0 0 1 .75 0 1.11 1.11 0 0 1 .68 1.88l-1.59 1.59a1.1 1.1 0 0 1 -1.82-.56z" fill="#fff"/><path d="m28.3 12.46-6.83 6.83-1.12-1.7a1.62 1.62 0 0 1 .2-2.05l4-4a1.62 1.62 0 0 1 2.05-.21z" fill="#768ec7"/><path d="m24.1 12-5.92-5.93a4.57 4.57 0 0 0 -3.24-1.34h-5.19v4.38h5.25l6 6z" fill="#adc5e5"/><path d="m11.25 3.75v6.34a2.11 2.11 0 0 1 -1.5 2l-2.54.77v-11.86l2.54.77a2.11 2.11 0 0 1 1.5 1.98z" fill="#7a7aad"/><rect fill="#768ec7" height="3.15" rx="1.12" transform="matrix(.707 -.707 .707 .707 -6.93 29.48)" width="20.78" x="21.74" y="21.54"/><path d="m54.44 29.57h22.56a6.58 6.58 0 0 1 6.58 6.58v5.8a0 0 0 0 1 0 0h-35.72a0 0 0 0 1 0 0v-5.8a6.58 6.58 0 0 1 6.58-6.58z" fill="#fff"/><path d="m83.63 42.94h-35.77a1 1 0 0 1 -1-1v-5.8a7.59 7.59 0 0 1 7.58-7.57h22.61a7.59 7.59 0 0 1 7.58 7.57v5.8a1 1 0 0 1 -1 1zm-34.77-2h33.77v-4.8a5.58 5.58 0 0 0 -5.58-5.57h-22.61a5.59 5.59 0 0 0 -5.58 5.57z" fill="#302d3d"/><path d="m80.12 94.93-.26-18.55a16 16 0 0 1 2.19-8.29l4.79-8.21a19.78 19.78 0 0 0 2-15.17l-4.9-17.92-6.34 5.34 3.63 15.24a9.18 9.18 0 0 1 -1.1 6.9l-4.13 6.73a2.66 2.66 0 0 1 -4.92-1.37v-4.66l-10.71.03v4.63a2.65 2.65 0 0 1 -4.9 1.39l-4.11-6.72a9.18 9.18 0 0 1 -1.1-6.9l3.63-15.24-6.54-4.6-4.69 17.18a19.78 19.78 0 0 0 2 15.17l4.79 8.21a16 16 0 0 1 2.19 8.29l-.27 18.59z" fill="#fbc4ab"/><path d="m84.44 64-2.39 4.09a15.78 15.78 0 0 0 -2.18 8.29l.25 18.54a0 0 0 0 1 0 0c-27 0-28.73.12-28.73 0l.25-18.54c.07-5.17-2-8-4.55-12.33a4.4 4.4 0 0 1 3.8-6.62h2.41l2.19 3.59a2.64 2.64 0 0 0 4.89-1.51v-2.04h10.69v2.18a2.67 2.67 0 0 0 4.93 1.35l2.17-3.54h2.51a4.35 4.35 0 0 1 3.76 6.54z" fill="#fb977e"/><path d="m85.57 32.77-1.63-6-6.34 5.36 1.67 7h1.43a5 5 0 0 0 4.87-6.36z" fill="#fb977e"/><path d="m52.23 39.15 1.66-7-6.54-4.6-1.45 5.33a5 5 0 0 0 4.78 6.27z" fill="#fb977e"/><path d="m73.7 67.29a7.59 7.59 0 0 1 -5.46-2.29 3.55 3.55 0 0 0 -5 0 7.58 7.58 0 0 1 -5.51 2.35 2.13 2.13 0 0 0 -2 2.74 20.72 20.72 0 0 1 .92 6.41l-.13 9.19a1.77 1.77 0 0 0 2.73 1.51 8.29 8.29 0 0 1 8.42-.46 6.53 6.53 0 0 0 3.06.75h.75a3.52 3.52 0 0 0 3.52-3.59c-.1-7-.41-9.84.79-13.83a2.15 2.15 0 0 0 -2.09-2.78z" fill="#fbc4ab"/><path d="m80.75 44.84-30 .1a2.89 2.89 0 0 1 0-5.78l30-.1a2.89 2.89 0 0 1 0 5.78z" fill="#fba683"/><path d="m65.8 58.15a13.42 13.42 0 0 1 -13.46-13.37v-6.15a13.42 13.42 0 1 1 26.83-.09v6.15a13.42 13.42 0 0 1 -13.37 13.46z" fill="#fbc4ab"/><path d="m61.59 51.36a1 1 0 0 1 -.1-1.41 1 1 0 0 1 1.41-.1 4.39 4.39 0 0 0 5.74 0 1 1 0 1 1 1.36 1.48 6.38 6.38 0 0 1 -8.41.03z" fill="#302d3d"/><path d="m71.06 43a1 1 0 0 1 -1-1v-.6a1 1 0 0 1 2 0v.6a1 1 0 0 1 -1 1z" fill="#302d3d"/><path d="m69.69 39.19a1 1 0 0 1 0-2h2.71a1 1 0 0 1 0 2z" fill="#302d3d"/><path d="m60.43 43a1 1 0 0 1 -1-1v-.59a1 1 0 1 1 2 0v.59a1 1 0 0 1 -1 1z" fill="#302d3d"/><path d="m59.07 39.22a1 1 0 0 1 0-2h2.72a1 1 0 0 1 0 2z" fill="#302d3d"/><path d="m61.13 77.46h-1a1 1 0 0 1 0-2h1a1 1 0 1 1 0 2z" fill="#fb977e"/><path d="m71.5 77.46h-1a1 1 0 0 1 0-2h1a1 1 0 0 1 0 2z" fill="#fb977e"/><path d="m76.33 88.38v6.55h-2v-6.55a1 1 0 0 1 2 0z" fill="#fbc4ab"/><g fill="#a3d1ff"><path d="m37.67 50.63a1 1 0 0 1 -.91-.59l-1-2.21a1 1 0 1 1 1.81-.83l1 2.21a1 1 0 0 1 -.9 1.42z"/><path d="m34.43 43.53a1 1 0 0 1 -.91-.58l-3.68-8.08a1 1 0 0 1 1.82-.87l3.68 8.08a1 1 0 0 1 -.91 1.45z"/><path d="m46.41 22.66a44.25 44.25 0 0 1 -4.63-1.17 1 1 0 0 1 .5-1.94l4.38 1.14a1 1 0 0 1 -.25 1.97z"/><path d="m41.46 39.22a1 1 0 0 1 -.74-.33l-3.32-3.63a1 1 0 0 1 .07-1.42 1 1 0 0 1 1.41.07l3.32 3.63a1 1 0 0 1 -.74 1.68z"/><path d="m35.36 32.54a1 1 0 0 1 -.74-.33l-1.15-1.27a1 1 0 1 1 1.53-1.34l1.15 1.26a1 1 0 0 1 -.79 1.68z"/><path d="m39.94 44.08a1 1 0 0 1 -.79-.39l-2.59-3.37a1 1 0 0 1 .19-1.41 1 1 0 0 1 1.4.19l2.59 3.38a1 1 0 0 1 -.8 1.6z"/><path d="m43.61 31c-.4 0 0 .15-6.09-3.58a1 1 0 0 1 1-1.7l5.57 3.43a1 1 0 0 1 -.48 1.85z"/><path d="m41.38 34c-.53 0-.63-.22-1.92-1.5a1 1 0 0 1 1.42-1.5l1.2 1.21a1 1 0 0 1 -.7 1.79z"/><path d="m42 25.49c-.28 0-.22 0-2.05-.84a1 1 0 0 1 .84-1.82l1.63.75a1 1 0 0 1 -.42 1.91z"/><path d="m44.67 79.38a1 1 0 0 1 -1-1v-3.92a1 1 0 0 1 2 0v3.92a1 1 0 0 1 -1 1z"/><path d="m42 64.13a1 1 0 0 1 -.92-.62l-1.83-4.41a1 1 0 0 1 1.84-.78l1.91 4.42a1 1 0 0 1 -1 1.39z"/><path d="m51.34 61.92a1 1 0 0 1 -.88-.52l-1.46-2.54a1 1 0 0 1 1.75-1l1.42 2.54a1 1 0 0 1 -.83 1.52z"/><path d="m46.52 51.58a1 1 0 0 1 -.85-.47l-1.62-2.63a1 1 0 0 1 1.7-1l1.62 2.63a1 1 0 0 1 -.85 1.47z"/></g><path d="m.58.96h6.63v94h-6.63z" fill="#7a7aad"/><path d="m.58 54.63h6.63v40.33h-6.63z" fill="#57528a"/><path d="m.58.96h6.63v3.77h-6.63z" fill="#8eb1d0"/><path d="m87.27 24.45a5.23 5.23 0 0 1 -4.66 5.19v.53a6.06 6.06 0 0 1 -11.79 1.83 6.07 6.07 0 0 1 -9.88 2 3.55 3.55 0 0 1 -5.94-.89 3.58 3.58 0 0 1 -6-3.93h-.2a3.58 3.58 0 0 1 -2.42-6.18 6.06 6.06 0 0 1 11.73-2.62 5.39 5.39 0 0 1 2.18 1.28 6.05 6.05 0 0 1 9.2-3.91 6.05 6.05 0 0 1 10.51 1.86 5.24 5.24 0 0 1 7.27 4.84z" fill="#cbf4ff"/><path d="m82.61 29.64v.53a6.06 6.06 0 0 1 -11.79 1.83 6.07 6.07 0 0 1 -9.88 2 3.55 3.55 0 0 1 -5.94-.89 3.58 3.58 0 0 1 -6-3.93c-.1 0-.09 0-.23 0a2.34 2.34 0 0 1 -2.08-3.14 6.06 6.06 0 0 1 11.4 0 5.48 5.48 0 0 1 2.18 1.27 6.05 6.05 0 0 1 9.2-3.9 6.05 6.05 0 0 1 10.53 1.88 5.16 5.16 0 0 1 2.6-.37 2.39 2.39 0 0 1 .01 4.72z" fill="#a3d1ff"/><path d="m68.17 95a5.31 5.31 0 0 0 -10.11-3.23 4.12 4.12 0 0 0 -5.66.23 5.31 5.31 0 0 0 -10.18 3z" fill="#a3d1ff"/><path d="m37.94 75.21a3.16 3.16 0 1 1 -3.15-3.15 3.16 3.16 0 0 1 3.15 3.15z" fill="#a3d1ff"/><path d="m93.05 80.21a2.63 2.63 0 1 1 -2.63-2.63 2.63 2.63 0 0 1 2.63 2.63z" fill="#a3d1ff"/><path d="m95.42 59.28a2.58 2.58 0 1 1 -2.59-2.58 2.59 2.59 0 0 1 2.59 2.58z" fill="#a3d1ff"/><path d="m78 63.88a5.24 5.24 0 0 1 4.59 2.7 3.24 3.24 0 1 1 0 5.17 5.28 5.28 0 1 1 -4.59-7.87z" fill="#a3d1ff"/></g></svg>