<svg height="512" viewBox="0 0 128 128" width="512" xmlns="http://www.w3.org/2000/svg"><g><path d="m72.887 72.585 6.742 2.646a4.331 4.331 0 0 0 5.455-2.092 4.331 4.331 0 0 0 -2.218-5.939l-5.328-2.2z" fill="#f8b098"/><path d="m86.8 17.619c-2.158 17.32-3.723 20.92-7.284 20.712a23.416 23.416 0 0 1 -7.447-2.087l-3.789 5.928-6.475-3.339 7.3-25.6z" fill="#f8b098"/><path d="m74.135 22.067c-3.747-2.737-5.788 2.808-3.347 5.046l-6.656 5.047s-11.182-12.017.545-19.643c-.7-6.133 10.18-8.993 23.2-1.655 6.044 3.814 2.734 12.159-3.813 10.648s-9.929.557-9.929.557z" fill="#537980"/><path d="m79.344 65.74-3.9-1.9c-.123-4.738-.411-10.2-.669-14.456a12 12 0 0 0 -6.991-10.184l-4.012-1.831a10.887 10.887 0 0 0 -15.408 9.9v36.231l26.858-10v-.009z" fill="#0f89cc"/><path d="m33.951 68.191h5.5a3 3 0 0 1 3 3v19.873a0 0 0 0 1 0 0h-8.5a0 0 0 0 1 0 0v-22.873a0 0 0 0 1 0 0z" fill="#537980"/><path d="m27.456 54.331h9a0 0 0 0 1 0 0v36.733a0 0 0 0 1 0 0h-12a0 0 0 0 1 0 0v-33.733a3 3 0 0 1 3-3z" fill="#dddde3"/><path d="m27.456 54.331h9a0 0 0 0 1 0 0v6a0 0 0 0 1 0 0h-12a0 0 0 0 1 0 0v-3a3 3 0 0 1 3-3z" fill="#537980"/><path d="m65.24 118.941-4.73-20.577h-30.084v20.577z" fill="#dddde3"/><path d="m24.456 88.662h47.816a0 0 0 0 1 0 0v3a9 9 0 0 1 -9 9h-32.816a6 6 0 0 1 -6-6v-6a0 0 0 0 1 0 0z" fill="#ededf9"/><path d="m68.387 121.5h-40.52v-3a3 3 0 0 1 3-3h34.52a3 3 0 0 1 3 3z" fill="#537980"/><path d="m97.718 90.512v24.988h-16.66v-23.84a3 3 0 0 0 -3-3h-23.69a6 6 0 0 1 -6-6v-7.41l26.85-1.75 14.882 5.841a12 12 0 0 1 7.618 11.171z" fill="#3ea7fb"/><path d="m87.058 106.12a1.75 1.75 0 0 1 -1.75-1.75v-6a1.75 1.75 0 0 1 3.5 0v6a1.75 1.75 0 0 1 -1.75 1.75z" fill="#0f89cc"/><path d="m81.044 112.5h16.5a6 6 0 0 1 6 6v3a0 0 0 0 1 0 0h-19.5a3 3 0 0 1 -3-3v-6a0 0 0 0 1 0 0z" fill="#537980"/><g fill="#3ea7fb"><path d="m79.342 67.489a1.741 1.741 0 0 1 -.764-.176l-15.643-7.613a1.747 1.747 0 0 1 -.888-1l-4.125-11.941a1.749 1.749 0 1 1 3.307-1.143l3.889 11.252 14.992 7.3a1.75 1.75 0 0 1 -.768 3.323z"/><path d="m75.218 75.25a1.753 1.753 0 0 1 -.639-.121l-18.069-7.1a4.776 4.776 0 0 1 -2.664-2.629l-7.1-17.471a1.75 1.75 0 1 1 3.242-1.319l7.1 17.472a1.261 1.261 0 0 0 .7.692l18.067 7.1a1.75 1.75 0 0 1 -.64 3.379z"/></g></g></svg>