<?xml version="1.0" standalone="no"?>
<!DOCTYPE svg PUBLIC "-//W3C//DTD SVG 20010904//EN"
 "http://www.w3.org/TR/2001/REC-SVG-20010904/DTD/svg10.dtd">
<svg version="1.0" xmlns="http://www.w3.org/2000/svg"
 width="512.000000pt" height="512.000000pt" viewBox="0 0 512.000000 512.000000"
 preserveAspectRatio="xMidYMid meet">
<metadata>
Created by potrace 1.16, written by Peter Selinger 2001-2019
</metadata>
<g transform="translate(0.000000,512.000000) scale(0.100000,-0.100000)"
fill="#000000" stroke="none">
<path d="M2235 5105 c-397 -52 -767 -191 -1095 -411 -530 -355 -908 -887
-1065 -1499 -53 -206 -67 -315 -72 -575 -4 -182 -1 -266 11 -370 97 -800 562
-1501 1266 -1913 256 -149 549 -254 864 -309 174 -30 543 -37 727 -13 1102
138 1984 955 2204 2040 47 230 59 584 30 825 -144 1157 -1068 2081 -2225 2225
-152 18 -501 18 -645 0z m615 -331 c805 -101 1517 -667 1803 -1434 155 -415
181 -898 72 -1326 -200 -782 -804 -1396 -1583 -1610 -443 -121 -947 -96 -1378
69 -665 255 -1179 827 -1364 1519 -95 357 -95 779 0 1136 105 392 316 752 606
1032 497 481 1157 700 1844 614z"/>
<path d="M2472 3960 c-18 -11 -41 -34 -52 -52 -19 -32 -20 -52 -20 -610 l0
-578 -577 0 c-559 0 -579 -1 -611 -20 -48 -30 -72 -75 -72 -140 0 -65 24 -110
72 -140 32 -19 52 -20 611 -20 l577 0 0 -577 c0 -559 1 -579 20 -611 30 -48
75 -72 140 -72 65 0 110 24 140 72 19 32 20 52 20 611 l0 577 578 0 c558 0
578 1 610 20 48 30 72 75 72 140 0 65 -24 110 -72 140 -32 19 -52 20 -610 20
l-578 0 0 578 c0 558 -1 578 -20 610 -30 48 -75 72 -140 72 -37 0 -66 -6 -88
-20z"/>
</g>
</svg>
