<svg id="Layer_1" enable-background="new 0 0 512 512" height="512" viewBox="0 0 512 512" width="512" xmlns="http://www.w3.org/2000/svg"><g id="XMLID_1_"><g id="XMLID_2095_"><path id="XMLID_1083_" d="m164.1 403s-18.5-9.9-7.7-41.1c0 0-14.2-20.9 0-42.7 0 0-12.6-35.3 28.7-22.4 0 0 13.3-58.3 39.5-23.8 0 0 15.7-16.5 43.5-16.5s20 21.3 20 21.3 56.8-21.5 42.6 12.9c0 0 42.2 8.2 26.9 39 0 0 16.1 15.8-.5 36.6 0 0 19.3 25.9-5.9 36.7" fill="#3279af"/><path id="XMLID_1093_" d="m175 399.7c-3 0-23.2 2.3-23.2 16.4 0 14 10.4 27 30.2 27" fill="#f3ab7d"/><path id="XMLID_1092_" d="m337.6 399.7c3 0 23.2 2.3 23.2 16.4 0 14-10.4 27-30.2 27" fill="#f3ab7d"/><path id="XMLID_1085_" d="m337.6 399.7s-3.7 52.2-20.5 74.3c-11.3 14.8-47.1 33-47.1 33h-27.4s-35.7-18.2-47.1-33c-16.9-22.1-20.5-74.2-20.5-74.2s14.7-4.9 17.8-29.7c0 0 31.2 9.4 35.5-29.1 0 0 17.9 28.7 48.1 9.8 0 0 9.2 28 43.3 11.6.1 0-2.1 33.1 17.9 37.3z" fill="#f6c9aa"/><g fill="#9cd3fc"><circle id="XMLID_1121_" cx="117" cy="236" r="20"/><circle id="XMLID_1120_" cx="137" cy="285" r="10"/><path id="XMLID_1119_" d="m370.6 179.1s57.1-5.7 37-53.3c0 0 18.4-16.8 18.4-33 0-30.6-35.3-22.9-35.3-22.9s-1.4-65-71.2-41.9c0 0-13.6-23.1-51.8-23.1-41.8 0-56.2 26.2-56.2 26.2s-17.4-16-49.3-9.3-29.2 46.4-29.2 46.4-47-3.2-47 29 29.7 42.6 29.7 42.6-33.9 60.4 40.4 43.9c0 0-11.9 41.3 25.4 41.3 19.8 0 40.6-22.1 40.6-22.1s41.4 42.2 76-.7c0 .1 74.5 32.7 72.5-23.1z"/></g><path id="XMLID_1118_" d="m256.5 144.6-27.8 15.4 5.3-32.6-22.5-23 31.1-4.8 13.9-29.6 13.9 29.6 31.1 4.8-22.5 23 5.3 32.6z" fill="#ffc96f"/><g id="XMLID_1117_"><path id="XMLID_2486_" d="m203.7 131.6h10v20.6h-10z" fill="#ffb234" transform="matrix(.497 .868 -.868 .497 228.164 -109.7)"/></g><g id="XMLID_1116_"><path id="XMLID_2485_" d="m252 168h10v21h-10z" fill="#ffb234"/></g><g id="XMLID_1115_"><path id="XMLID_2484_" d="m208.5 72.4h21.5v10h-21.5z" fill="#ffb234" transform="matrix(.724 .69 -.69 .724 113.923 -129.898)"/></g><g id="XMLID_1114_"><path id="XMLID_2483_" d="m294 136.9h20.6v10h-20.6z" fill="#ffb234" transform="matrix(.868 .497 -.497 .868 110.752 -132.451)"/></g><g id="XMLID_1113_"><path id="XMLID_2482_" d="m288.7 66.7h10v21.5h-10z" fill="#ffb234" transform="matrix(.69 .724 -.724 .69 147.154 -188.648)"/></g><g id="XMLID_1091_"><path id="XMLID_2398_" d="m236.7 393.9c-3-1.8-8-3.9-14.3-3.9-.1 0-.1 0-.2 0-6.4 0-11.4 2.1-14.5 3.9l-5.1-8.6c4.2-2.5 11-5.4 19.8-5.3 8.6 0 15.3 2.9 19.3 5.3z" fill="#275e87"/></g><g id="XMLID_1090_"><path id="XMLID_2397_" d="m234.5 417.4c-.8-.3-1.7-.8-2.6-1.4-2.3-1.2-5.5-3-9.5-3h-.1c-3.8 0-7.7 1.4-11.1 3.8l-5.8-8.1c5.1-3.6 10.9-5.5 16.8-5.5 6.6 0 11.7 2.7 14.4 4.1.5.2 1.1.6 1.3.7z" fill="#275e87"/></g><g id="XMLID_1089_"><path id="XMLID_2396_" d="m304.8 393.9c-3.1-1.8-8.1-3.9-14.5-3.9-.1 0-.1 0-.2 0-6.4 0-11.3 2.2-14.3 3.9l-5.1-8.6c4.1-2.4 10.8-5.3 19.3-5.3h.2c8.7 0 15.4 2.9 19.6 5.3z" fill="#275e87"/></g><g id="XMLID_1088_"><path id="XMLID_2395_" d="m278.1 417.4-3.4-9.4c.2-.1.8-.5 1.3-.8 2.7-1.4 7.7-4.2 14.2-4.2h.2c5.9 0 11.7 2.1 16.8 5.7l-5.8 8.2c-3.4-2.4-7.3-3.7-11.1-3.7-4.1 0-7.2 1.7-9.6 2.9-.9.5-1.7 1-2.6 1.3z" fill="#275e87"/></g><g id="XMLID_1087_"><path id="XMLID_2394_" d="m193 426h18v10h-18z" fill="#275e87"/></g><g id="XMLID_1086_"><path id="XMLID_2393_" d="m193 426h18v10h-18z" fill="#e17084"/></g><g id="XMLID_1084_"><path id="XMLID_2392_" d="m302 426h18v10h-18z" fill="#e17084"/></g><path id="XMLID_1082_" d="m278 450c-.9 2-8.5 15.3-21.4 15.5-13.3.2-21.1-13.5-22-15.5z" fill="#cde9fe"/></g></g></svg>