<svg height="512" viewBox="0 0 300 300" width="512" xmlns="http://www.w3.org/2000/svg"><g id="Layer_3" data-name="Layer 3"><path d="m-1423.02-2667.23h1869.52v3714.58h-1869.52z" fill="#00000000"/></g><g id="Layer_4" data-name="Layer 4"><g><path d="m269.56 66.41s0-.04-.01-.05c-.37-1.39-1.97-2.09-3.22-1.38-.64.36-1.46.71-2.5.89-.5.09-1.05.14-1.66.13-.12 0-.24 0-.37-.01-1.29-.03-2.84-.3-4.72-.97-9.4-3.35-4.34-18.02-23.69-31.78-5.65-4.02-12-6.93-18.65-8.89-34.31-10.08-48.64-2.25-57.28 6.04-4.84 4.43-7.61 10.2-7.95 14.98 0 0 .5.68.65.84 7.07 7.8 12.2 18.47 17.03 34.55 0 .04 2.87 5.62 5.72 14.6 0 0 1.39-.34 1.54-.34 19.3-.1 14.82-26.75 28.91-28.9 0 .01 0 .03.02.04.07-.02.14-.03.22-.04 10.38 22.63 24.91 28.34 35.44 33.3.07 0 .11.05.2.08 0 0 2.58 1.15 6.44 1.3.36.01.75.01 1.15 0 3.01-.08 6.62-.84 10.33-3.1 9.4-5.73 14.33-24.33 12.45-31.28z" fill="#737373"/><path d="m269.56 66.41s0-.04-.01-.05c-.39-1.47-2.1-2.13-3.39-1.33-3.5 2.18-10.24 6.52-13.3 7.43-6.03 1.79-12.42 1.58-18.64.78-4.01-.51-8.09-1.3-11.62-3.39-4.43-2.61-7.59-7-9.98-11.83-1.32-2.67-4.18-4.22-7.13-3.91-5.99.63-12 1.02-17.98.38-7.69-.84-15.41-3.55-21.16-9.07-4.07-3.9-7.22-9.48-8.91-15.04 0 0-7.59 6.71-7.95 14.98 0 0 .5.68.65.84 7.07 7.8 12.2 18.47 17.03 34.55 0 .04 2.87 5.62 5.72 14.6 0 0 1.39-.34 1.54-.34 19.3-.1 12.44-8.61 26.53-10.76 0 .01 23.32 11.66 33.85 16.62.07 0 4.31-1.41 4.4-1.38 0 0 2.58 1.15 6.44 1.3.36.01.75.01 1.15 0 3.01-.08 6.62-.84 10.33-3.1 9.4-5.73 14.33-24.33 12.45-31.28z" fill="#404040"/><path d="m234.68 255.9c-.65-1.83-1.35-3.64-2.1-5.44l-.37-.58c-10.68 6.62-25.65 8.95-37.74 7.7-2.75-.29-5.51-1.02-8.07-2.16-1.93-.85-3.74-1.93-5.36-3.21-3.91-3.1-8.43-8.58-10.65-13.04-.95-1.91-1.9-3.8-2.84-5.71-1.52-3.02-3.04-6.06-4.55-9.09l-.16-.3c-1.69.98-3.38 1.93-5.09 2.89-3.94-7.16-11.71-18.95-17.53-28.38l-.82.43c-5.36 13.77-21.56 30.25-26.42 34.86.21.18.74.66.75.67 4.31 3.59 13.69 11.41 20.37 17.56 3.51 3.21 6.28 5.98 7.18 7.41 2.43-2.27 4.85-4.51 7.23-6.78l.28.29c-.04 8.98 1.17 17.92 2.59 26.8v.6h86.24c1.46 0 2.55-1.32 2.28-2.76-.95-5.06-3.11-15.87-5.23-21.76zm-42.25 11.67c.04.12.08.25.12.37-.04-.12-.12-.24-.12-.37z" fill="#d33f93"/><path d="m239.19 99.49s2.58 1.15 6.44 1.3c-3.75-.1-6.36-1.16-6.66-1.29 0-.03 0-.06.02-.09.07 0 .11.05.2.08z" fill="#404040"/><path d="m238.99 99.41s-.02.06-.02.09c-.02-.01-.03-.01-.03-.01-.07-.03-.11-.07-.19-.08-10.52-4.96-25.04-10.66-35.42-33.26.07-.02.14-.03.22-.04 10.38 22.63 24.91 28.34 35.44 33.3z" fill="#ffd7cd"/><path d="m241.92 223.72c-2-2.06-4.77-4.22-8.48-6.45-2.22-1.33-4.07-.5-5.69 1.2v.02c-.01.01-.02.03-.03.04-2.88 3.04-5.01 8.68-7.24 9.49-6.97 2.5-15.57 2.83-21.01-2.2-1.79-1.67-3.09-3.78-4.3-5.9-2.07-3.64-3.94-7.41-5.58-11.26l-.13-.22c-2.33 1.41-4.66 2.82-6.99 4.21-6.5 3.88-13.04 7.69-19.62 11.42l.16.3c1.51 3.03 3.03 6.07 4.55 9.09.94 1.91 1.89 3.8 2.84 5.71 2.22 4.46 6.74 9.94 10.65 13.04 1.62 1.28 3.43 2.36 5.36 3.21 2.56 1.14 5.32 1.87 8.07 2.16 12.09 1.25 27.06-1.08 37.74-7.7 1.59-.97 3.08-2.06 4.47-3.22.73-.63 17.75-10.03 5.24-22.94z" fill="#ffd7cd"/><g fill="#72c47a"><path d="m161.15 158.92c-5.1-3.8-11.54-5.24-17.91-4.84-.76.05-1.52.12-2.27.22-2.47.33-4.92.92-7.24 1.77-2.44.88-4.76 2-6.99 3.29-3.44 1.99-6.65 4.42-9.66 7.08h-.01c-2.25 1.99-4.37 4.1-6.41 6.28-8.83 9.4-19.22 26.6-28.07 45.74l-.16.14c-1.14 2.45-2.24 4.94-3.32 7.45-.08.18-.16.37-.24.53 2.53 5.94 12.36 14.51 18.77 15.29 4.44.56 8.53-1.6 12.21-4.35 1.29-.97 3.79-3.11 3.79-3.11-.24-.19-.45-.36-.66-.54 4.86-4.61 21.06-21.09 26.42-34.86l.81-.43s.04.06.06.09c5.82 9.43 13.54 21.12 17.48 28.28 1.71-.96 3.4-1.91 5.09-2.89 6.58-3.73 13.12-7.54 19.62-11.42 2.33-1.39 4.66-2.8 6.99-4.21.36-.21.71-.43 1.07-.64-9.48-20.09-16.75-39.48-29.37-48.88zm-78.39 60.73c.02.05.04.1.06.14 0-.01-.02-.02-.02-.04-.01-.03-.02-.07-.04-.1zm-.07-.21s0 .02.01.03c0-.01 0-.02-.01-.03z"/><path d="m148.51 252.73c-2.38 2.27-4.8 4.51-7.23 6.78-.9-1.43-3.67-4.2-7.18-7.41l-.09.11c-2.69 2.68-11.73 9.95-18.81 14.77-2.33 1.58-5.98 3.18-9.49 4.26-2.13.66-4.2 1.13-5.9 1.29-7.27.7-14.04-.76-19.55-5.55-1.73-1.5-6.75-7.02-11.39-12.67-1.92 6.45-3.91 17.16-4.87 22.64-.32 1.81 1.08 3.47 2.92 3.47h84.46v-.6c-1.42-8.88-2.63-17.82-2.59-26.8z"/></g><path d="m167.68 103.68c-2.68-7.37-16.13-19.43-21.49-17.47-.87.33-3.49-.31-4.18.31-1.72 1.45-4.63 2.38-5.1 4.95l.72 1.55s-3.97-1.85-3.97-1.85c-34.26 12.69-33.18-9.78-49.77-10.67 0 10.75-4.98 27.95-16.15 33.77.21.57.82 2.28.84 2.29l1.84 5.05 7.44 20.44c6.01 16.46 22.48 26.19 39.2 24.4h.01c3.01-2.66 6.22-5.09 9.66-7.08 2.23-1.29 4.55-2.41 6.99-3.29 2.32-.85 4.77-1.44 7.24-1.77 7.61-8.58 20.96-17.19 18.68-28.85 1.03.03-.99.36 0 0 5.36-1.95 10.73-14.39 8.04-21.77z" fill="#ffd7cd"/><path d="m113.61 234.44s-2.47 2.11-3.76 3.08c-3.68 2.75-7.77 4.91-12.21 4.35-6.41-.78-16.19-9.25-18.72-15.19.08-.16.16-.35.24-.53 1.22-2.75 2.98-6.99 3.32-7.45 2.59-3.46-11.76.33-15.41 2.64-6.61 4.17-9.66 13.21-6.92 20.53.22.6.61 1.34 1.12 2.19 1.63 2.7 4.53 6.5 7.6 10.25 4.64 5.65 9.66 11.17 11.39 12.67 5.51 4.79 12.28 6.25 19.55 5.55 1.7-.16 3.77-.63 5.9-1.29 3.51-1.08 7.16-2.68 9.49-4.26 7.08-4.82 16.12-12.09 18.81-14.77l.09-.11c-6.68-6.15-16.18-14.07-20.49-17.66z" fill="#ffd7cd"/><path d="m203.56 66.11c-5.42.51-7.95 4.66-10.23 9.52-1.59 3.4-5.13 7.23-8.78 10.6-.75-.8-1.59-1.41-2.51-1.77-.65-.27-1.32-.42-2.04-.42-4.05 0-7.36 4.54-7.71 10.36-.02.33-.04.68-.04 1.03 0 4.73 1.95 8.78 4.74 10.51 5.17 15.18 12.47 34.46 20.89 50.33 3.89-.08 8.53-1.37 12.11-2.77 10.39-4.06 18.84-13.29 21.89-25.53l6.15-24.75.36-1.45s.42-1.7.59-2.36c-.02-.01-25.06-10.7-35.44-33.3z" fill="#ffd7cd"/><g fill="#ffa4a4"><path d="m150.91 113.05c1.73 2.44 1.55 5.54-.39 6.91s-8.2-7.48-6.26-8.85 4.92-.51 6.65 1.94z"/><path d="m145.12 113.43c-1.07-1.77-1.96-3.7-2.26-5.77-.33-2.25.21-4.42 1.55-6.25.29-.39-.37-.76-.65-.38-1.4 1.91-1.97 4.19-1.67 6.54s1.22 4.32 2.38 6.24c.25.41.9.04.65-.38z"/><path d="m92.61 154.84c4.15 1.86 8.37-.19 11.9-2.42.82-.51.06-1.81-.76-1.3-2.99 1.88-6.81 4.02-10.39 2.42-.87-.39-1.64.9-.76 1.3z"/><path d="m83.42 137.25c.62 2.01.48 4.23-.47 6.12-.26.51-.55 1.03-.42 1.63.1.44.41.79.78 1.02.42.26.91.4 1.37.56.58.2 1.17.41 1.75.61.91.32 1.31-1.13.4-1.45-.5-.17-1-.35-1.5-.52-.38-.13-.87-.22-1.21-.46-.04-.03-.1-.05-.13-.1-.04-.06-.02.11.02-.05.06-.22.21-.42.3-.62.21-.44.4-.9.55-1.37.58-1.86.58-3.9 0-5.77-.28-.92-1.73-.53-1.45.4z"/></g><path d="m92.4 127.25c-.98.42-4.28 1.49-5.61.99-.56-.21-.75-.81-.43-1.33s1.03-.77 1.58-.56c.42.07 2.47-.39 3.67-.91 1.18-.51 2.96-1.72 3.22-2.12.21-.55.86-.88 1.46-.77s.91.68.7 1.24c-.51 1.34-3.6 3.03-4.6 3.47z" fill="#594449"/><path d="m81.04 129.72c.26-.53.02-1.13-.57-1.3s-1.27.09-1.53.62c-.3.38-2.19 1.41-3.42 1.8-.46.15-1.03.27-1.59.37l.68 1.88c.64-.13 1.19-.27 1.51-.37 1.04-.33 4.28-1.72 4.92-3z" fill="#594449"/><path d="m182.16 97.92c.17-1.79.12-3.62-.43-5.34-.65-2.04-2.01-3.66-3.87-4.71-.42-.24-.8.41-.38.65 1.77 1.01 3.03 2.56 3.6 4.53.34 1.17.42 2.39.39 3.6-.03-.01-.07-.03-.11-.04-2.02-.43-4.06 1.42-4.57 4.13s.72 5.25 2.74 5.68c1.6.34 3.07-5.74 2.62-8.5z" fill="#ffa4a4"/><path d="m224.29 124.3c-.81 2.02-1.04 4.23-.72 6.37.07.5.18 1 .32 1.49.06.21.23.53.22.75 0 .12.04.06-.17.1-1.16.23-2.38.31-3.56.45-.4.05-.75.31-.75.75 0 .37.35.8.75.75 1.31-.17 2.66-.26 3.95-.51.54-.1 1.03-.44 1.21-.98.19-.58-.04-1.16-.2-1.71-.67-2.33-.5-4.82.4-7.06.15-.38-.16-.82-.52-.92-.43-.12-.77.15-.92.52z" fill="#ffa4a4"/><path d="m216.52 112.86c-.92-.54-3.73-2.57-4.1-3.94-.16-.57.21-1.08.82-1.13s1.23.37 1.39.95c.2.38 1.81 1.69 2.9 2.43 2.86 1.94 4.51 1.45 5.1 2.08.42.45-.02 1.14-.59 1.29-1.38.38-4.57-1.12-5.51-1.67z" fill="#594449"/><path d="m233.25 116.19c-1.3-.18-3.28-.84-3.61-1.12-.37-.47-1.11-.62-1.65-.33-.54.28-.69.89-.32 1.36.88 1.12 4.25 1.9 5.31 2.05.29.04.77.08 1.32.1l.49-1.97c-.55 0-1.1-.02-1.55-.08z" fill="#594449"/><path d="m209.23 138.48c1.26 3.6 5.08 6.1 8.9 5.62.4-.05.75-.31.75-.75 0-.37-.35-.8-.75-.75-3.13.4-6.4-1.5-7.46-4.52-.32-.91-1.77-.52-1.45.4z" fill="#ffa4a4"/><path d="m230.17 206.14c-.49-7.32-4-17.68-15.56-30.52-4.65-5.16-9.15-11.88-13.38-19.35-11.31-19.94-20.75-45.28-26.12-61.08-.01-.03-.02-.05-.03-.08-3.06-9.02-5.04-14.85-5.05-14.89-5.1-15.93-11.83-26.78-19.86-34.02l-.69-.84c-8.71-7.46-18.9-10.89-30.25-12.17-22.37-2.48-37.62 14.78-37.62 14.78-40.31-2.68-28.22 30.91-40.31 32.25-4.65.52-7.79 2.65-9.55 5.62l.11.06-.11-.06c-5.06 8.56 1.32 24.11 16.31 28.44 11.08 3.21 19.51.07 19.51.07.06-.03.1-.07.18-.09 11.17-5.82 17.89-19.26 17.89-30.01 16.59.89 17.47 30.91 51.73 18.22 0 0 .04.02.07.03h.02c.47-2.57 1.61-4.77 3.33-6.22.69-.62 1.5-1.06 2.37-1.39 5.36-1.96 11.88 2.44 14.56 9.81 2.69 7.38.51 14.93-4.85 16.88-.99.36-2.04.5-3.07.47 2.28 11.66-1.23 23.54-8.84 32.12v.13s2.28-.22 2.28-.22c6.37-.4 12.81 1.04 17.91 4.84 12.62 9.4 19.89 28.79 29.37 48.88-.36.21-.71.43-1.07.64l.13.22c1.64 3.85 3.51 7.62 5.58 11.26 1.21 2.12 2.51 4.23 4.3 5.9 5.44 5.03 14.04 4.7 21.01 2.2 2.23-.81 4.36-6.45 7.24-9.49.01-.01.02-.03.03-.04 0-.01 0-.02 0-.02.36-.56 2.95-4.87 2.42-12.33z" fill="#ff955a"/><path d="m220.47 228.02c-6.97 2.5-15.57 2.83-21.01-2.2-1.79-1.67-3.09-3.78-4.3-5.9-2.07-3.64-3.94-7.41-5.58-11.26l-.13-.22c.36-.21.71-.43 1.07-.64-9.48-20.09-16.75-39.48-29.37-48.88-5.1-3.8-11.54-5.24-17.91-4.84l-2.27.22c10.2-1.47 23.95-2.15 31.41 4.9 2.75 2.59 4.65 5.92 6.49 9.21 3.19 5.68 6.38 11.36 9.57 17.04 4.88 8.69 9.8 17.43 16.19 25.08 1.07 1.28 2.19 2.54 3.52 3.56 3.54 2.72 8.51 3.46 12.69 1.89s8.46-5.47 9.33-9.84c.53 7.46-2.06 11.77-2.42 12.33-.01 0-.01.01-.01.02s-.02.03-.03.04c-2.88 3.04-5.01 8.68-7.24 9.49z" fill="#c46d42"/><path d="m119.23 33.19c11.35 1.28 21.54 4.71 30.25 12.17l.69.84c-.74 4.97-3.25 9.71-6.63 13.49-4.51 5.03-10.47 8.56-16.59 11.44-5.04 2.36-10.36 4.37-15.92 4.75-4.37.3-8.76-.41-13.07-1.24-6.85-1.31-13.65-2.92-20.37-4.82-2.72 10.2-11.64 17.67-21.15 22.27-4.47 2.15-9.4 3.87-14.31 3.19-4.92-.68-9.7-4.38-10.16-9.32l-.22-.12c1.76-2.97 4.9-5.1 9.55-5.62 12.09-1.34 0-34.93 40.31-32.25 0 0 15.25-17.26 37.62-14.78z" fill="#ffca83"/><path d="m159.61 210.7c-2.62-1.82-4.69-4.3-6.87-6.63-5.1-5.44-11.01-10.26-17.43-14.07-.2-.13-.41-.25-.62-.37l-.42.7c-5.82 10.77-13.8 20.37-23.32 28.07-4.19 3.39-8.88 6.49-14.21 7.31s-11.41-1.2-13.94-5.96c-.17-.32-.25-1.06-.12-1.37l-.25.22c-1.14 2.45-2.24 4.94-3.32 7.45-.08.18-.16.37-.24.53 2.53 5.94 12.36 14.51 18.77 15.29 4.44.56 8.53-1.6 12.21-4.35 1.29-.97 3.79-3.11 3.79-3.11-.24-.19-.45-.36-.66-.54 4.86-4.61 21.06-21.09 26.42-34.86l.81-.43s.04.06.06.09c5.82 9.43 13.54 21.12 17.48 28.28 1.71-.96 3.4-1.91 5.09-2.89 6.58-3.73 13.12-7.54 19.62-11.42-7.83 2.11-16.34 2.56-22.85-1.95z" fill="#45a04b"/><path d="m148.79 253.02-.28-.29c-1.29 1.23-2.6 2.46-3.91 3.68-1.73 1.62-4.44 1.57-6.11-.12-1.21-1.23-2.72-2.66-4.39-4.19l-.09.11c-2.69 2.68-11.73 9.95-18.81 14.77-2.33 1.58-5.98 3.18-9.49 4.26-2.13.66-4.2 1.13-5.9 1.29-7.27.7-14.04-.76-19.55-5.55-1.73-1.5-6.75-7.02-11.39-12.67-3.56 8.88-4.91 20.19-5.32 24.42-.09.91.63 1.69 1.54 1.69h86.28v-.6c-1.42-8.88-2.63-17.82-2.59-26.8z" fill="#45a04b"/><path d="m232.58 250.46-.37-.58c-10.68 6.62-25.65 8.95-37.74 7.7-2.75-.29-5.51-1.02-8.07-2.16l-.04.08.04-.08c-1.93-.85-3.74-1.93-5.36-3.21-3.91-3.1-8.43-8.58-10.65-13.04-.95-1.91-1.9-3.8-2.84-5.71-1.52-3.02-3.04-6.06-4.55-9.09l-.16-.3s-.03.02-.05.03c-2.75 1.59-6.26.66-7.9-2.07-4.19-6.97-10.05-15.96-14.67-23.45l-.82.43c-5.36 13.77-21.56 30.25-26.42 34.86.21.18.74.66.75.67 10.86-3.46 21.04-9.01 29.87-16.23 1.32 6.45 4.1 12.5 6.9 18.47 1.48 3.17 3.02 6.38 4.77 9.45 2.98 5.29 6.54 10.18 11.42 13.72 3.9 2.84 8.46 4.66 13.11 5.93 4.17 1.14 8.45 1.82 12.75 2.06-.04-.12-.12-.24-.12-.37.04.12.08.25.12.37 26.06 1.63 42.13-12.04 42.13-12.04-.65-1.83-1.35-3.64-2.1-5.44z" fill="#96316f"/><path d="m177.5 220.76c-.86 3.73.92 7.51 2.75 10.86 1.98 3.64 4.16 7.3 7.42 9.84 4.26 3.33 9.95 4.38 15.35 3.98 5.39-.4 10.59-2.13 15.71-3.86 4.58-1.54 9.2-3.13 13.28-5.73 4.07-2.6 7.6-6.36 8.96-11l.95-1.13c12.51 12.91-4.51 22.31-5.24 22.94-1.39 1.16-2.88 2.25-4.47 3.22-10.68 6.62-25.65 8.95-37.74 7.7-2.75-.29-5.51-1.02-8.07-2.16-1.93-.85-3.74-1.93-5.36-3.21-3.91-3.1-8.43-8.58-10.65-13.04-.95-1.91-1.9-3.8-2.84-5.71-1.52-3.02-3.04-6.06-4.55-9.09l-.16-.3c6.58-3.73 13.12-7.54 19.62-11.42 0 0-3.94 3.66-4.96 8.11z" fill="#ffa4a4"/><path d="m65.61 248.43c39.72 40.32 50.26 1.06 44.24-10.91 1.29-.97 3.73-3.06 3.76-3.08 4.31 3.59 13.81 11.51 20.49 17.66l-.09.11c-2.69 2.68-11.73 9.95-18.81 14.77-2.33 1.58-5.98 3.18-9.49 4.26-2.13.66-4.2 1.13-5.9 1.29-7.27.7-14.04-.76-19.55-5.55-1.73-1.5-6.75-7.02-11.39-12.67-3.07-3.75-5.97-7.55-7.6-10.25 1.32 1.56 2.92 2.93 4.34 4.37z" fill="#ffa4a4"/><path d="m203.56 66.11c-5.42.51-7.95 4.66-10.23 9.52-1.59 3.4-5.13 7.23-8.78 10.6 4.42.23 13.1-11.87 16.15-16.34.35-.51 1.2-.44 1.33.17 2.1 9.91 28.78 33.93 36.96 29.35-.02-.01-25.06-10.7-35.44-33.3z" fill="#ffa4a4"/><path d="m133.4 107.37c1.13-.66 2.23-1.42 3.1-2.4 1.46-1.65 1.2-3.77.97-2.47h-.02s-.07-.03-.07-.03c-34.26 12.69-35.14-17.33-51.73-18.22 0 10.75-6.72 24.19-17.89 30.01.21.57.82 2.28.84 2.29l.22.6c.44-.24.85-.46 1.21-.64 4.84-2.35 9.54-5.36 12.7-9.81 3.91-5.51 4.99-12.56 4.97-19.32 2.63 4.92 5.71 9.65 9.61 13.65s8.65 7.25 13.98 8.9c7.3 2.26 15.53 1.3 22.12-2.56z" fill="#ffa4a4"/></g></g></svg>