<svg id="Capa_1" enable-background="new 0 0 497 497" height="512" viewBox="0 0 497 497" width="512" xmlns="http://www.w3.org/2000/svg"><g><g><path d="m355.367 497h-213.734c-10.012 0-18.578-7.193-20.309-17.055l-7.594-43.269c-21.977-125.214-33.028-252.101-33.028-379.229v-46.41c0-6.095 4.942-11.037 11.037-11.037h313.522c6.096 0 11.037 4.942 11.037 11.037v46.41c0 127.128-11.051 254.016-33.028 379.23l-7.594 43.269c-1.731 9.861-10.297 17.054-20.309 17.054z" fill="#cceffd"/></g><g><path d="m131.066 157.29c-4.18 0-7.52 3.498-7.311 7.673 4.452 88.766 14.388 177.432 29.712 264.74l3.972 22.629c.439 2.5 2.611 4.324 5.149 4.324h171.823c2.539 0 4.71-1.824 5.149-4.324l3.971-22.629c15.324-87.308 25.26-175.973 29.712-264.74.209-4.175-3.131-7.673-7.311-7.673z" fill="#75cff9"/></g><g><path d="m405.261 0h-30c6.096 0 11.037 4.941 11.037 11.037v46.41c0 127.128-11.051 254.016-33.028 379.23l-7.594 43.269c-1.731 9.861-10.297 17.054-20.309 17.054h30c10.013 0 18.578-7.193 20.309-17.055l7.594-43.269c21.977-125.214 33.028-252.102 33.028-379.23v-46.41c0-6.095-4.941-11.036-11.037-11.036z" fill="#aae2fa"/></g><g><path d="m365.934 157.29h-30c4.18 0 7.52 3.498 7.311 7.672-4.452 88.767-14.388 177.432-29.712 264.74l-3.971 22.629c-.439 2.5-2.611 4.324-5.149 4.324h30c2.539 0 4.71-1.824 5.149-4.324l3.971-22.629c15.324-87.308 25.26-175.973 29.712-264.74.209-4.174-3.131-7.672-7.311-7.672z" fill="#6cbff8"/></g></g></svg>